<?xml version="1.0" encoding="utf-8"?>
<!-- Generator: Adobe Illustrator 15.1.0, SVG Export Plug-In . SVG Version: 6.00 Build 0)  -->
<!DOCTYPE svg PUBLIC "-//W3C//DTD SVG 1.1//EN" "http://www.w3.org/Graphics/SVG/1.1/DTD/svg11.dtd">
<svg version="1.1" id="Ebene_1" xmlns="http://www.w3.org/2000/svg" xmlns:xlink="http://www.w3.org/1999/xlink" x="0px" y="0px"
	 width="64px" height="64px" viewBox="0 0 64 64" enable-background="new 0 0 64 64" xml:space="preserve">
<rect fill="#DD4B39" width="64" height="64"/>
<g>
	<path fill="#FFFFFF" d="M56,30h-5v-5h-4v5h-5v4h5v5h4v-5h5 M24,29v6.24h8.721C32.05,39,28.79,41.74,24,41.74
		c-5.279,0-9.57-4.471-9.57-9.75c0-5.281,4.291-9.74,9.57-9.74c2.38,0,4.51,0.82,6.189,2.42v0.01l4.511-4.51
		C31.93,17.59,28.32,16,24,16c-8.84,0-16,7.16-16,16s7.16,16,16,16c9.24,0,15.359-6.5,15.359-15.641c0-1.17-0.109-2.289-0.31-3.359
		H24z"/>
</g>
</svg>
