<?xml version="1.0" encoding="UTF-8" ?>
<!DOCTYPE svg PUBLIC "-//W3C//DTD SVG 1.1//EN" "http://www.w3.org/Graphics/SVG/1.1/DTD/svg11.dtd">
<svg width="573pt" height="439pt" viewBox="0 0 573 439" version="1.1" xmlns="http://www.w3.org/2000/svg">
<g id="#ffffffff">
<path fill="#ffffff" opacity="1.00" d=" M 0.00 0.00 L 151.77 0.00 C 101.06 91.25 50.68 182.68 0.00 273.94 L 0.00 0.00 Z" />
<path fill="#ffffff" opacity="1.00" d=" M 438.53 0.00 L 573.00 0.00 L 573.00 272.15 C 528.25 181.40 483.25 90.77 438.53 0.00 Z" />
<path fill="#ffffff" opacity="1.00" d=" M 155.97 10.48 C 157.29 10.26 158.61 10.03 159.95 9.98 C 251.48 10.00 343.02 9.98 434.55 9.99 C 434.97 41.44 434.65 72.91 434.49 104.36 C 341.66 104.36 248.83 104.37 156.00 104.36 C 155.98 73.07 156.04 41.77 155.97 10.48 M 369.77 33.98 C 369.54 38.41 369.71 42.85 369.73 47.29 C 374.93 44.78 379.88 40.79 385.97 40.94 C 389.55 40.69 393.51 42.31 395.26 45.58 C 397.15 50.76 394.58 56.20 391.09 60.02 C 384.41 67.49 376.38 73.61 368.28 79.42 C 368.23 82.60 368.24 85.78 368.21 88.96 C 383.43 89.04 398.66 89.00 413.88 88.98 C 413.88 85.32 414.03 81.66 413.86 78.00 C 405.25 77.98 396.63 78.06 388.01 77.95 C 395.41 72.16 403.43 66.58 408.32 58.34 C 412.55 51.18 412.59 40.79 406.05 34.97 C 399.64 29.81 390.87 29.48 383.04 30.19 C 378.65 31.44 373.73 31.53 369.77 33.98 M 171.78 31.06 C 171.80 50.35 171.80 69.65 171.78 88.94 C 180.21 89.06 188.64 88.97 197.06 89.01 C 203.27 88.26 210.00 85.84 213.37 80.19 C 215.86 76.63 216.11 72.06 215.56 67.89 C 214.80 61.51 208.99 56.39 202.70 55.81 C 204.76 54.57 206.82 53.22 208.35 51.33 C 211.29 48.00 211.46 42.96 210.12 38.93 C 208.00 33.72 202.16 31.90 197.10 31.03 C 188.66 30.98 180.22 30.96 171.78 31.06 M 236.87 42.01 C 231.12 57.63 225.64 73.34 219.78 88.92 C 221.88 88.97 223.99 89.00 226.10 89.02 C 227.70 84.71 229.23 80.36 230.67 75.99 C 237.46 76.03 244.26 75.94 251.06 76.05 C 252.77 80.33 253.91 84.82 255.76 89.06 C 257.91 89.01 260.06 88.97 262.21 88.92 C 256.37 73.33 250.85 57.62 245.11 42.00 C 242.36 42.00 239.62 42.00 236.87 42.01 M 269.31 42.06 C 269.38 57.69 269.37 73.33 269.32 88.97 C 271.28 88.98 273.25 88.98 275.22 88.96 C 275.25 75.27 275.10 61.58 275.29 47.89 C 275.86 48.56 276.37 49.28 276.81 50.05 C 283.43 63.09 290.32 75.98 297.04 88.97 C 299.59 89.02 302.15 89.01 304.72 88.90 C 304.58 73.28 304.65 57.65 304.68 42.03 C 302.71 42.02 300.75 42.02 298.78 42.04 C 298.76 54.44 298.87 66.83 298.73 79.22 C 297.94 78.35 297.19 77.42 296.70 76.35 C 290.95 64.84 284.71 53.58 278.97 42.06 C 275.75 41.97 272.53 41.97 269.31 42.06 M 328.87 42.01 C 323.14 57.63 317.61 73.33 311.80 88.93 C 313.90 88.97 316.00 89.00 318.11 89.01 C 319.72 84.68 321.19 80.31 322.74 75.95 C 329.51 76.08 336.29 75.91 343.06 76.05 C 344.77 80.34 345.90 84.84 347.78 89.07 C 349.91 89.01 352.05 88.97 354.19 88.93 C 348.41 73.32 342.83 57.64 337.12 42.00 C 334.37 42.00 331.62 42.00 328.87 42.01 Z" />
<path fill="#ffffff" opacity="1.00" d=" M 438.40 17.24 C 480.45 103.26 522.24 189.41 564.18 275.48 C 564.63 275.39 565.54 275.21 565.99 275.12 C 566.01 306.75 565.99 338.38 566.00 370.01 C 565.87 387.00 566.26 404.00 565.80 420.98 C 544.61 377.70 522.75 334.75 501.30 291.60 C 481.05 251.48 461.01 211.25 440.90 171.06 C 439.70 168.49 437.79 166.01 438.23 163.01 C 438.46 136.65 438.59 110.28 438.49 83.91 C 438.99 70.94 438.65 57.95 438.75 44.97 C 438.65 35.73 439.03 26.47 438.40 17.24 Z" />
<path fill="#ffffff" opacity="1.00" d=" M 8.66 278.03 C 56.44 191.61 104.20 105.18 151.93 18.73 C 152.10 66.80 151.93 114.88 152.02 162.95 C 152.14 164.50 151.82 166.02 150.94 167.31 C 102.97 253.55 54.98 339.77 7.06 426.03 C 6.96 376.52 6.96 327.01 7.06 277.50 C 7.46 277.63 8.26 277.90 8.66 278.03 Z" />
<path fill="#ffffff" opacity="1.00" d=" M 179.65 38.00 C 185.76 38.39 192.09 37.15 198.06 38.72 C 204.67 39.96 204.28 50.51 198.57 52.69 C 192.61 55.25 185.93 53.48 179.65 54.00 C 179.65 48.67 179.65 43.33 179.65 38.00 Z" />
<path fill="#ffffff" opacity="1.00" d=" M 240.77 47.89 C 244.10 55.35 246.33 63.28 249.22 70.94 C 243.63 71.05 238.04 71.00 232.45 70.98 C 235.27 63.30 237.92 55.56 240.77 47.89 Z" />
<path fill="#ffffff" opacity="1.00" d=" M 332.78 47.88 C 336.08 55.35 338.33 63.28 341.22 70.94 C 335.63 71.05 330.04 70.99 324.46 70.98 C 327.26 63.29 329.91 55.55 332.78 47.88 Z" />
<path fill="#ffffff" opacity="1.00" d=" M 179.65 61.00 C 185.77 61.04 191.90 60.92 198.02 61.04 C 201.60 61.74 205.87 63.14 207.20 66.93 C 208.59 71.33 208.07 77.07 203.68 79.60 C 196.30 83.58 187.65 81.48 179.65 82.00 C 179.65 75.00 179.65 68.00 179.65 61.00 Z" />
<path fill="#ffffff" opacity="1.00" d=" M 156.00 105.64 C 248.83 105.63 341.66 105.64 434.49 105.64 C 434.34 118.76 434.83 131.89 434.21 145.00 C 341.47 145.00 248.74 145.00 156.00 145.00 C 155.99 131.88 156.01 118.76 156.00 105.64 Z" />
<path fill="#ffffff" opacity="1.00" d=" M 156.00 148.00 C 248.75 148.00 341.50 148.00 434.25 148.00 C 434.24 153.33 434.25 158.66 434.25 164.00 C 341.50 164.00 248.75 164.00 156.00 164.00 C 156.00 158.67 155.99 153.33 156.00 148.00 Z" />
</g>
<g id="#000000ff">
<path fill="#000000" opacity="1.00" d=" M 151.77 0.00 L 438.53 0.00 C 483.25 90.77 528.25 181.40 573.00 272.15 L 573.00 439.00 L 0.00 439.00 L 0.00 273.94 C 50.68 182.68 101.06 91.25 151.77 0.00 M 156.00 7.00 C 155.99 8.16 155.98 9.32 155.97 10.48 C 156.04 41.77 155.98 73.07 156.00 104.36 C 248.83 104.37 341.66 104.36 434.49 104.36 C 434.65 72.91 434.97 41.44 434.55 9.99 C 435.11 8.00 434.20 6.33 431.97 6.98 C 339.98 7.03 247.99 6.98 156.00 7.00 M 438.05 9.87 C 438.50 12.23 438.63 14.64 438.29 17.03 L 438.40 17.24 C 439.03 26.47 438.65 35.73 438.75 44.97 C 438.65 57.95 438.99 70.94 438.49 83.91 C 438.59 110.28 438.46 136.65 438.23 163.01 C 437.79 166.01 439.70 168.49 440.90 171.06 C 461.01 211.25 481.05 251.48 501.30 291.60 C 522.75 334.75 544.61 377.70 565.80 420.98 C 566.26 404.00 565.87 387.00 566.00 370.01 C 565.99 338.38 566.01 306.75 565.99 275.12 L 567.11 274.89 C 560.58 260.28 553.16 246.08 546.30 231.62 C 516.60 170.64 486.92 109.65 457.23 48.67 C 450.76 35.77 444.91 22.55 438.05 9.87 M 148.88 17.81 C 101.22 104.25 53.33 190.56 5.74 277.03 C 6.07 277.15 6.73 277.38 7.06 277.50 C 6.96 327.01 6.96 376.52 7.06 426.03 C 54.98 339.77 102.97 253.55 150.94 167.31 C 151.82 166.02 152.14 164.50 152.02 162.95 C 151.93 114.88 152.10 66.80 151.93 18.73 C 152.16 16.78 152.00 14.80 151.91 12.85 C 150.72 14.39 149.76 16.08 148.88 17.81 M 156.00 105.64 C 156.01 118.76 155.99 131.88 156.00 145.00 C 156.00 145.75 156.00 147.25 156.00 148.00 C 155.99 153.33 156.00 158.67 156.00 164.00 C 248.75 164.00 341.50 164.00 434.25 164.00 C 434.25 158.66 434.24 153.33 434.25 148.00 C 434.24 147.25 434.22 145.75 434.21 145.00 C 434.83 131.89 434.34 118.76 434.49 105.64 C 341.66 105.64 248.83 105.63 156.00 105.64 M 154.37 169.06 C 135.33 203.79 115.84 238.29 96.74 272.98 C 96.22 273.98 95.71 274.98 95.18 275.97 C 85.22 293.15 75.86 310.67 66.07 327.95 C 65.67 328.96 65.27 329.98 64.87 330.99 L 64.28 330.99 C 45.84 364.77 26.86 398.26 8.29 431.97 C 102.86 432.03 197.43 431.99 292.00 431.99 C 292.75 431.99 294.25 431.99 295.00 431.99 C 385.34 432.01 475.68 432.00 566.01 432.00 C 566.00 431.35 565.97 430.05 565.96 429.40 C 558.38 414.81 551.36 399.92 543.69 385.38 C 534.37 366.93 525.38 348.31 515.84 329.98 C 515.37 328.98 514.91 327.98 514.45 326.98 L 514.35 326.98 C 507.70 313.00 500.54 299.25 493.69 285.36 C 491.94 282.17 490.74 278.65 488.47 275.76 L 488.93 275.72 C 488.55 275.04 487.79 273.68 487.41 273.00 L 487.34 273.00 C 470.37 238.25 452.76 203.78 435.59 169.13 C 398.39 168.82 361.19 169.09 323.99 169.00 C 267.45 169.04 210.91 168.92 154.37 169.06 Z" />
</g>
<g id="#c13134ff">
<path fill="#c13134" opacity="1.00" d=" M 156.00 7.00 C 247.99 6.98 339.98 7.03 431.97 6.98 C 434.20 6.33 435.11 8.00 434.55 9.99 C 343.02 9.98 251.48 10.00 159.95 9.98 C 158.61 10.03 157.29 10.26 155.97 10.48 C 155.98 9.32 155.99 8.16 156.00 7.00 Z" />
<path fill="#c13134" opacity="1.00" d=" M 438.05 9.87 C 444.91 22.55 450.76 35.77 457.23 48.67 C 486.92 109.65 516.60 170.64 546.30 231.62 C 553.16 246.08 560.58 260.28 567.11 274.89 L 565.99 275.12 C 565.54 275.21 564.63 275.39 564.18 275.48 C 522.24 189.41 480.45 103.26 438.40 17.24 L 438.29 17.03 C 438.63 14.64 438.50 12.23 438.05 9.87 Z" />
<path fill="#c13134" opacity="1.00" d=" M 148.88 17.81 C 149.76 16.08 150.72 14.39 151.91 12.85 C 152.00 14.80 152.16 16.78 151.93 18.73 C 104.20 105.18 56.44 191.61 8.66 278.03 C 8.26 277.90 7.46 277.63 7.06 277.50 C 6.73 277.38 6.07 277.15 5.74 277.03 C 53.33 190.56 101.22 104.25 148.88 17.81 Z" />
<path fill="#c13134" opacity="1.00" d=" M 156.00 145.00 C 248.74 145.00 341.47 145.00 434.21 145.00 C 434.22 145.75 434.24 147.25 434.25 148.00 C 341.50 148.00 248.75 148.00 156.00 148.00 C 156.00 147.25 156.00 145.75 156.00 145.00 Z" />
<path fill="#c13134" opacity="1.00" d=" M 96.74 272.98 C 226.94 273.02 357.14 272.99 487.34 273.00 L 487.41 273.00 C 487.79 273.68 488.55 275.04 488.93 275.72 L 488.47 275.76 C 456.67 276.33 424.83 275.83 393.01 276.01 C 392.99 293.00 393.00 310.00 393.01 326.99 C 433.46 327.00 473.90 327.02 514.35 326.98 L 514.45 326.98 C 514.91 327.98 515.37 328.98 515.84 329.98 C 473.89 330.02 431.94 329.99 390.00 330.00 C 390.00 312.00 390.01 294.01 389.99 276.01 C 358.33 276.00 326.67 276.00 295.01 276.01 C 294.99 328.00 295.00 380.00 295.00 431.99 C 294.25 431.99 292.75 431.99 292.00 431.99 C 292.00 380.00 292.01 328.00 291.99 276.01 C 259.00 275.99 226.00 276.00 193.01 276.01 C 192.99 294.34 193.00 312.67 193.00 331.00 C 150.29 330.99 107.58 331.01 64.87 330.99 C 65.27 329.98 65.67 328.96 66.07 327.95 C 107.38 328.06 148.69 327.98 189.99 327.99 C 190.00 310.66 190.00 293.33 189.99 276.01 C 158.39 275.97 126.78 276.04 95.18 275.97 C 95.71 274.98 96.22 273.98 96.74 272.98 Z" />
</g>
<g id="#444444ff">
<path fill="#444444" opacity="1.00" d=" M 369.77 33.98 C 373.73 31.53 378.65 31.44 383.04 30.19 C 390.87 29.48 399.64 29.81 406.05 34.97 C 412.59 40.79 412.55 51.18 408.32 58.34 C 403.43 66.58 395.41 72.16 388.01 77.95 C 396.63 78.06 405.25 77.98 413.86 78.00 C 414.03 81.66 413.88 85.32 413.88 88.98 C 398.66 89.00 383.43 89.04 368.21 88.96 C 368.24 85.78 368.23 82.60 368.28 79.42 C 376.38 73.61 384.41 67.49 391.09 60.02 C 394.58 56.20 397.15 50.76 395.26 45.58 C 393.51 42.31 389.55 40.69 385.97 40.94 C 379.88 40.79 374.93 44.78 369.73 47.29 C 369.71 42.85 369.54 38.41 369.77 33.98 Z" />
<path fill="#444444" opacity="1.00" d=" M 171.78 31.06 C 180.22 30.96 188.66 30.98 197.10 31.03 C 202.16 31.90 208.00 33.72 210.12 38.93 C 211.46 42.96 211.29 48.00 208.35 51.33 C 206.82 53.22 204.76 54.57 202.70 55.81 C 208.99 56.39 214.80 61.51 215.56 67.89 C 216.11 72.06 215.86 76.63 213.37 80.19 C 210.00 85.84 203.27 88.26 197.06 89.01 C 188.64 88.97 180.21 89.06 171.78 88.94 C 171.80 69.65 171.80 50.35 171.78 31.06 M 179.65 38.00 C 179.65 43.33 179.65 48.67 179.65 54.00 C 185.93 53.48 192.61 55.25 198.57 52.69 C 204.28 50.51 204.67 39.96 198.06 38.72 C 192.09 37.15 185.76 38.39 179.65 38.00 M 179.65 61.00 C 179.65 68.00 179.65 75.00 179.65 82.00 C 187.65 81.48 196.30 83.58 203.68 79.60 C 208.07 77.07 208.59 71.33 207.20 66.93 C 205.87 63.14 201.60 61.74 198.02 61.04 C 191.90 60.92 185.77 61.04 179.65 61.00 Z" />
<path fill="#444444" opacity="1.00" d=" M 236.87 42.01 C 239.62 42.00 242.36 42.00 245.11 42.00 C 250.85 57.62 256.37 73.33 262.21 88.92 C 260.06 88.97 257.91 89.01 255.76 89.06 C 253.91 84.82 252.77 80.33 251.06 76.05 C 244.26 75.94 237.46 76.03 230.67 75.99 C 229.23 80.36 227.70 84.71 226.10 89.02 C 223.99 89.00 221.88 88.97 219.78 88.92 C 225.64 73.34 231.12 57.63 236.87 42.01 M 240.77 47.89 C 237.92 55.56 235.27 63.30 232.45 70.98 C 238.04 71.00 243.63 71.05 249.22 70.94 C 246.33 63.28 244.10 55.35 240.77 47.89 Z" />
<path fill="#444444" opacity="1.00" d=" M 269.31 42.06 C 272.53 41.97 275.75 41.97 278.97 42.06 C 284.71 53.58 290.95 64.84 296.70 76.35 C 297.19 77.42 297.94 78.35 298.73 79.22 C 298.87 66.83 298.76 54.44 298.78 42.04 C 300.75 42.02 302.71 42.02 304.68 42.03 C 304.65 57.65 304.58 73.28 304.72 88.90 C 302.15 89.01 299.59 89.02 297.04 88.97 C 290.32 75.98 283.43 63.09 276.81 50.05 C 276.37 49.28 275.86 48.56 275.29 47.89 C 275.10 61.58 275.25 75.27 275.22 88.96 C 273.25 88.98 271.28 88.98 269.32 88.97 C 269.37 73.33 269.38 57.69 269.31 42.06 Z" />
<path fill="#444444" opacity="1.00" d=" M 328.87 42.01 C 331.62 42.00 334.37 42.00 337.12 42.00 C 342.83 57.64 348.41 73.32 354.19 88.93 C 352.05 88.97 349.91 89.01 347.78 89.07 C 345.90 84.84 344.77 80.34 343.06 76.05 C 336.29 75.91 329.51 76.08 322.74 75.95 C 321.19 80.31 319.72 84.68 318.11 89.01 C 316.00 89.00 313.90 88.97 311.80 88.93 C 317.61 73.33 323.14 57.63 328.87 42.01 M 332.78 47.88 C 329.91 55.55 327.26 63.29 324.46 70.98 C 330.04 70.99 335.63 71.05 341.22 70.94 C 338.33 63.28 336.08 55.35 332.78 47.88 Z" />
</g>
<g id="#90ee90ff">
<path fill="#90ee90" opacity="1.00" d=" M 154.37 169.06 C 210.91 168.92 267.45 169.04 323.99 169.00 C 361.19 169.09 398.39 168.82 435.59 169.13 C 452.76 203.78 470.37 238.25 487.34 273.00 C 357.14 272.99 226.94 273.02 96.74 272.98 C 115.84 238.29 135.33 203.79 154.37 169.06 Z" />
<path fill="#90ee90" opacity="1.00" d=" M 95.18 275.97 C 126.78 276.04 158.39 275.97 189.99 276.01 C 190.00 293.33 190.00 310.66 189.99 327.99 C 148.69 327.98 107.38 328.06 66.07 327.95 C 75.86 310.67 85.22 293.15 95.18 275.97 Z" />
<path fill="#90ee90" opacity="1.00" d=" M 193.01 276.01 C 226.00 276.00 259.00 275.99 291.99 276.01 C 292.01 328.00 292.00 380.00 292.00 431.99 C 197.43 431.99 102.86 432.03 8.29 431.97 C 26.86 398.26 45.84 364.77 64.28 330.99 L 64.87 330.99 C 107.58 331.01 150.29 330.99 193.00 331.00 C 193.00 312.67 192.99 294.34 193.01 276.01 Z" />
<path fill="#90ee90" opacity="1.00" d=" M 295.01 276.01 C 326.67 276.00 358.33 276.00 389.99 276.01 C 390.01 294.01 390.00 312.00 390.00 330.00 C 431.94 329.99 473.89 330.02 515.84 329.98 C 525.38 348.31 534.37 366.93 543.69 385.38 C 551.36 399.92 558.38 414.81 565.96 429.40 C 565.97 430.05 566.00 431.35 566.01 432.00 C 475.68 432.00 385.34 432.01 295.00 431.99 C 295.00 380.00 294.99 328.00 295.01 276.01 Z" />
<path fill="#90ee90" opacity="1.00" d=" M 393.01 276.01 C 424.83 275.83 456.67 276.33 488.47 275.76 C 490.74 278.65 491.94 282.17 493.69 285.36 C 500.54 299.25 507.70 313.00 514.35 326.98 C 473.90 327.02 433.46 327.00 393.01 326.99 C 393.00 310.00 392.99 293.00 393.01 276.01 Z" />
</g>
</svg>
