<?xml version="1.0" encoding="UTF-8" ?>
<!DOCTYPE svg PUBLIC "-//W3C//DTD SVG 1.1//EN" "http://www.w3.org/Graphics/SVG/1.1/DTD/svg11.dtd">
<svg width="573pt" height="439pt" viewBox="0 0 573 439" version="1.1" xmlns="http://www.w3.org/2000/svg">
<g id="#ffffffff">
<path fill="#ffffff" opacity="1.00" d=" M 0.00 0.00 L 151.76 0.00 C 101.06 91.25 50.69 182.68 0.00 273.94 L 0.00 0.00 Z" />
<path fill="#ffffff" opacity="1.00" d=" M 438.52 0.00 L 573.00 0.00 L 573.00 272.11 C 528.21 181.39 483.25 90.75 438.52 0.00 Z" />
<path fill="#ffffff" opacity="1.00" d=" M 155.99 10.44 C 157.29 10.24 158.60 10.04 159.93 9.99 C 251.46 10.01 343.00 9.99 434.54 10.00 C 434.99 41.45 434.63 72.91 434.49 104.36 C 341.66 104.36 248.83 104.36 156.00 104.36 C 155.99 73.05 156.02 41.74 155.99 10.44 M 171.78 31.06 C 171.80 50.35 171.80 69.65 171.78 88.94 C 180.18 89.07 188.57 88.96 196.96 89.01 C 203.23 88.28 210.03 85.85 213.40 80.13 C 215.86 76.61 216.09 72.09 215.58 67.96 C 214.83 61.56 209.01 56.39 202.68 55.80 C 206.14 53.84 209.68 51.05 210.58 46.97 C 211.11 43.58 211.17 39.75 208.96 36.89 C 206.27 33.02 201.39 31.89 197.05 31.02 C 188.63 30.99 180.20 30.96 171.78 31.06 M 384.47 31.08 C 384.15 37.98 376.02 39.45 370.53 39.01 C 370.52 42.34 370.52 45.67 370.53 49.00 C 374.60 49.02 378.68 48.93 382.75 49.09 C 382.62 59.05 382.69 69.01 382.71 78.97 C 378.65 79.02 374.59 79.00 370.53 79.00 C 370.52 82.33 370.52 85.67 370.53 89.00 C 383.46 89.00 396.38 89.00 409.31 89.00 C 409.32 85.66 409.32 82.33 409.31 79.00 C 405.30 78.99 401.28 79.04 397.27 78.94 C 397.37 62.96 397.29 46.98 397.31 31.00 C 393.03 31.02 388.75 30.92 384.47 31.08 M 236.88 42.01 C 231.11 57.62 225.65 73.35 219.78 88.92 C 221.89 88.97 224.00 89.00 226.12 89.00 C 227.75 84.68 229.15 80.27 230.77 75.94 C 237.53 76.10 244.29 75.91 251.06 76.05 C 252.77 80.33 253.91 84.83 255.77 89.06 C 257.90 89.01 260.04 88.97 262.19 88.93 C 256.41 73.32 250.83 57.63 245.11 42.00 C 242.36 42.00 239.62 42.00 236.88 42.01 M 269.30 42.07 C 269.37 57.69 269.41 73.30 269.28 88.91 C 271.26 88.98 273.23 88.99 275.22 88.96 C 275.25 75.20 275.09 61.43 275.30 47.66 C 282.83 61.26 289.75 75.21 297.02 88.96 C 299.57 89.01 302.13 89.01 304.69 88.95 C 304.62 73.31 304.63 57.67 304.68 42.04 C 302.71 42.02 300.75 42.02 298.78 42.04 C 298.77 54.62 298.86 67.19 298.74 79.77 C 291.90 67.35 285.46 54.69 278.99 42.07 C 275.76 41.96 272.53 41.96 269.30 42.07 M 328.87 42.01 C 323.14 57.64 317.61 73.34 311.79 88.93 C 313.90 88.98 316.01 89.00 318.12 89.00 C 319.73 84.68 321.18 80.30 322.73 75.96 C 329.51 76.08 336.28 75.92 343.06 76.05 C 344.78 80.34 345.90 84.84 347.78 89.06 C 349.91 89.01 352.04 88.97 354.18 88.93 C 348.40 73.31 342.84 57.61 337.09 41.98 C 334.35 42.00 331.61 42.00 328.87 42.01 Z" />
<path fill="#ffffff" opacity="1.00" d=" M 438.43 17.27 C 464.33 70.21 490.04 123.25 515.87 176.23 C 532.12 209.40 548.01 242.75 564.51 275.79 L 566.00 275.10 C 566.00 304.07 566.00 333.04 566.00 362.01 C 565.86 381.66 566.29 401.33 565.78 420.97 C 555.60 399.66 544.71 378.68 534.25 357.50 C 502.41 293.46 469.93 229.73 438.32 165.59 C 438.01 148.74 438.74 131.90 438.50 115.05 C 438.30 82.46 439.33 49.81 438.43 17.27 Z" />
<path fill="#ffffff" opacity="1.00" d=" M 8.70 278.00 C 56.44 191.71 103.99 105.31 151.85 19.09 C 152.21 66.72 151.87 114.37 152.02 162.01 C 151.93 163.46 152.25 165.06 151.44 166.36 C 103.35 252.94 55.13 339.46 7.06 426.05 C 6.97 376.54 6.94 327.03 7.07 277.52 C 7.48 277.64 8.29 277.88 8.70 278.00 Z" />
<path fill="#ffffff" opacity="1.00" d=" M 179.65 38.00 C 184.80 38.03 189.95 37.94 195.09 38.02 C 197.92 38.48 201.43 39.35 202.49 42.38 C 203.37 45.86 202.79 50.35 199.41 52.30 C 193.30 55.43 186.21 53.45 179.65 54.00 C 179.65 48.67 179.65 43.33 179.65 38.00 Z" />
<path fill="#ffffff" opacity="1.00" d=" M 240.69 47.97 C 244.22 55.30 246.27 63.33 249.23 70.93 C 243.62 71.01 238.01 71.10 232.41 70.89 C 235.33 63.30 237.92 55.60 240.69 47.97 Z" />
<path fill="#ffffff" opacity="1.00" d=" M 332.70 47.96 C 336.21 55.30 338.28 63.32 341.23 70.93 C 335.62 71.02 330.01 71.09 324.41 70.89 C 327.32 63.30 329.92 55.60 332.70 47.96 Z" />
<path fill="#ffffff" opacity="1.00" d=" M 179.65 61.00 C 185.81 61.04 191.96 60.93 198.11 61.03 C 201.65 61.77 205.87 63.16 207.19 66.91 C 208.60 71.31 208.08 77.07 203.67 79.60 C 196.31 83.59 187.65 81.48 179.65 82.00 C 179.65 75.00 179.65 68.00 179.65 61.00 Z" />
<path fill="#ffffff" opacity="1.00" d=" M 156.00 105.64 C 248.83 105.64 341.66 105.64 434.49 105.64 C 434.34 118.76 434.83 131.89 434.21 145.00 C 341.47 145.00 248.74 145.00 156.00 145.00 C 155.99 131.88 156.00 118.76 156.00 105.64 Z" />
<path fill="#ffffff" opacity="1.00" d=" M 156.00 148.00 C 248.75 148.00 341.50 148.00 434.25 148.00 C 434.24 153.33 434.25 158.66 434.25 164.00 C 341.50 164.00 248.75 164.00 156.00 164.00 C 156.00 158.67 156.00 153.33 156.00 148.00 Z" />
</g>
<g id="#000000ff">
<path fill="#000000" opacity="1.00" d=" M 151.76 0.00 L 438.52 0.00 C 483.25 90.75 528.21 181.39 573.00 272.11 L 573.00 439.00 L 0.00 439.00 L 0.00 273.94 C 50.69 182.68 101.06 91.25 151.76 0.00 M 155.99 7.00 C 155.99 8.14 155.99 9.29 155.99 10.44 C 156.02 41.74 155.99 73.05 156.00 104.36 C 248.83 104.36 341.66 104.36 434.49 104.36 C 434.63 72.91 434.99 41.45 434.54 10.00 C 434.50 9.24 434.42 7.71 434.38 6.94 C 341.58 7.07 248.79 6.97 155.99 7.00 M 438.24 9.86 C 438.52 12.25 438.54 14.66 438.30 17.05 L 438.43 17.27 C 439.33 49.81 438.30 82.46 438.50 115.05 C 438.74 131.90 438.01 148.74 438.32 165.59 C 469.93 229.73 502.41 293.46 534.25 357.50 C 544.71 378.68 555.60 399.66 565.78 420.97 C 566.29 401.33 565.86 381.66 566.00 362.01 C 566.00 333.04 566.00 304.07 566.00 275.10 C 566.22 274.87 566.65 274.41 566.86 274.18 C 563.22 265.93 558.98 257.95 555.16 249.79 C 516.12 169.84 477.39 89.75 438.24 9.86 M 150.58 14.74 C 102.35 102.18 53.91 189.52 5.75 277.00 C 6.08 277.13 6.74 277.39 7.07 277.52 C 6.94 327.03 6.97 376.54 7.06 426.05 C 55.13 339.46 103.35 252.94 151.44 166.36 C 152.25 165.06 151.93 163.46 152.02 162.01 C 151.87 114.37 152.21 66.72 151.85 19.09 C 152.30 17.05 151.89 14.93 151.92 12.86 C 151.58 13.33 150.92 14.27 150.58 14.74 M 156.00 105.64 C 156.00 118.76 155.99 131.88 156.00 145.00 C 156.00 145.75 156.00 147.25 156.00 148.00 C 156.00 153.33 156.00 158.67 156.00 164.00 C 248.75 164.00 341.50 164.00 434.25 164.00 C 434.25 158.66 434.24 153.33 434.25 148.00 C 434.24 147.25 434.22 145.75 434.21 145.00 C 434.83 131.89 434.34 118.76 434.49 105.64 C 341.66 105.64 248.83 105.64 156.00 105.64 M 154.40 169.02 C 135.31 203.75 115.84 238.28 96.72 273.00 C 96.26 273.99 95.80 274.99 95.33 275.99 C 93.72 277.65 92.87 279.86 91.73 281.83 C 83.20 297.24 74.62 312.61 66.05 327.99 C 65.67 328.98 65.30 329.97 64.92 330.97 L 64.26 330.96 C 62.97 333.71 61.42 336.33 59.96 338.99 C 42.67 369.97 25.53 401.04 8.18 431.98 C 102.78 432.02 197.39 432.00 291.99 431.99 C 292.75 431.99 294.26 432.00 295.01 432.00 C 385.35 432.00 475.68 432.00 566.01 432.00 C 566.00 431.34 565.97 430.02 565.96 429.37 C 549.70 397.14 533.39 364.95 517.36 332.61 C 516.82 331.61 516.21 330.67 515.51 329.80 L 515.96 329.76 C 515.56 329.07 514.77 327.69 514.37 327.00 L 514.33 327.00 C 511.53 320.52 508.07 314.34 505.01 307.98 C 499.57 297.34 494.50 286.49 488.82 275.97 C 488.35 274.97 487.89 273.98 487.45 272.98 L 487.36 272.98 C 470.36 238.25 452.78 203.78 435.61 169.14 C 400.08 168.81 364.55 169.09 329.02 169.00 C 270.82 169.01 212.61 168.97 154.40 169.02 Z" />
</g>
<g id="#bf3337ff">
<path fill="#bf3337" opacity="1.00" d=" M 155.99 7.00 C 248.79 6.97 341.58 7.07 434.38 6.94 C 434.42 7.71 434.50 9.24 434.54 10.00 C 343.00 9.99 251.46 10.01 159.93 9.99 C 158.60 10.04 157.29 10.24 155.99 10.44 C 155.99 9.29 155.99 8.14 155.99 7.00 Z" />
<path fill="#bf3337" opacity="1.00" d=" M 438.24 9.86 C 477.39 89.75 516.12 169.84 555.16 249.79 C 558.98 257.95 563.22 265.93 566.86 274.18 C 566.65 274.41 566.22 274.87 566.00 275.10 L 564.51 275.79 C 548.01 242.75 532.12 209.40 515.87 176.23 C 490.04 123.25 464.33 70.21 438.43 17.27 L 438.30 17.05 C 438.54 14.66 438.52 12.25 438.24 9.86 Z" />
<path fill="#bf3337" opacity="1.00" d=" M 150.58 14.74 C 150.92 14.27 151.58 13.33 151.92 12.86 C 151.89 14.93 152.30 17.05 151.85 19.09 C 103.99 105.31 56.44 191.71 8.70 278.00 C 8.29 277.88 7.48 277.64 7.07 277.52 C 6.74 277.39 6.08 277.13 5.75 277.00 C 53.91 189.52 102.35 102.18 150.58 14.74 Z" />
<path fill="#bf3337" opacity="1.00" d=" M 156.00 145.00 C 248.74 145.00 341.47 145.00 434.21 145.00 C 434.22 145.75 434.24 147.25 434.25 148.00 C 341.50 148.00 248.75 148.00 156.00 148.00 C 156.00 147.25 156.00 145.75 156.00 145.00 Z" />
<path fill="#bf3337" opacity="1.00" d=" M 96.72 273.00 C 226.94 272.98 357.15 273.01 487.36 272.98 L 487.45 272.98 C 487.89 273.98 488.35 274.97 488.82 275.97 C 456.89 276.06 424.95 275.97 393.01 276.01 C 393.00 293.00 393.00 310.00 393.01 326.99 C 433.45 327.01 473.89 326.98 514.33 327.00 L 514.37 327.00 C 514.77 327.69 515.56 329.07 515.96 329.76 L 515.51 329.80 C 473.68 330.29 431.83 329.86 390.00 330.01 C 389.98 312.01 390.01 294.01 389.99 276.02 C 358.33 276.00 326.67 276.00 295.01 276.01 C 295.00 328.01 295.00 380.00 295.01 432.00 C 294.26 432.00 292.75 431.99 291.99 431.99 C 291.99 380.00 292.01 328.01 291.98 276.01 C 258.99 276.00 226.00 276.00 193.01 276.02 C 193.00 294.35 193.01 312.68 193.00 331.01 C 150.31 330.98 107.61 331.06 64.92 330.97 C 65.30 329.97 65.67 328.98 66.05 327.99 C 107.36 327.99 148.68 328.00 189.99 327.99 C 190.00 310.66 190.00 293.34 189.99 276.02 C 158.44 275.98 126.88 276.03 95.33 275.99 C 95.80 274.99 96.26 273.99 96.72 273.00 Z" />
</g>
<g id="#444444ff">
<path fill="#444444" opacity="1.00" d=" M 171.78 31.06 C 180.20 30.96 188.63 30.99 197.05 31.02 C 201.39 31.89 206.27 33.02 208.96 36.89 C 211.17 39.75 211.11 43.58 210.58 46.97 C 209.68 51.05 206.14 53.84 202.68 55.80 C 209.01 56.39 214.83 61.56 215.58 67.96 C 216.09 72.09 215.86 76.61 213.40 80.13 C 210.03 85.85 203.23 88.28 196.96 89.01 C 188.57 88.96 180.18 89.07 171.78 88.94 C 171.80 69.65 171.80 50.35 171.78 31.06 M 179.65 38.00 C 179.65 43.33 179.65 48.67 179.65 54.00 C 186.21 53.45 193.30 55.43 199.41 52.30 C 202.79 50.35 203.37 45.86 202.49 42.38 C 201.43 39.35 197.92 38.48 195.09 38.02 C 189.95 37.94 184.80 38.03 179.65 38.00 M 179.65 61.00 C 179.65 68.00 179.65 75.00 179.65 82.00 C 187.65 81.48 196.31 83.59 203.67 79.60 C 208.08 77.07 208.60 71.31 207.19 66.91 C 205.87 63.16 201.65 61.77 198.11 61.03 C 191.96 60.93 185.81 61.04 179.65 61.00 Z" />
<path fill="#444444" opacity="1.00" d=" M 384.47 31.08 C 388.75 30.92 393.03 31.02 397.31 31.00 C 397.29 46.98 397.37 62.96 397.27 78.94 C 401.28 79.04 405.30 78.99 409.31 79.00 C 409.32 82.33 409.32 85.66 409.31 89.00 C 396.38 89.00 383.46 89.00 370.53 89.00 C 370.52 85.67 370.52 82.33 370.53 79.00 C 374.59 79.00 378.65 79.02 382.71 78.97 C 382.69 69.01 382.62 59.05 382.75 49.09 C 378.68 48.93 374.60 49.02 370.53 49.00 C 370.52 45.67 370.52 42.34 370.53 39.01 C 376.02 39.45 384.15 37.98 384.47 31.08 Z" />
<path fill="#444444" opacity="1.00" d=" M 236.88 42.01 C 239.62 42.00 242.36 42.00 245.11 42.00 C 250.83 57.63 256.41 73.32 262.19 88.93 C 260.04 88.97 257.90 89.01 255.77 89.06 C 253.91 84.83 252.77 80.33 251.06 76.05 C 244.29 75.91 237.53 76.10 230.77 75.94 C 229.15 80.27 227.75 84.68 226.12 89.00 C 224.00 89.00 221.89 88.97 219.78 88.92 C 225.65 73.35 231.11 57.62 236.88 42.01 M 240.69 47.97 C 237.92 55.60 235.33 63.30 232.41 70.89 C 238.01 71.10 243.62 71.01 249.23 70.93 C 246.27 63.33 244.22 55.30 240.69 47.97 Z" />
<path fill="#444444" opacity="1.00" d=" M 269.30 42.07 C 272.53 41.96 275.76 41.96 278.99 42.07 C 285.46 54.69 291.90 67.35 298.74 79.77 C 298.86 67.19 298.77 54.62 298.78 42.04 C 300.75 42.02 302.71 42.02 304.68 42.04 C 304.63 57.67 304.62 73.31 304.69 88.95 C 302.13 89.01 299.57 89.01 297.02 88.96 C 289.75 75.21 282.83 61.26 275.30 47.66 C 275.09 61.43 275.25 75.20 275.22 88.96 C 273.23 88.99 271.26 88.98 269.28 88.91 C 269.41 73.30 269.37 57.69 269.30 42.07 Z" />
<path fill="#444444" opacity="1.00" d=" M 328.87 42.01 C 331.61 42.00 334.35 42.00 337.09 41.98 C 342.84 57.61 348.40 73.31 354.18 88.93 C 352.04 88.97 349.91 89.01 347.78 89.06 C 345.90 84.84 344.78 80.34 343.06 76.05 C 336.28 75.92 329.51 76.08 322.73 75.96 C 321.18 80.30 319.73 84.68 318.12 89.00 C 316.01 89.00 313.90 88.98 311.79 88.93 C 317.61 73.34 323.14 57.64 328.87 42.01 M 332.70 47.96 C 329.92 55.60 327.32 63.30 324.41 70.89 C 330.01 71.09 335.62 71.02 341.23 70.93 C 338.28 63.32 336.21 55.30 332.70 47.96 Z" />
</g>
<g id="#f08080ff">
<path fill="#f08080" opacity="1.00" d=" M 154.40 169.02 C 212.61 168.97 270.82 169.01 329.02 169.00 C 364.55 169.09 400.08 168.81 435.61 169.14 C 452.78 203.78 470.36 238.25 487.36 272.98 C 357.15 273.01 226.94 272.98 96.72 273.00 C 115.84 238.28 135.31 203.75 154.40 169.02 Z" />
<path fill="#f08080" opacity="1.00" d=" M 91.73 281.83 C 92.87 279.86 93.72 277.65 95.33 275.99 C 126.88 276.03 158.44 275.98 189.99 276.02 C 190.00 293.34 190.00 310.66 189.99 327.99 C 148.68 328.00 107.36 327.99 66.05 327.99 C 74.62 312.61 83.20 297.24 91.73 281.83 Z" />
<path fill="#f08080" opacity="1.00" d=" M 193.01 276.02 C 226.00 276.00 258.99 276.00 291.98 276.01 C 292.01 328.01 291.99 380.00 291.99 431.99 C 197.39 432.00 102.78 432.02 8.18 431.98 C 25.53 401.04 42.67 369.97 59.96 338.99 C 61.42 336.33 62.97 333.71 64.26 330.96 L 64.92 330.97 C 107.61 331.06 150.31 330.98 193.00 331.01 C 193.01 312.68 193.00 294.35 193.01 276.02 Z" />
<path fill="#f08080" opacity="1.00" d=" M 295.01 276.01 C 326.67 276.00 358.33 276.00 389.99 276.02 C 390.01 294.01 389.98 312.01 390.00 330.01 C 431.83 329.86 473.68 330.29 515.51 329.80 C 516.21 330.67 516.82 331.61 517.36 332.61 C 533.39 364.95 549.70 397.14 565.96 429.37 C 565.97 430.02 566.00 431.34 566.01 432.00 C 475.68 432.00 385.35 432.00 295.01 432.00 C 295.00 380.00 295.00 328.01 295.01 276.01 Z" />
<path fill="#f08080" opacity="1.00" d=" M 393.01 276.01 C 424.95 275.97 456.89 276.06 488.82 275.97 C 494.50 286.49 499.57 297.34 505.01 307.98 C 508.07 314.34 511.53 320.52 514.33 327.00 C 473.89 326.98 433.45 327.01 393.01 326.99 C 393.00 310.00 393.00 293.00 393.01 276.01 Z" />
</g>
</svg>
