<?xml version="1.0" encoding="UTF-8" ?>
<!DOCTYPE svg PUBLIC "-//W3C//DTD SVG 1.1//EN" "http://www.w3.org/Graphics/SVG/1.1/DTD/svg11.dtd">
<svg width="573pt" height="439pt" viewBox="0 0 573 439" version="1.1" xmlns="http://www.w3.org/2000/svg">
<g id="#ffffffff">
<path fill="#ffffff" opacity="1.00" d=" M 0.00 0.00 L 151.77 0.00 C 101.06 91.24 50.70 182.68 0.00 273.93 L 0.00 0.00 Z" />
<path fill="#ffffff" opacity="1.00" d=" M 438.52 0.00 L 573.00 0.00 L 573.00 272.16 C 528.26 181.40 483.24 90.77 438.52 0.00 Z" />
<path fill="#ffffff" opacity="1.00" d=" M 155.97 10.45 C 157.30 10.25 158.63 10.06 159.98 10.00 C 251.50 10.00 343.02 10.00 434.54 10.00 C 434.98 41.45 434.65 72.92 434.48 104.37 C 341.65 104.35 248.83 104.37 156.00 104.36 C 155.98 73.06 156.03 41.75 155.97 10.45 M 369.77 34.02 C 369.55 38.44 369.71 42.88 369.73 47.31 C 374.94 44.75 379.92 40.77 386.04 40.94 C 390.61 40.53 396.31 43.76 395.84 48.94 C 396.17 54.74 391.91 59.30 388.16 63.18 C 382.03 69.17 375.25 74.49 368.26 79.44 C 368.23 82.62 368.24 85.79 368.21 88.96 C 383.51 88.98 398.80 89.11 414.09 88.90 C 413.79 85.28 413.86 81.64 413.90 78.02 C 405.26 77.95 396.61 78.06 387.97 77.96 C 396.31 71.40 405.91 65.01 409.97 54.77 C 412.52 47.95 411.47 39.23 405.50 34.53 C 399.09 29.80 390.65 29.46 383.04 30.22 C 378.63 31.41 373.68 31.54 369.77 34.02 M 171.78 31.06 C 171.80 50.35 171.80 69.65 171.78 88.94 C 180.17 89.06 188.56 88.98 196.95 89.00 C 203.21 88.31 209.98 85.85 213.37 80.19 C 216.05 76.33 216.16 71.33 215.39 66.86 C 214.17 60.91 208.63 56.46 202.71 55.75 C 206.75 53.60 210.78 49.95 210.83 45.02 C 211.47 40.58 209.44 35.82 205.39 33.70 C 201.89 31.89 197.91 30.80 193.96 30.97 C 186.57 31.06 179.17 30.92 171.78 31.06 M 236.87 42.01 C 231.14 57.64 225.59 73.33 219.81 88.94 C 221.91 88.98 224.01 89.00 226.11 89.00 C 227.72 84.68 229.20 80.32 230.72 75.97 C 237.50 76.06 244.28 75.93 251.06 76.05 C 252.78 80.34 253.90 84.85 255.80 89.08 C 257.93 89.01 260.07 88.97 262.20 88.92 C 256.38 73.32 250.85 57.62 245.10 41.99 C 242.36 42.00 239.61 42.00 236.87 42.01 M 269.29 42.09 C 269.40 57.70 269.38 73.32 269.29 88.93 C 271.27 88.97 273.24 88.98 275.22 88.97 C 275.26 75.22 275.09 61.48 275.30 47.74 C 282.90 61.28 289.73 75.27 297.05 88.98 C 299.60 89.02 302.15 89.01 304.70 88.92 C 304.60 73.30 304.63 57.67 304.69 42.05 C 302.72 42.02 300.75 42.02 298.79 42.04 C 298.77 54.55 298.86 67.06 298.74 79.57 C 297.75 78.15 296.84 76.69 296.09 75.14 C 290.52 64.05 284.50 53.19 278.98 42.07 C 275.75 41.96 272.52 41.96 269.29 42.09 M 328.86 42.02 C 323.14 57.64 317.61 73.34 311.80 88.93 C 313.90 88.98 316.00 89.00 318.11 89.01 C 319.71 84.69 321.20 80.33 322.71 75.97 C 329.49 76.05 336.27 75.93 343.06 76.05 C 344.74 80.33 345.95 84.79 347.72 89.04 C 349.88 89.00 352.04 88.97 354.21 88.92 C 348.37 73.33 342.86 57.61 337.09 41.99 C 334.35 42.00 331.60 42.00 328.86 42.02 Z" />
<path fill="#ffffff" opacity="1.00" d=" M 438.53 16.73 C 442.91 27.26 448.45 37.28 453.26 47.63 C 490.26 123.61 527.24 199.61 564.24 275.60 C 564.66 275.44 565.51 275.13 565.94 274.97 C 566.08 306.63 565.96 338.30 566.00 369.96 C 565.86 386.96 566.29 403.98 565.77 420.97 C 557.50 403.44 548.49 386.25 539.93 368.86 C 507.13 303.09 474.02 237.48 441.22 171.71 C 439.98 168.91 437.79 166.27 438.23 163.04 C 438.43 138.36 438.60 113.68 438.50 89.00 C 438.83 64.92 438.94 40.81 438.53 16.73 Z" />
<path fill="#ffffff" opacity="1.00" d=" M 8.71 278.00 C 56.44 191.58 104.22 105.18 151.93 18.75 C 152.10 66.84 151.93 114.92 152.02 163.01 C 152.26 164.84 151.50 166.50 150.56 168.01 C 102.68 253.91 55.04 339.95 7.08 425.80 C 6.95 376.37 6.95 326.94 7.08 277.51 C 7.48 277.63 8.30 277.87 8.71 278.00 Z" />
<path fill="#ffffff" opacity="1.00" d=" M 179.65 38.00 C 185.76 38.39 192.09 37.15 198.05 38.72 C 204.68 39.95 204.27 50.49 198.58 52.70 C 192.61 55.24 185.93 53.49 179.65 54.00 C 179.65 48.67 179.65 43.33 179.65 38.00 Z" />
<path fill="#ffffff" opacity="1.00" d=" M 232.40 70.88 C 235.42 63.24 237.86 55.39 240.87 47.76 C 243.90 55.39 246.43 63.22 249.21 70.94 C 243.61 71.01 238.00 71.10 232.40 70.88 Z" />
<path fill="#ffffff" opacity="1.00" d=" M 332.76 47.91 C 336.12 55.35 338.32 63.29 341.23 70.93 C 335.62 71.01 330.01 71.10 324.41 70.88 C 327.36 63.29 329.89 55.53 332.76 47.91 Z" />
<path fill="#ffffff" opacity="1.00" d=" M 179.65 61.00 C 185.80 61.05 191.95 60.91 198.10 61.04 C 201.89 61.76 206.43 63.44 207.43 67.64 C 208.04 70.97 208.33 75.05 205.81 77.71 C 203.45 80.65 199.51 81.29 196.03 81.97 C 190.57 82.08 185.11 81.95 179.65 82.00 C 179.65 75.00 179.65 68.00 179.65 61.00 Z" />
<path fill="#ffffff" opacity="1.00" d=" M 156.00 105.64 C 248.83 105.63 341.66 105.64 434.49 105.64 C 434.35 118.76 434.83 131.89 434.21 145.00 C 341.47 145.00 248.74 145.00 156.01 145.00 C 155.99 131.88 156.00 118.76 156.00 105.64 Z" />
<path fill="#ffffff" opacity="1.00" d=" M 156.01 148.00 C 248.75 148.00 341.50 148.00 434.25 148.00 C 434.24 153.33 434.25 158.66 434.25 164.00 C 341.50 164.00 248.75 164.00 156.00 164.00 C 156.00 158.67 155.99 153.33 156.01 148.00 Z" />
</g>
<g id="#000000ff">
<path fill="#000000" opacity="1.00" d=" M 151.77 0.00 L 438.52 0.00 C 483.24 90.77 528.26 181.40 573.00 272.16 L 573.00 439.00 L 0.00 439.00 L 0.00 273.93 C 50.70 182.68 101.06 91.24 151.77 0.00 M 156.00 7.00 C 155.99 8.15 155.98 9.30 155.97 10.45 C 156.03 41.75 155.98 73.06 156.00 104.36 C 248.83 104.37 341.65 104.35 434.48 104.37 C 434.65 72.92 434.98 41.45 434.54 10.00 C 434.50 9.24 434.42 7.70 434.37 6.94 C 341.58 7.07 248.79 6.95 156.00 7.00 M 438.11 9.94 C 438.36 12.20 438.40 14.47 438.53 16.73 C 438.94 40.81 438.83 64.92 438.50 89.00 C 438.60 113.68 438.43 138.36 438.23 163.04 C 437.79 166.27 439.98 168.91 441.22 171.71 C 474.02 237.48 507.13 303.09 539.93 368.86 C 548.49 386.25 557.50 403.44 565.77 420.97 C 566.29 403.98 565.86 386.96 566.00 369.96 C 565.96 338.30 566.08 306.63 565.94 274.97 C 566.24 274.83 566.85 274.54 567.16 274.40 C 531.76 201.91 496.54 129.33 461.19 56.82 C 453.44 41.22 446.23 25.34 438.11 9.94 M 150.24 15.34 C 102.13 102.59 53.82 189.74 5.73 277.00 C 6.07 277.13 6.74 277.38 7.08 277.51 C 6.95 326.94 6.95 376.37 7.08 425.80 C 55.04 339.95 102.68 253.91 150.56 168.01 C 151.50 166.50 152.26 164.84 152.02 163.01 C 151.93 114.92 152.10 66.84 151.93 18.75 C 152.16 16.78 151.99 14.79 151.90 12.81 C 151.31 13.63 150.76 14.47 150.24 15.34 M 156.00 105.64 C 156.00 118.76 155.99 131.88 156.01 145.00 C 156.01 145.75 156.01 147.25 156.01 148.00 C 155.99 153.33 156.00 158.67 156.00 164.00 C 248.75 164.00 341.50 164.00 434.25 164.00 C 434.25 158.66 434.24 153.33 434.25 148.00 C 434.24 147.25 434.22 145.75 434.21 145.00 C 434.83 131.89 434.35 118.76 434.49 105.64 C 341.66 105.64 248.83 105.63 156.00 105.64 M 154.37 169.04 C 135.31 203.78 115.84 238.30 96.71 273.00 C 96.27 273.98 95.82 274.96 95.37 275.95 C 93.74 277.62 92.87 279.85 91.71 281.85 C 83.20 297.25 74.62 312.61 66.05 327.99 C 65.68 328.97 65.31 329.97 64.94 330.96 L 64.27 330.95 C 45.87 364.77 26.82 398.24 8.29 432.00 C 102.86 432.00 197.42 432.01 291.99 431.99 C 292.74 431.99 294.26 431.99 295.01 431.99 C 385.35 432.01 475.69 432.00 566.03 432.00 C 566.00 431.32 565.95 429.97 565.93 429.30 C 550.13 398.01 534.31 366.74 518.71 335.35 C 517.79 333.42 516.85 331.49 515.54 329.79 L 515.89 329.77 C 515.54 329.07 514.82 327.67 514.46 326.97 L 514.36 326.97 C 506.03 309.88 497.58 292.83 488.82 275.96 C 488.36 274.97 487.92 273.97 487.49 272.98 L 487.36 272.98 C 470.36 238.25 452.78 203.78 435.60 169.14 C 401.76 168.81 367.90 169.09 334.05 169.00 C 274.16 169.03 214.27 168.94 154.37 169.04 Z" />
</g>
<g id="#bf3437ff">
<path fill="#bf3437" opacity="1.00" d=" M 156.00 7.00 C 248.79 6.95 341.58 7.07 434.37 6.94 C 434.42 7.70 434.50 9.24 434.54 10.00 C 343.02 10.00 251.50 10.00 159.98 10.00 C 158.63 10.06 157.30 10.25 155.97 10.45 C 155.98 9.30 155.99 8.15 156.00 7.00 Z" />
<path fill="#bf3437" opacity="1.00" d=" M 438.11 9.94 C 446.23 25.34 453.44 41.22 461.19 56.82 C 496.54 129.33 531.76 201.91 567.16 274.40 C 566.85 274.54 566.24 274.83 565.94 274.97 C 565.51 275.13 564.66 275.44 564.24 275.60 C 527.24 199.61 490.26 123.61 453.26 47.63 C 448.45 37.28 442.91 27.26 438.53 16.73 C 438.40 14.47 438.36 12.20 438.11 9.94 Z" />
<path fill="#bf3437" opacity="1.00" d=" M 150.24 15.34 C 150.76 14.47 151.31 13.63 151.90 12.81 C 151.99 14.79 152.16 16.78 151.93 18.75 C 104.22 105.18 56.44 191.58 8.71 278.00 C 8.30 277.87 7.48 277.63 7.08 277.51 C 6.74 277.38 6.07 277.13 5.73 277.00 C 53.82 189.74 102.13 102.59 150.24 15.34 Z" />
<path fill="#bf3437" opacity="1.00" d=" M 156.01 145.00 C 248.74 145.00 341.47 145.00 434.21 145.00 C 434.22 145.75 434.24 147.25 434.25 148.00 C 341.50 148.00 248.75 148.00 156.01 148.00 C 156.01 147.25 156.01 145.75 156.01 145.00 Z" />
<path fill="#bf3437" opacity="1.00" d=" M 96.71 273.00 C 226.93 272.97 357.15 273.00 487.36 272.98 L 487.49 272.98 C 487.92 273.97 488.36 274.97 488.82 275.96 C 456.88 276.09 424.95 275.97 393.01 276.02 C 393.02 293.01 393.01 309.99 393.02 326.98 C 433.46 326.98 473.91 327.00 514.36 326.97 L 514.46 326.97 C 514.82 327.67 515.54 329.07 515.89 329.77 L 515.54 329.79 C 500.05 330.31 484.52 329.86 469.02 330.02 C 442.68 330.00 416.34 330.04 390.00 330.00 C 389.96 312.01 389.99 294.01 389.99 276.02 C 358.33 276.01 326.67 276.01 295.01 276.02 C 295.02 328.01 295.02 380.00 295.01 431.99 C 294.26 431.99 292.74 431.99 291.99 431.99 C 291.98 380.00 291.99 328.00 291.98 276.01 C 258.99 276.03 226.00 276.01 193.01 276.02 C 193.01 294.35 193.03 312.67 193.00 331.00 C 150.31 331.00 107.63 331.08 64.94 330.96 C 65.31 329.97 65.68 328.97 66.05 327.99 C 107.36 327.97 148.67 328.00 189.98 327.98 C 189.98 310.66 189.99 293.34 189.98 276.02 C 158.44 275.97 126.91 276.10 95.37 275.95 C 95.82 274.96 96.27 273.98 96.71 273.00 Z" />
</g>
<g id="#444444ff">
<path fill="#444444" opacity="1.00" d=" M 369.77 34.02 C 373.68 31.54 378.63 31.41 383.04 30.22 C 390.65 29.46 399.09 29.80 405.50 34.53 C 411.47 39.23 412.52 47.95 409.97 54.77 C 405.91 65.01 396.31 71.40 387.97 77.96 C 396.61 78.06 405.26 77.95 413.90 78.02 C 413.86 81.64 413.79 85.28 414.09 88.90 C 398.80 89.11 383.51 88.98 368.21 88.96 C 368.24 85.79 368.23 82.62 368.26 79.44 C 375.25 74.49 382.03 69.17 388.16 63.18 C 391.91 59.30 396.17 54.74 395.84 48.94 C 396.31 43.76 390.61 40.53 386.04 40.94 C 379.92 40.77 374.94 44.75 369.73 47.31 C 369.71 42.88 369.55 38.44 369.77 34.02 Z" />
<path fill="#444444" opacity="1.00" d=" M 171.78 31.06 C 179.17 30.92 186.57 31.06 193.96 30.97 C 197.91 30.80 201.89 31.89 205.39 33.70 C 209.44 35.82 211.47 40.58 210.83 45.02 C 210.78 49.95 206.75 53.60 202.71 55.75 C 208.63 56.46 214.17 60.91 215.39 66.86 C 216.16 71.33 216.05 76.33 213.37 80.19 C 209.98 85.85 203.21 88.31 196.95 89.00 C 188.56 88.98 180.17 89.06 171.78 88.94 C 171.80 69.65 171.80 50.35 171.78 31.06 M 179.65 38.00 C 179.65 43.33 179.65 48.67 179.65 54.00 C 185.93 53.49 192.61 55.24 198.58 52.70 C 204.27 50.49 204.68 39.95 198.05 38.72 C 192.09 37.15 185.76 38.39 179.65 38.00 M 179.65 61.00 C 179.65 68.00 179.65 75.00 179.65 82.00 C 185.11 81.95 190.57 82.08 196.03 81.97 C 199.51 81.29 203.45 80.65 205.81 77.71 C 208.33 75.05 208.04 70.97 207.43 67.64 C 206.43 63.44 201.89 61.76 198.10 61.04 C 191.95 60.91 185.80 61.05 179.65 61.00 Z" />
<path fill="#444444" opacity="1.00" d=" M 236.87 42.01 C 239.61 42.00 242.36 42.00 245.10 41.99 C 250.85 57.62 256.38 73.32 262.20 88.92 C 260.07 88.97 257.93 89.01 255.80 89.08 C 253.90 84.85 252.78 80.34 251.06 76.05 C 244.28 75.93 237.50 76.06 230.72 75.97 C 229.20 80.32 227.72 84.68 226.11 89.00 C 224.01 89.00 221.91 88.98 219.81 88.94 C 225.59 73.33 231.14 57.64 236.87 42.01 M 232.40 70.88 C 238.00 71.10 243.61 71.01 249.21 70.94 C 246.43 63.22 243.90 55.39 240.87 47.76 C 237.86 55.39 235.42 63.24 232.40 70.88 Z" />
<path fill="#444444" opacity="1.00" d=" M 269.29 42.09 C 272.52 41.96 275.75 41.96 278.98 42.07 C 284.50 53.19 290.52 64.05 296.09 75.14 C 296.84 76.69 297.75 78.15 298.74 79.57 C 298.86 67.06 298.77 54.55 298.79 42.04 C 300.75 42.02 302.72 42.02 304.69 42.05 C 304.63 57.67 304.60 73.30 304.70 88.92 C 302.15 89.01 299.60 89.02 297.05 88.98 C 289.73 75.27 282.90 61.28 275.30 47.74 C 275.09 61.48 275.26 75.22 275.22 88.97 C 273.24 88.98 271.27 88.97 269.29 88.93 C 269.38 73.32 269.40 57.70 269.29 42.09 Z" />
<path fill="#444444" opacity="1.00" d=" M 328.86 42.02 C 331.60 42.00 334.35 42.00 337.09 41.99 C 342.86 57.61 348.37 73.33 354.21 88.92 C 352.04 88.97 349.88 89.00 347.72 89.04 C 345.95 84.79 344.74 80.33 343.06 76.05 C 336.27 75.93 329.49 76.05 322.71 75.97 C 321.20 80.33 319.71 84.69 318.11 89.01 C 316.00 89.00 313.90 88.98 311.80 88.93 C 317.61 73.34 323.14 57.64 328.86 42.02 M 332.76 47.91 C 329.89 55.53 327.36 63.29 324.41 70.88 C 330.01 71.10 335.62 71.01 341.23 70.93 C 338.32 63.29 336.12 55.35 332.76 47.91 Z" />
</g>
<g id="#f08080ff">
<path fill="#f08080" opacity="1.00" d=" M 154.37 169.04 C 214.27 168.94 274.16 169.03 334.05 169.00 C 367.90 169.09 401.76 168.81 435.60 169.14 C 452.78 203.78 470.36 238.25 487.36 272.98 C 357.15 273.00 226.93 272.97 96.71 273.00 C 115.84 238.30 135.31 203.78 154.37 169.04 Z" />
<path fill="#f08080" opacity="1.00" d=" M 91.71 281.85 C 92.87 279.85 93.74 277.62 95.37 275.95 C 126.91 276.10 158.44 275.97 189.98 276.02 C 189.99 293.34 189.98 310.66 189.98 327.98 C 148.67 328.00 107.36 327.97 66.05 327.99 C 74.62 312.61 83.20 297.25 91.71 281.85 Z" />
<path fill="#f08080" opacity="1.00" d=" M 193.01 276.02 C 226.00 276.01 258.99 276.03 291.98 276.01 C 291.99 328.00 291.98 380.00 291.99 431.99 C 197.42 432.01 102.86 432.00 8.29 432.00 C 26.82 398.24 45.87 364.77 64.27 330.95 L 64.94 330.96 C 107.63 331.08 150.31 331.00 193.00 331.00 C 193.03 312.67 193.01 294.35 193.01 276.02 Z" />
<path fill="#f08080" opacity="1.00" d=" M 295.01 276.02 C 326.67 276.01 358.33 276.01 389.99 276.02 C 389.99 294.01 389.96 312.01 390.00 330.00 C 416.34 330.04 442.68 330.00 469.02 330.02 C 484.52 329.86 500.05 330.31 515.54 329.79 C 516.85 331.49 517.79 333.42 518.71 335.35 C 534.31 366.74 550.13 398.01 565.93 429.30 C 565.95 429.97 566.00 431.32 566.03 432.00 C 475.69 432.00 385.35 432.01 295.01 431.99 C 295.02 380.00 295.02 328.01 295.01 276.02 Z" />
<path fill="#f08080" opacity="1.00" d=" M 393.01 276.02 C 424.95 275.97 456.88 276.09 488.82 275.96 C 497.58 292.83 506.03 309.88 514.36 326.97 C 473.91 327.00 433.46 326.98 393.02 326.98 C 393.01 309.99 393.02 293.01 393.01 276.02 Z" />
</g>
</svg>
