<?xml version="1.0" encoding="UTF-8" ?>
<!DOCTYPE svg PUBLIC "-//W3C//DTD SVG 1.1//EN" "http://www.w3.org/Graphics/SVG/1.1/DTD/svg11.dtd">
<svg width="573pt" height="439pt" viewBox="0 0 573 439" version="1.1" xmlns="http://www.w3.org/2000/svg">
<g id="#ffffffff">
<path fill="#ffffff" opacity="1.00" d=" M 0.00 0.00 L 151.77 0.00 C 101.06 91.26 50.66 182.69 0.00 273.98 L 0.00 0.00 Z" />
<path fill="#ffffff" opacity="1.00" d=" M 438.53 0.00 L 573.00 0.00 L 573.00 272.10 C 528.21 181.38 483.25 90.75 438.53 0.00 Z" />
<path fill="#ffffff" opacity="1.00" d=" M 155.97 10.49 C 157.63 10.23 159.31 10.01 161.00 9.99 C 252.18 10.02 343.36 9.99 434.54 10.01 C 434.98 41.46 434.65 72.92 434.48 104.37 C 341.65 104.35 248.83 104.37 156.00 104.36 C 155.98 73.07 156.04 41.78 155.97 10.49 M 171.78 31.05 C 171.80 50.35 171.80 69.65 171.78 88.95 C 180.17 89.05 188.55 89.00 196.94 88.99 C 203.30 88.32 210.15 85.76 213.53 79.96 C 216.03 76.19 216.12 71.41 215.44 67.09 C 214.35 61.03 208.75 56.56 202.81 55.73 C 206.23 53.74 209.74 50.98 210.59 46.90 C 211.10 43.54 211.16 39.73 208.96 36.91 C 206.29 33.05 201.37 31.83 197.01 31.04 C 188.60 30.95 180.19 30.98 171.78 31.05 M 384.56 31.02 C 384.11 37.93 376.09 39.45 370.52 39.03 C 370.52 42.35 370.52 45.68 370.53 49.00 C 374.59 49.00 378.66 48.97 382.72 49.05 C 382.65 59.02 382.67 68.99 382.72 78.96 C 378.65 79.02 374.59 79.00 370.53 79.00 C 370.52 82.33 370.52 85.66 370.53 89.00 C 383.45 89.00 396.38 89.00 409.31 89.00 C 409.31 85.66 409.32 82.33 409.31 79.00 C 405.30 79.00 401.28 79.03 397.27 78.94 C 397.37 62.96 397.29 46.98 397.31 31.00 C 393.06 31.00 388.81 30.98 384.56 31.02 M 219.80 88.93 C 221.90 88.97 224.00 89.00 226.11 89.01 C 227.71 84.69 229.21 80.34 230.70 75.97 C 237.49 76.05 244.27 75.94 251.06 76.05 C 252.74 80.34 253.95 84.81 255.75 89.06 C 257.90 89.01 260.05 88.97 262.21 88.92 C 256.38 73.33 250.84 57.63 245.12 42.00 C 242.37 42.00 239.62 42.00 236.88 42.00 C 231.13 57.63 225.61 73.33 219.80 88.93 M 269.32 42.04 C 269.35 57.67 269.40 73.31 269.30 88.94 C 271.27 88.97 273.24 88.98 275.21 88.97 C 275.26 75.21 275.08 61.44 275.31 47.68 C 282.84 61.28 289.75 75.23 297.03 88.97 C 299.58 89.01 302.14 89.00 304.70 88.93 C 304.61 73.31 304.62 57.68 304.69 42.05 C 302.72 42.02 300.75 42.02 298.78 42.04 C 298.77 54.57 298.86 67.11 298.73 79.64 C 291.80 67.31 285.48 54.62 278.96 42.05 C 275.75 41.98 272.53 41.98 269.32 42.04 M 311.81 88.93 C 313.89 88.98 315.98 89.00 318.07 89.04 C 319.74 84.72 321.18 80.31 322.74 75.95 C 329.51 76.08 336.28 75.92 343.06 76.05 C 344.76 80.34 345.92 84.84 347.78 89.07 C 349.92 89.01 352.05 88.97 354.20 88.92 C 348.37 73.32 342.86 57.60 337.08 41.98 C 334.35 42.00 331.62 42.00 328.89 42.00 C 323.12 57.61 317.61 73.33 311.81 88.93 Z" />
<path fill="#ffffff" opacity="1.00" d=" M 438.41 17.24 C 480.48 103.42 522.28 189.74 564.42 275.88 L 566.00 275.09 C 566.00 318.41 566.00 361.72 566.00 405.04 C 565.89 410.33 566.28 415.64 565.69 420.92 C 558.36 405.02 550.11 389.56 542.42 373.83 C 507.92 304.57 472.97 235.54 438.55 166.24 C 437.65 153.25 438.76 140.10 438.50 127.05 C 438.31 98.37 438.88 69.70 438.75 41.01 C 438.69 33.09 438.96 25.15 438.41 17.24 Z" />
<path fill="#ffffff" opacity="1.00" d=" M 8.64 278.16 C 56.40 191.70 104.22 105.27 151.92 18.78 C 152.11 66.86 151.93 114.94 152.02 163.02 C 152.37 166.04 150.15 168.39 148.92 170.93 C 101.64 255.99 54.25 341.00 7.05 426.11 C 6.95 376.63 7.01 327.14 7.02 277.65 C 7.42 277.78 8.24 278.03 8.64 278.16 Z" />
<path fill="#ffffff" opacity="1.00" d=" M 179.65 38.00 C 186.27 38.54 193.32 36.71 199.62 39.32 C 203.10 40.74 203.28 45.17 202.47 48.29 C 201.51 52.05 197.46 53.58 194.00 53.97 C 189.22 54.09 184.43 53.95 179.65 54.00 C 179.65 48.67 179.65 43.33 179.65 38.00 Z" />
<path fill="#ffffff" opacity="1.00" d=" M 240.82 47.83 C 244.00 55.38 246.39 63.25 249.21 70.94 C 243.62 71.05 238.04 71.00 232.45 70.98 C 235.29 63.28 237.90 55.50 240.82 47.83 Z" />
<path fill="#ffffff" opacity="1.00" d=" M 332.81 47.85 C 336.03 55.38 338.35 63.27 341.23 70.93 C 335.64 71.05 330.05 70.99 324.46 70.99 C 327.28 63.29 329.90 55.51 332.81 47.85 Z" />
<path fill="#ffffff" opacity="1.00" d=" M 179.65 61.00 C 185.80 61.06 191.96 60.89 198.10 61.05 C 201.89 61.74 206.43 63.46 207.43 67.64 C 208.04 70.98 208.32 75.05 205.81 77.72 C 203.42 80.64 199.47 81.34 195.97 81.96 C 190.53 82.10 185.09 81.95 179.65 82.00 C 179.65 75.00 179.65 68.00 179.65 61.00 Z" />
<path fill="#ffffff" opacity="1.00" d=" M 156.00 105.64 C 248.83 105.64 341.66 105.64 434.49 105.64 C 434.34 118.76 434.84 131.89 434.20 145.00 C 341.48 145.00 248.75 145.00 156.02 145.00 C 155.97 131.88 156.01 118.76 156.00 105.64 Z" />
<path fill="#ffffff" opacity="1.00" d=" M 156.02 148.00 C 248.76 148.00 341.51 148.00 434.25 148.00 C 434.24 153.33 434.25 158.66 434.25 164.00 C 341.50 164.00 248.75 164.00 156.00 164.00 C 156.01 158.67 155.98 153.33 156.02 148.00 Z" />
</g>
<g id="#000000ff">
<path fill="#000000" opacity="1.00" d=" M 151.77 0.00 L 438.53 0.00 C 483.25 90.75 528.21 181.38 573.00 272.10 L 573.00 439.00 L 0.00 439.00 L 0.00 273.98 C 50.66 182.69 101.06 91.26 151.77 0.00 M 156.02 7.00 C 156.00 8.16 155.98 9.33 155.97 10.49 C 156.04 41.78 155.98 73.07 156.00 104.36 C 248.83 104.37 341.65 104.35 434.48 104.37 C 434.65 72.92 434.98 41.46 434.54 10.01 C 434.48 9.24 434.37 7.70 434.32 6.93 C 341.55 7.09 248.79 6.96 156.02 7.00 M 438.11 10.01 C 438.50 12.34 438.60 14.71 438.31 17.06 L 438.41 17.24 C 438.96 25.15 438.69 33.09 438.75 41.01 C 438.88 69.70 438.31 98.37 438.50 127.05 C 438.76 140.10 437.65 153.25 438.55 166.24 C 472.97 235.54 507.92 304.57 542.42 373.83 C 550.11 389.56 558.36 405.02 565.69 420.92 C 566.28 415.64 565.89 410.33 566.00 405.04 C 566.00 361.72 566.00 318.41 566.00 275.09 L 566.91 274.61 C 562.15 263.46 556.36 252.74 551.19 241.76 C 521.42 180.57 491.62 119.39 461.85 58.20 C 453.86 42.18 446.46 25.84 438.11 10.01 M 144.23 26.30 C 98.33 109.41 52.39 192.51 6.48 275.62 C 5.80 276.51 5.98 277.19 7.02 277.65 C 7.01 327.14 6.95 376.63 7.05 426.11 C 54.25 341.00 101.64 255.99 148.92 170.93 C 150.15 168.39 152.37 166.04 152.02 163.02 C 151.93 114.94 152.11 66.86 151.92 18.78 C 152.17 16.80 151.98 14.79 151.90 12.80 C 149.03 17.11 146.86 21.84 144.23 26.30 M 156.00 105.64 C 156.01 118.76 155.97 131.88 156.02 145.00 C 156.02 145.75 156.02 147.25 156.02 148.00 C 155.98 153.33 156.01 158.67 156.00 164.00 C 248.75 164.00 341.50 164.00 434.25 164.00 C 434.25 158.66 434.24 153.33 434.25 148.00 C 434.24 147.25 434.21 145.75 434.20 145.00 C 434.84 131.89 434.34 118.76 434.49 105.64 C 341.66 105.64 248.83 105.64 156.00 105.64 M 154.44 169.08 C 135.35 203.79 115.92 238.31 96.78 272.99 C 96.25 273.99 95.72 275.00 95.18 276.00 C 85.31 293.22 75.87 310.68 66.13 327.98 C 65.71 328.98 65.30 329.99 64.90 331.01 L 64.36 331.01 C 45.90 364.78 26.85 398.22 8.42 432.00 C 102.95 431.99 197.47 432.03 292.00 431.97 C 292.75 431.97 294.25 431.97 295.00 431.97 C 385.39 432.03 475.78 432.00 566.17 431.99 C 566.01 430.36 565.63 428.76 564.81 427.34 C 548.46 394.91 532.23 362.41 515.84 330.00 C 515.36 328.99 514.89 327.99 514.43 326.99 L 514.34 326.99 C 506.00 309.93 497.49 292.94 488.86 276.02 C 488.38 275.01 487.91 274.00 487.45 272.99 L 487.33 272.99 C 470.28 238.29 452.74 203.82 435.57 169.17 C 399.37 168.77 363.15 169.11 326.95 169.00 C 269.44 169.05 211.94 168.90 154.44 169.08 Z" />
</g>
<g id="#c23f43ff">
<path fill="#c23f43" opacity="1.00" d=" M 156.02 7.00 C 248.79 6.96 341.55 7.09 434.32 6.93 C 434.37 7.70 434.48 9.24 434.54 10.01 C 343.36 9.99 252.18 10.02 161.00 9.99 C 159.31 10.01 157.63 10.23 155.97 10.49 C 155.98 9.33 156.00 8.16 156.02 7.00 Z" />
<path fill="#c23f43" opacity="1.00" d=" M 438.11 10.01 C 446.46 25.84 453.86 42.18 461.85 58.20 C 491.62 119.39 521.42 180.57 551.19 241.76 C 556.36 252.74 562.15 263.46 566.91 274.61 L 566.00 275.09 L 564.42 275.88 C 522.28 189.74 480.48 103.42 438.41 17.24 L 438.31 17.06 C 438.60 14.71 438.50 12.34 438.11 10.01 Z" />
<path fill="#c23f43" opacity="1.00" d=" M 144.23 26.30 C 146.86 21.84 149.03 17.11 151.90 12.80 C 151.98 14.79 152.17 16.80 151.92 18.78 C 104.22 105.27 56.40 191.70 8.64 278.16 C 8.24 278.03 7.42 277.78 7.02 277.65 C 5.98 277.19 5.80 276.51 6.48 275.62 C 52.39 192.51 98.33 109.41 144.23 26.30 Z" />
<path fill="#c23f43" opacity="1.00" d=" M 156.02 145.00 C 248.75 145.00 341.48 145.00 434.20 145.00 C 434.21 145.75 434.24 147.25 434.25 148.00 C 341.51 148.00 248.76 148.00 156.02 148.00 C 156.02 147.25 156.02 145.75 156.02 145.00 Z" />
<path fill="#c23f43" opacity="1.00" d=" M 96.78 272.99 C 226.96 273.01 357.15 273.00 487.33 272.99 L 487.45 272.99 C 487.91 274.00 488.38 275.01 488.86 276.02 C 456.91 275.98 424.96 276.00 393.01 276.01 C 393.00 293.00 393.00 310.00 393.01 326.99 C 433.45 327.00 473.90 327.00 514.34 326.99 L 514.43 326.99 C 514.89 327.99 515.36 328.99 515.84 330.00 C 473.89 330.00 431.94 329.99 390.00 330.00 C 390.00 312.00 390.01 294.01 389.99 276.01 C 358.33 276.00 326.67 276.00 295.01 276.01 C 294.99 328.00 295.00 379.98 295.00 431.97 C 294.25 431.97 292.75 431.97 292.00 431.97 C 292.00 379.98 292.01 328.00 291.99 276.01 C 259.00 276.00 226.00 276.00 193.01 276.01 C 192.99 294.34 193.00 312.67 193.00 331.00 C 150.30 331.00 107.60 330.99 64.90 331.01 C 65.30 329.99 65.71 328.98 66.13 327.98 C 107.41 328.03 148.70 327.99 189.99 327.99 C 190.00 310.66 190.00 293.33 189.99 276.01 C 158.39 275.99 126.78 276.00 95.18 276.00 C 95.72 275.00 96.25 273.99 96.78 272.99 Z" />
</g>
<g id="#444444ff">
<path fill="#444444" opacity="1.00" d=" M 171.78 31.05 C 180.19 30.98 188.60 30.95 197.01 31.04 C 201.37 31.83 206.29 33.05 208.96 36.91 C 211.16 39.73 211.10 43.54 210.59 46.90 C 209.74 50.98 206.23 53.74 202.81 55.73 C 208.75 56.56 214.35 61.03 215.44 67.09 C 216.12 71.41 216.03 76.19 213.53 79.96 C 210.15 85.76 203.30 88.32 196.94 88.99 C 188.55 89.00 180.17 89.05 171.78 88.95 C 171.80 69.65 171.80 50.35 171.78 31.05 M 179.65 38.00 C 179.65 43.33 179.65 48.67 179.65 54.00 C 184.43 53.95 189.22 54.09 194.00 53.97 C 197.46 53.58 201.51 52.05 202.47 48.29 C 203.28 45.17 203.10 40.74 199.62 39.32 C 193.32 36.71 186.27 38.54 179.65 38.00 M 179.65 61.00 C 179.65 68.00 179.65 75.00 179.65 82.00 C 185.09 81.95 190.53 82.10 195.97 81.96 C 199.47 81.34 203.42 80.64 205.81 77.72 C 208.32 75.05 208.04 70.98 207.43 67.64 C 206.43 63.46 201.89 61.74 198.10 61.05 C 191.96 60.89 185.80 61.06 179.65 61.00 Z" />
<path fill="#444444" opacity="1.00" d=" M 384.56 31.02 C 388.81 30.98 393.06 31.00 397.31 31.00 C 397.29 46.98 397.37 62.96 397.27 78.94 C 401.28 79.03 405.30 79.00 409.31 79.00 C 409.32 82.33 409.31 85.66 409.31 89.00 C 396.38 89.00 383.45 89.00 370.53 89.00 C 370.52 85.66 370.52 82.33 370.53 79.00 C 374.59 79.00 378.65 79.02 382.72 78.96 C 382.67 68.99 382.65 59.02 382.72 49.05 C 378.66 48.97 374.59 49.00 370.53 49.00 C 370.52 45.68 370.52 42.35 370.52 39.03 C 376.09 39.45 384.11 37.93 384.56 31.02 Z" />
<path fill="#444444" opacity="1.00" d=" M 219.80 88.93 C 225.61 73.33 231.13 57.63 236.88 42.00 C 239.62 42.00 242.37 42.00 245.12 42.00 C 250.84 57.63 256.38 73.33 262.21 88.92 C 260.05 88.97 257.90 89.01 255.75 89.06 C 253.95 84.81 252.74 80.34 251.06 76.05 C 244.27 75.94 237.49 76.05 230.70 75.97 C 229.21 80.34 227.71 84.69 226.11 89.01 C 224.00 89.00 221.90 88.97 219.80 88.93 M 240.82 47.83 C 237.90 55.50 235.29 63.28 232.45 70.98 C 238.04 71.00 243.62 71.05 249.21 70.94 C 246.39 63.25 244.00 55.38 240.82 47.83 Z" />
<path fill="#444444" opacity="1.00" d=" M 269.32 42.04 C 272.53 41.98 275.75 41.98 278.96 42.05 C 285.48 54.62 291.80 67.31 298.73 79.64 C 298.86 67.11 298.77 54.57 298.78 42.04 C 300.75 42.02 302.72 42.02 304.69 42.05 C 304.62 57.68 304.61 73.31 304.70 88.93 C 302.14 89.00 299.58 89.01 297.03 88.97 C 289.75 75.23 282.84 61.28 275.31 47.68 C 275.08 61.44 275.26 75.21 275.21 88.97 C 273.24 88.98 271.27 88.97 269.30 88.94 C 269.40 73.31 269.35 57.67 269.32 42.04 Z" />
<path fill="#444444" opacity="1.00" d=" M 311.81 88.93 C 317.61 73.33 323.12 57.61 328.89 42.00 C 331.62 42.00 334.35 42.00 337.08 41.98 C 342.86 57.60 348.37 73.32 354.20 88.92 C 352.05 88.97 349.92 89.01 347.78 89.07 C 345.92 84.84 344.76 80.34 343.06 76.05 C 336.28 75.92 329.51 76.08 322.74 75.95 C 321.18 80.31 319.74 84.72 318.07 89.04 C 315.98 89.00 313.89 88.98 311.81 88.93 M 332.81 47.85 C 329.90 55.51 327.28 63.29 324.46 70.99 C 330.05 70.99 335.64 71.05 341.23 70.93 C 338.35 63.27 336.03 55.38 332.81 47.85 Z" />
</g>
<g id="#add8e6ff">
<path fill="#add8e6" opacity="1.00" d=" M 154.44 169.08 C 211.94 168.90 269.44 169.05 326.95 169.00 C 363.15 169.11 399.37 168.77 435.57 169.17 C 452.74 203.82 470.28 238.29 487.33 272.99 C 357.15 273.00 226.96 273.01 96.78 272.99 C 115.92 238.31 135.35 203.79 154.44 169.08 Z" />
<path fill="#add8e6" opacity="1.00" d=" M 95.18 276.00 C 126.78 276.00 158.39 275.99 189.99 276.01 C 190.00 293.33 190.00 310.66 189.99 327.99 C 148.70 327.99 107.41 328.03 66.13 327.98 C 75.87 310.68 85.31 293.22 95.18 276.00 Z" />
<path fill="#add8e6" opacity="1.00" d=" M 193.01 276.01 C 226.00 276.00 259.00 276.00 291.99 276.01 C 292.01 328.00 292.00 379.98 292.00 431.97 C 197.47 432.03 102.95 431.99 8.42 432.00 C 26.85 398.22 45.90 364.78 64.36 331.01 L 64.90 331.01 C 107.60 330.99 150.30 331.00 193.00 331.00 C 193.00 312.67 192.99 294.34 193.01 276.01 Z" />
<path fill="#add8e6" opacity="1.00" d=" M 295.01 276.01 C 326.67 276.00 358.33 276.00 389.99 276.01 C 390.01 294.01 390.00 312.00 390.00 330.00 C 431.94 329.99 473.89 330.00 515.84 330.00 C 532.23 362.41 548.46 394.91 564.81 427.34 C 565.63 428.76 566.01 430.36 566.17 431.99 C 475.78 432.00 385.39 432.03 295.00 431.97 C 295.00 379.98 294.99 328.00 295.01 276.01 Z" />
<path fill="#add8e6" opacity="1.00" d=" M 393.01 276.01 C 424.96 276.00 456.91 275.98 488.86 276.02 C 497.49 292.94 506.00 309.93 514.34 326.99 C 473.90 327.00 433.45 327.00 393.01 326.99 C 393.00 310.00 393.00 293.00 393.01 276.01 Z" />
</g>
</svg>
