<?xml version="1.0" encoding="UTF-8" ?>
<!DOCTYPE svg PUBLIC "-//W3C//DTD SVG 1.1//EN" "http://www.w3.org/Graphics/SVG/1.1/DTD/svg11.dtd">
<svg width="573pt" height="439pt" viewBox="0 0 573 439" version="1.1" xmlns="http://www.w3.org/2000/svg">
<g id="#ffffffff">
<path fill="#ffffff" opacity="1.00" d=" M 0.00 0.00 L 151.83 0.00 C 101.00 91.19 50.71 182.69 0.00 273.94 L 0.00 0.00 Z" />
<path fill="#ffffff" opacity="1.00" d=" M 438.67 0.00 L 573.00 0.00 L 573.00 272.10 C 536.53 198.26 500.00 124.44 463.49 50.61 C 455.31 33.70 446.59 17.04 438.67 0.00 Z" />
<path fill="#ffffff" opacity="1.00" d=" M 156.11 10.12 C 248.90 9.80 341.69 10.08 434.49 9.98 C 435.03 41.44 434.60 72.89 434.48 104.35 C 341.65 104.36 248.83 104.36 156.00 104.35 C 156.06 72.94 155.86 41.53 156.11 10.12 M 369.64 33.74 C 369.66 38.31 369.68 42.87 369.75 47.44 C 375.08 44.39 380.60 40.54 387.05 40.93 C 390.98 41.02 395.57 43.57 395.79 47.90 C 396.55 53.54 392.82 58.33 389.17 62.15 C 382.83 68.63 375.58 74.15 368.27 79.48 C 368.24 82.65 368.23 85.81 368.21 88.98 C 383.44 89.03 398.66 88.99 413.89 89.00 C 414.04 85.36 414.12 81.71 414.13 78.07 C 405.37 77.92 396.61 78.05 387.86 77.98 C 394.87 72.73 402.11 67.44 407.19 60.18 C 411.27 54.28 412.78 46.18 409.53 39.57 C 407.68 35.50 403.75 32.80 399.59 31.49 C 389.76 28.31 379.11 30.29 369.64 33.74 M 171.80 31.04 C 171.79 50.35 171.78 69.65 171.80 88.96 C 179.89 88.98 187.99 89.09 196.08 88.98 C 203.85 88.73 212.37 84.75 214.99 76.93 C 216.61 71.35 216.13 64.49 211.78 60.23 C 209.50 57.67 206.15 56.60 202.97 55.66 C 206.03 53.65 209.37 51.34 210.41 47.62 C 211.47 43.41 211.03 38.35 207.60 35.31 C 203.62 31.87 198.11 30.88 192.99 30.95 C 185.93 31.02 178.86 30.97 171.80 31.04 M 236.87 42.00 C 231.15 57.64 225.55 73.31 219.83 88.94 C 221.92 88.97 224.02 88.99 226.13 89.01 C 227.69 84.68 229.23 80.33 230.72 75.98 C 237.50 76.02 244.27 75.98 251.05 76.02 C 252.67 80.17 253.72 84.54 255.60 88.58 C 257.72 89.25 260.00 88.95 262.20 89.05 C 256.49 73.38 250.84 57.67 245.11 42.00 C 242.36 42.00 239.61 42.00 236.87 42.00 M 269.32 42.03 C 269.37 57.68 269.34 73.34 269.33 88.99 C 271.29 88.98 273.24 88.97 275.20 88.96 C 275.29 75.17 275.05 61.37 275.33 47.57 C 282.73 61.29 289.78 75.19 297.03 88.99 C 299.58 88.99 302.12 88.98 304.67 88.98 C 304.64 73.32 304.65 57.67 304.67 42.02 C 302.71 42.02 300.75 42.03 298.80 42.04 C 298.72 54.58 298.92 67.13 298.69 79.67 C 291.85 67.26 285.48 54.59 278.91 42.02 C 275.71 42.01 272.51 42.01 269.32 42.03 M 328.87 42.00 C 323.16 57.64 317.54 73.30 311.84 88.95 C 313.93 88.97 316.02 88.99 318.12 89.01 C 319.69 84.69 321.23 80.35 322.70 75.99 C 329.49 76.01 336.27 75.97 343.06 76.03 C 344.59 80.37 346.09 84.73 347.68 89.05 C 349.84 89.01 352.01 88.97 354.18 88.92 C 348.42 73.31 342.84 57.63 337.11 42.01 C 334.36 42.00 331.61 42.00 328.87 42.00 Z" />
<path fill="#ffffff" opacity="1.00" d=" M 438.66 17.80 C 480.67 103.64 522.32 189.66 564.24 275.54 C 564.68 275.45 565.56 275.25 566.00 275.16 C 565.96 323.64 566.09 372.12 565.93 420.60 C 548.43 386.16 531.34 351.50 514.00 316.98 C 490.32 269.67 466.50 222.42 442.91 175.07 C 441.17 171.15 438.18 167.51 438.25 163.03 C 438.06 150.35 438.66 137.68 438.51 125.01 C 438.36 89.27 439.08 53.54 438.66 17.80 Z" />
<path fill="#ffffff" opacity="1.00" d=" M 10.97 273.98 C 57.83 188.89 104.97 103.94 151.83 18.85 C 152.24 66.55 151.85 114.27 152.03 161.98 C 152.37 166.10 149.67 169.43 147.85 172.86 C 100.89 257.24 53.98 341.64 7.03 426.02 C 7.02 376.96 6.91 327.89 7.08 278.83 C 8.54 277.36 9.91 275.78 10.97 273.98 Z" />
<path fill="#ffffff" opacity="1.00" d=" M 179.67 38.01 C 185.80 38.29 192.09 37.23 198.11 38.70 C 204.95 40.20 204.15 51.23 197.89 53.00 C 192.04 54.96 185.72 53.66 179.67 53.98 C 179.65 48.66 179.65 43.34 179.67 38.01 Z" />
<path fill="#ffffff" opacity="1.00" d=" M 232.47 70.98 C 235.30 63.25 237.89 55.43 240.91 47.76 C 243.83 55.43 246.49 63.20 249.17 70.95 C 243.60 71.02 238.04 71.02 232.47 70.98 Z" />
<path fill="#ffffff" opacity="1.00" d=" M 324.47 70.98 C 327.31 63.24 329.91 55.41 332.91 47.73 C 335.81 55.42 338.47 63.19 341.19 70.95 C 335.61 71.03 330.04 71.02 324.47 70.98 Z" />
<path fill="#ffffff" opacity="1.00" d=" M 179.67 61.01 C 185.45 61.09 191.25 60.82 197.03 61.05 C 200.95 61.30 205.52 62.87 207.15 66.77 C 208.61 71.17 208.11 77.09 203.64 79.58 C 196.31 83.58 187.63 81.51 179.67 81.99 C 179.65 75.00 179.65 68.00 179.67 61.01 Z" />
<path fill="#ffffff" opacity="1.00" d=" M 156.01 105.65 C 248.83 105.64 341.65 105.64 434.48 105.65 C 434.37 118.77 434.78 131.89 434.22 145.00 C 341.48 145.00 248.74 145.00 156.01 145.00 C 155.99 131.88 156.00 118.77 156.01 105.65 Z" />
<path fill="#ffffff" opacity="1.00" d=" M 156.01 148.00 C 248.75 148.00 341.49 148.00 434.23 148.00 C 434.25 153.33 434.24 158.66 434.23 163.99 C 341.49 164.01 248.74 164.00 156.00 164.00 C 156.00 158.66 155.99 153.33 156.01 148.00 Z" />
</g>
<g id="#abababff">
<path fill="#ababab" opacity="1.00" d=" M 151.83 0.00 L 438.67 0.00 C 446.59 17.04 455.31 33.70 463.49 50.61 C 500.00 124.44 536.53 198.26 573.00 272.10 L 573.00 439.00 L 0.00 439.00 L 0.00 273.94 C 50.71 182.69 101.00 91.19 151.83 0.00 M 155.95 7.00 C 155.99 7.78 156.07 9.34 156.11 10.12 C 155.86 41.53 156.06 72.94 156.00 104.35 C 248.83 104.36 341.65 104.36 434.48 104.35 C 434.60 72.89 435.03 41.44 434.49 9.98 C 434.48 9.24 434.46 7.74 434.45 6.99 C 341.61 7.00 248.78 7.00 155.95 7.00 M 7.16 274.26 C 6.22 275.70 5.93 277.36 7.08 278.83 C 6.91 327.89 7.02 376.96 7.03 426.02 C 53.98 341.64 100.89 257.24 147.85 172.86 C 149.67 169.43 152.37 166.10 152.03 161.98 C 151.85 114.27 152.24 66.55 151.83 18.85 C 152.20 16.78 151.94 14.66 151.94 12.58 C 103.46 99.68 55.52 187.09 7.16 274.26 M 438.65 11.59 C 438.65 13.65 438.16 15.78 438.66 17.80 C 439.08 53.54 438.36 89.27 438.51 125.01 C 438.66 137.68 438.06 150.35 438.25 163.03 C 438.18 167.51 441.17 171.15 442.91 175.07 C 466.50 222.42 490.32 269.67 514.00 316.98 C 531.34 351.50 548.43 386.16 565.93 420.60 C 566.09 372.12 565.96 323.64 566.00 275.16 L 567.12 274.91 C 564.34 268.21 560.89 261.82 557.80 255.26 C 519.50 176.58 481.15 97.92 442.92 19.20 C 441.73 16.54 440.26 14.01 438.65 11.59 M 156.01 105.65 C 156.00 118.77 155.99 131.88 156.01 145.00 C 156.01 145.75 156.01 147.25 156.01 148.00 C 155.99 153.33 156.00 158.66 156.00 164.00 C 248.74 164.00 341.49 164.01 434.23 163.99 C 434.24 158.66 434.25 153.33 434.23 148.00 C 434.23 147.25 434.22 145.75 434.22 145.00 C 434.78 131.89 434.37 118.77 434.48 105.65 C 341.65 105.64 248.83 105.64 156.01 105.65 M 154.44 169.04 C 135.27 203.73 115.88 238.30 96.71 273.00 C 96.19 273.99 95.66 274.99 95.14 275.98 C 85.24 293.20 75.80 310.68 66.07 328.00 C 65.69 328.99 65.31 329.98 64.93 330.98 L 64.32 330.98 C 45.83 364.74 26.83 398.22 8.34 431.98 C 102.89 432.02 197.45 432.00 292.00 431.99 C 292.75 431.99 294.25 431.99 295.00 431.99 C 385.48 431.98 475.96 432.07 566.44 431.95 C 565.65 429.42 564.76 426.93 563.53 424.59 C 547.58 393.10 531.83 361.51 515.92 330.00 C 515.39 328.98 514.88 327.97 514.37 326.96 C 506.06 309.89 497.53 292.92 488.92 276.00 C 488.40 274.98 487.89 273.96 487.38 272.94 C 470.27 238.25 452.83 203.71 435.54 169.11 C 341.84 168.88 248.14 169.02 154.44 169.04 Z" />
</g>
<g id="#eababbff">
<path fill="#eababb" opacity="1.00" d=" M 155.95 7.00 C 248.78 7.00 341.61 7.00 434.45 6.99 C 434.46 7.74 434.48 9.24 434.49 9.98 C 341.69 10.08 248.90 9.80 156.11 10.12 C 156.07 9.34 155.99 7.78 155.95 7.00 Z" />
<path fill="#eababb" opacity="1.00" d=" M 7.16 274.26 C 55.52 187.09 103.46 99.68 151.94 12.58 C 151.94 14.66 152.20 16.78 151.83 18.85 C 104.97 103.94 57.83 188.89 10.97 273.98 C 9.91 275.78 8.54 277.36 7.08 278.83 C 5.93 277.36 6.22 275.70 7.16 274.26 Z" />
<path fill="#eababb" opacity="1.00" d=" M 438.65 11.59 C 440.26 14.01 441.73 16.54 442.92 19.20 C 481.15 97.92 519.50 176.58 557.80 255.26 C 560.89 261.82 564.34 268.21 567.12 274.91 L 566.00 275.16 C 565.56 275.25 564.68 275.45 564.24 275.54 C 522.32 189.66 480.67 103.64 438.66 17.80 C 438.16 15.78 438.65 13.65 438.65 11.59 Z" />
<path fill="#eababb" opacity="1.00" d=" M 156.01 145.00 C 248.74 145.00 341.48 145.00 434.22 145.00 C 434.22 145.75 434.23 147.25 434.23 148.00 C 341.49 148.00 248.75 148.00 156.01 148.00 C 156.01 147.25 156.01 145.75 156.01 145.00 Z" />
<path fill="#eababb" opacity="1.00" d=" M 96.71 273.00 C 226.94 272.93 357.16 273.05 487.38 272.94 C 487.89 273.96 488.40 274.98 488.92 276.00 C 456.97 276.09 425.02 275.93 393.07 276.06 C 393.00 293.02 392.96 309.97 393.07 326.93 C 433.51 327.05 473.94 326.97 514.37 326.96 C 514.88 327.97 515.39 328.98 515.92 330.00 C 473.95 330.02 431.98 330.04 390.02 329.99 C 389.86 312.02 390.10 294.04 389.93 276.06 C 358.31 276.00 326.68 275.95 295.06 276.09 C 294.96 328.05 295.06 380.02 295.00 431.99 C 294.25 431.99 292.75 431.99 292.00 431.99 C 291.92 380.01 292.07 328.04 291.93 276.06 C 258.98 275.98 226.02 276.00 193.07 276.05 C 192.92 294.36 193.11 312.67 192.99 330.99 C 150.30 331.04 107.61 331.05 64.93 330.98 C 65.31 329.98 65.69 328.99 66.07 328.00 C 107.36 327.92 148.64 328.07 189.93 327.93 C 190.02 310.64 190.02 293.36 189.95 276.08 C 158.34 275.91 126.74 276.11 95.14 275.98 C 95.66 274.99 96.19 273.99 96.71 273.00 Z" />
</g>
<g id="#c1c1c1ff">
<path fill="#c1c1c1" opacity="1.00" d=" M 369.64 33.74 C 379.11 30.29 389.76 28.31 399.59 31.49 C 403.75 32.80 407.68 35.50 409.53 39.57 C 412.78 46.18 411.27 54.28 407.19 60.18 C 402.11 67.44 394.87 72.73 387.86 77.98 C 396.61 78.05 405.37 77.92 414.13 78.07 C 414.12 81.71 414.04 85.36 413.89 89.00 C 398.66 88.99 383.44 89.03 368.21 88.98 C 368.23 85.81 368.24 82.65 368.27 79.48 C 375.58 74.15 382.83 68.63 389.17 62.15 C 392.82 58.33 396.55 53.54 395.79 47.90 C 395.57 43.57 390.98 41.02 387.05 40.93 C 380.60 40.54 375.08 44.39 369.75 47.44 C 369.68 42.87 369.66 38.31 369.64 33.74 Z" />
<path fill="#c1c1c1" opacity="1.00" d=" M 171.80 31.04 C 178.86 30.97 185.93 31.02 192.99 30.95 C 198.11 30.88 203.62 31.87 207.60 35.31 C 211.03 38.35 211.47 43.41 210.41 47.62 C 209.37 51.34 206.03 53.65 202.97 55.66 C 206.15 56.60 209.50 57.67 211.78 60.23 C 216.13 64.49 216.61 71.35 214.99 76.93 C 212.37 84.75 203.85 88.73 196.08 88.98 C 187.99 89.09 179.89 88.98 171.80 88.96 C 171.78 69.65 171.79 50.35 171.80 31.04 M 179.67 38.01 C 179.65 43.34 179.65 48.66 179.67 53.98 C 185.72 53.66 192.04 54.96 197.89 53.00 C 204.15 51.23 204.95 40.20 198.11 38.70 C 192.09 37.23 185.80 38.29 179.67 38.01 M 179.67 61.01 C 179.65 68.00 179.65 75.00 179.67 81.99 C 187.63 81.51 196.31 83.58 203.64 79.58 C 208.11 77.09 208.61 71.17 207.15 66.77 C 205.52 62.87 200.95 61.30 197.03 61.05 C 191.25 60.82 185.45 61.09 179.67 61.01 Z" />
<path fill="#c1c1c1" opacity="1.00" d=" M 236.87 42.00 C 239.61 42.00 242.36 42.00 245.11 42.00 C 250.84 57.67 256.49 73.38 262.20 89.05 C 260.00 88.95 257.72 89.25 255.60 88.58 C 253.72 84.54 252.67 80.17 251.05 76.02 C 244.27 75.98 237.50 76.02 230.72 75.98 C 229.23 80.33 227.69 84.68 226.13 89.01 C 224.02 88.99 221.92 88.97 219.83 88.94 C 225.55 73.31 231.15 57.64 236.87 42.00 M 232.47 70.98 C 238.04 71.02 243.60 71.02 249.17 70.95 C 246.49 63.20 243.83 55.43 240.91 47.76 C 237.89 55.43 235.30 63.25 232.47 70.98 Z" />
<path fill="#c1c1c1" opacity="1.00" d=" M 269.32 42.03 C 272.51 42.01 275.71 42.01 278.91 42.02 C 285.48 54.59 291.85 67.26 298.69 79.67 C 298.92 67.13 298.72 54.58 298.80 42.04 C 300.75 42.03 302.71 42.02 304.67 42.02 C 304.65 57.67 304.64 73.32 304.67 88.98 C 302.12 88.98 299.58 88.99 297.03 88.99 C 289.78 75.19 282.73 61.29 275.33 47.57 C 275.05 61.37 275.29 75.17 275.20 88.96 C 273.24 88.97 271.29 88.98 269.33 88.99 C 269.34 73.34 269.37 57.68 269.32 42.03 Z" />
<path fill="#c1c1c1" opacity="1.00" d=" M 328.87 42.00 C 331.61 42.00 334.36 42.00 337.11 42.01 C 342.84 57.63 348.42 73.31 354.18 88.92 C 352.01 88.97 349.84 89.01 347.68 89.05 C 346.09 84.73 344.59 80.37 343.06 76.03 C 336.27 75.97 329.49 76.01 322.70 75.99 C 321.23 80.35 319.69 84.69 318.12 89.01 C 316.02 88.99 313.93 88.97 311.84 88.95 C 317.54 73.30 323.16 57.64 328.87 42.00 M 324.47 70.98 C 330.04 71.02 335.61 71.03 341.19 70.95 C 338.47 63.19 335.81 55.42 332.91 47.73 C 329.91 55.41 327.31 63.24 324.47 70.98 Z" />
</g>
<g id="#fad5d5ff">
<path fill="#fad5d5" opacity="1.00" d=" M 154.44 169.04 C 248.14 169.02 341.84 168.88 435.54 169.11 C 452.83 203.71 470.27 238.25 487.38 272.94 C 357.16 273.05 226.94 272.93 96.71 273.00 C 115.88 238.30 135.27 203.73 154.44 169.04 Z" />
<path fill="#fad5d5" opacity="1.00" d=" M 95.14 275.98 C 126.74 276.11 158.34 275.91 189.95 276.08 C 190.02 293.36 190.02 310.64 189.93 327.93 C 148.64 328.07 107.36 327.92 66.07 328.00 C 75.80 310.68 85.24 293.20 95.14 275.98 Z" />
<path fill="#fad5d5" opacity="1.00" d=" M 193.07 276.05 C 226.02 276.00 258.98 275.98 291.93 276.06 C 292.07 328.04 291.92 380.01 292.00 431.99 C 197.45 432.00 102.89 432.02 8.34 431.98 C 26.83 398.22 45.83 364.74 64.32 330.98 L 64.93 330.98 C 107.61 331.05 150.30 331.04 192.99 330.99 C 193.11 312.67 192.92 294.36 193.07 276.05 Z" />
<path fill="#fad5d5" opacity="1.00" d=" M 295.06 276.09 C 326.68 275.95 358.31 276.00 389.93 276.06 C 390.10 294.04 389.86 312.02 390.02 329.99 C 431.98 330.04 473.95 330.02 515.92 330.00 C 531.83 361.51 547.58 393.10 563.53 424.59 C 564.76 426.93 565.65 429.42 566.44 431.95 C 475.96 432.07 385.48 431.98 295.00 431.99 C 295.06 380.02 294.96 328.05 295.06 276.09 Z" />
<path fill="#fad5d5" opacity="1.00" d=" M 393.07 276.06 C 425.02 275.93 456.97 276.09 488.92 276.00 C 497.53 292.92 506.06 309.89 514.37 326.96 C 473.94 326.97 433.51 327.05 393.07 326.93 C 392.96 309.97 393.00 293.02 393.07 276.06 Z" />
</g>
</svg>
