<?xml version="1.0" encoding="UTF-8" ?>
<!DOCTYPE svg PUBLIC "-//W3C//DTD SVG 1.1//EN" "http://www.w3.org/Graphics/SVG/1.1/DTD/svg11.dtd">
<svg width="573pt" height="439pt" viewBox="0 0 573 439" version="1.1" xmlns="http://www.w3.org/2000/svg">
<g id="#ffffffff">
<path fill="#ffffff" opacity="1.00" d=" M 0.00 0.00 L 151.79 0.00 C 101.02 91.20 50.73 182.67 0.00 273.90 L 0.00 0.00 Z" />
<path fill="#ffffff" opacity="1.00" d=" M 438.70 0.00 L 573.00 0.00 L 573.00 272.03 C 536.58 198.48 500.26 124.88 463.84 51.33 C 455.58 34.16 446.67 17.30 438.70 0.00 Z" />
<path fill="#ffffff" opacity="1.00" d=" M 156.11 10.13 C 196.39 9.79 236.68 10.08 276.96 9.98 C 329.47 9.98 381.98 9.99 434.50 9.98 C 435.02 41.43 434.61 72.89 434.48 104.34 C 341.65 104.36 248.83 104.36 156.01 104.34 C 156.06 72.94 155.85 41.53 156.11 10.13 M 171.81 31.04 C 171.77 50.35 171.79 69.65 171.80 88.95 C 179.53 89.05 187.25 88.97 194.98 89.03 C 201.88 88.93 209.47 86.38 213.33 80.30 C 216.17 76.10 216.29 70.65 215.15 65.87 C 213.60 60.35 208.40 56.77 202.99 55.66 C 205.90 53.79 208.96 51.62 210.22 48.24 C 211.63 43.71 211.08 38.04 207.16 34.90 C 203.43 32.10 198.63 30.92 194.01 30.97 C 186.61 31.03 179.21 30.95 171.81 31.04 M 384.63 31.07 C 383.85 33.01 383.56 35.44 381.64 36.65 C 378.38 38.82 374.34 39.04 370.54 39.11 C 370.50 42.41 370.50 45.70 370.54 49.00 C 374.59 48.99 378.64 48.99 382.70 49.05 C 382.66 59.02 382.67 68.99 382.70 78.96 C 378.64 79.01 374.59 79.01 370.54 79.00 C 370.50 82.33 370.50 85.66 370.54 89.00 C 383.46 89.00 396.38 89.01 409.30 88.99 C 409.33 85.66 409.33 82.33 409.30 79.01 C 405.30 79.02 401.30 79.00 397.30 78.95 C 397.34 62.97 397.33 46.99 397.30 31.02 C 393.08 30.98 388.85 30.96 384.63 31.07 M 236.88 42.01 C 231.14 57.63 225.56 73.31 219.83 88.94 C 221.92 88.97 224.01 88.99 226.10 89.01 C 227.70 84.76 229.23 80.49 230.53 76.13 C 237.36 75.87 244.20 76.01 251.04 76.04 C 252.73 80.12 253.70 84.48 255.56 88.48 C 257.42 89.62 260.03 88.74 262.18 88.96 C 256.45 73.33 250.84 57.65 245.11 42.01 C 242.36 42.00 239.62 42.00 236.88 42.01 M 269.32 42.05 C 269.35 57.68 269.38 73.30 269.30 88.93 C 271.26 88.95 273.23 88.97 275.20 88.99 C 275.30 75.23 275.05 61.46 275.32 47.71 C 282.85 61.31 289.75 75.26 297.04 88.99 C 299.59 88.99 302.13 88.98 304.68 88.95 C 304.63 73.31 304.65 57.67 304.67 42.03 C 302.71 42.03 300.76 42.03 298.80 42.03 C 298.72 54.55 298.92 67.06 298.70 79.57 C 291.77 67.26 285.50 54.56 278.93 42.05 C 275.72 41.98 272.52 41.99 269.32 42.05 M 328.87 42.01 C 323.15 57.64 317.54 73.31 311.84 88.95 C 313.93 88.97 316.01 88.99 318.10 89.01 C 319.70 84.76 321.23 80.48 322.53 76.13 C 329.36 75.88 336.20 76.01 343.03 76.04 C 344.72 80.15 345.76 84.51 347.55 88.57 C 349.62 89.41 351.98 88.86 354.18 88.97 C 348.45 73.33 342.84 57.65 337.11 42.01 C 334.36 42.00 331.61 42.00 328.87 42.01 Z" />
<path fill="#ffffff" opacity="1.00" d=" M 438.64 17.91 C 445.28 30.84 451.42 44.02 457.86 57.06 C 478.38 99.23 498.92 141.40 519.44 183.57 C 534.48 214.17 549.07 245.00 564.38 275.46 C 564.78 275.40 565.59 275.27 566.00 275.21 C 565.96 323.73 566.08 372.26 565.94 420.78 C 523.75 336.40 481.44 252.08 439.21 167.73 C 437.91 165.36 438.28 162.57 438.23 159.98 C 438.52 136.00 438.58 112.01 438.50 88.02 C 438.93 64.66 438.81 41.28 438.64 17.91 Z" />
<path fill="#ffffff" opacity="1.00" d=" M 14.11 268.19 C 60.04 185.10 105.92 101.98 151.88 18.90 C 152.19 66.60 151.87 114.31 152.04 162.02 C 152.11 163.98 151.84 165.98 150.76 167.66 C 102.78 253.66 55.12 339.84 7.06 425.79 C 6.92 376.82 7.03 327.85 7.01 278.88 C 10.39 276.08 12.01 271.92 14.11 268.19 Z" />
<path fill="#ffffff" opacity="1.00" d=" M 179.68 38.01 C 185.82 38.34 192.15 37.19 198.17 38.72 C 204.96 40.25 204.13 51.25 197.90 52.99 C 192.07 55.02 185.72 53.59 179.68 53.99 C 179.64 48.66 179.64 43.34 179.68 38.01 Z" />
<path fill="#ffffff" opacity="1.00" d=" M 232.48 70.98 C 235.31 63.29 237.83 55.48 240.90 47.88 C 243.90 55.48 246.48 63.23 249.17 70.94 C 243.60 71.04 238.04 71.01 232.48 70.98 Z" />
<path fill="#ffffff" opacity="1.00" d=" M 324.48 70.98 C 327.30 63.26 329.86 55.44 332.91 47.80 C 335.84 55.45 338.50 63.20 341.16 70.95 C 335.60 71.04 330.04 71.01 324.48 70.98 Z" />
<path fill="#ffffff" opacity="1.00" d=" M 179.67 61.01 C 185.78 61.10 191.89 60.79 197.99 61.11 C 201.59 61.60 205.72 63.17 207.17 66.80 C 208.60 71.23 208.09 77.11 203.62 79.61 C 196.27 83.57 187.63 81.50 179.67 81.99 C 179.64 75.00 179.64 68.00 179.67 61.01 Z" />
<path fill="#ffffff" opacity="1.00" d=" M 156.01 105.66 C 248.83 105.64 341.65 105.64 434.47 105.66 C 434.36 118.77 434.81 131.90 434.20 145.00 C 341.47 145.00 248.74 145.00 156.01 145.00 C 155.99 131.89 156.00 118.77 156.01 105.66 Z" />
<path fill="#ffffff" opacity="1.00" d=" M 156.01 148.00 C 248.75 148.00 341.49 148.00 434.23 148.00 C 434.24 153.33 434.24 158.66 434.23 163.99 C 341.49 164.01 248.75 164.00 156.00 163.99 C 156.00 158.66 155.99 153.33 156.01 148.00 Z" />
</g>
<g id="#abababff">
<path fill="#ababab" opacity="1.00" d=" M 151.79 0.00 L 438.70 0.00 C 446.67 17.30 455.58 34.16 463.84 51.33 C 500.26 124.88 536.58 198.48 573.00 272.03 L 573.00 439.00 L 0.00 439.00 L 0.00 273.90 C 50.73 182.67 101.02 91.20 151.79 0.00 M 155.93 7.00 C 155.98 7.78 156.07 9.35 156.11 10.13 C 155.85 41.53 156.06 72.94 156.01 104.34 C 248.83 104.36 341.65 104.36 434.48 104.34 C 434.61 72.89 435.02 41.43 434.50 9.98 C 434.48 9.23 434.43 7.74 434.41 6.99 C 341.59 7.01 248.76 6.99 155.93 7.00 M 146.69 21.83 C 100.05 106.22 53.44 190.62 6.78 275.00 C 5.81 276.21 6.76 277.60 7.01 278.88 C 7.03 327.85 6.92 376.82 7.06 425.79 C 55.12 339.84 102.78 253.66 150.76 167.66 C 151.84 165.98 152.11 163.98 152.04 162.02 C 151.87 114.31 152.19 66.60 151.88 18.90 C 152.24 16.84 151.94 14.72 151.89 12.65 C 150.03 15.64 148.37 18.74 146.69 21.83 M 438.71 11.81 C 438.65 13.82 438.12 15.93 438.64 17.91 C 438.81 41.28 438.93 64.66 438.50 88.02 C 438.58 112.01 438.52 136.00 438.23 159.98 C 438.28 162.57 437.91 165.36 439.21 167.73 C 481.44 252.08 523.75 336.40 565.94 420.78 C 566.08 372.26 565.96 323.73 566.00 275.21 L 567.11 275.02 C 564.34 268.00 560.63 261.41 557.46 254.57 C 519.28 176.15 481.10 97.72 442.93 19.30 C 441.74 16.68 440.54 14.05 438.71 11.81 M 156.01 105.66 C 156.00 118.77 155.99 131.89 156.01 145.00 C 156.01 145.75 156.01 147.25 156.01 148.00 C 155.99 153.33 156.00 158.66 156.00 163.99 C 248.75 164.00 341.49 164.01 434.23 163.99 C 434.24 158.66 434.24 153.33 434.23 148.00 C 434.22 147.25 434.21 145.75 434.20 145.00 C 434.81 131.90 434.36 118.77 434.47 105.66 C 341.65 105.64 248.83 105.64 156.01 105.66 M 154.44 169.10 C 135.32 203.79 115.94 238.34 96.76 272.99 C 96.23 273.99 95.69 274.99 95.16 275.99 C 85.41 293.18 75.86 310.50 66.30 327.80 L 66.03 327.78 C 65.66 328.86 65.29 329.93 64.93 331.02 L 64.38 331.02 C 45.83 364.74 26.95 398.28 8.35 431.97 C 102.90 432.03 197.45 432.00 292.00 431.99 C 292.75 431.99 294.25 431.99 295.00 431.99 C 385.43 431.99 475.86 432.04 566.29 431.96 C 565.84 430.13 565.35 428.30 564.47 426.63 C 548.23 394.44 532.08 362.21 515.89 330.00 C 515.37 328.98 514.87 327.98 514.37 326.97 C 505.97 309.93 497.47 292.94 488.89 275.99 C 488.37 274.98 487.86 273.98 487.36 272.97 C 479.69 257.27 471.75 241.69 463.98 226.04 C 454.36 207.03 445.11 187.83 435.23 168.95 C 341.63 169.13 248.03 168.84 154.44 169.10 Z" />
</g>
<g id="#eababbff">
<path fill="#eababb" opacity="1.00" d=" M 155.93 7.00 C 248.76 6.99 341.59 7.01 434.41 6.99 C 434.43 7.74 434.48 9.23 434.50 9.98 C 381.98 9.99 329.47 9.98 276.96 9.98 C 236.68 10.08 196.39 9.79 156.11 10.13 C 156.07 9.35 155.98 7.78 155.93 7.00 Z" />
<path fill="#eababb" opacity="1.00" d=" M 146.69 21.83 C 148.37 18.74 150.03 15.64 151.89 12.65 C 151.94 14.72 152.24 16.84 151.88 18.90 C 105.92 101.98 60.04 185.10 14.11 268.19 C 12.01 271.92 10.39 276.08 7.01 278.88 C 6.76 277.60 5.81 276.21 6.78 275.00 C 53.44 190.62 100.05 106.22 146.69 21.83 Z" />
<path fill="#eababb" opacity="1.00" d=" M 438.71 11.81 C 440.54 14.05 441.74 16.68 442.93 19.30 C 481.10 97.72 519.28 176.15 557.46 254.57 C 560.63 261.41 564.34 268.00 567.11 275.02 L 566.00 275.21 C 565.59 275.27 564.78 275.40 564.38 275.46 C 549.07 245.00 534.48 214.17 519.44 183.57 C 498.92 141.40 478.38 99.23 457.86 57.06 C 451.42 44.02 445.28 30.84 438.64 17.91 C 438.12 15.93 438.65 13.82 438.71 11.81 Z" />
<path fill="#eababb" opacity="1.00" d=" M 156.01 145.00 C 248.74 145.00 341.47 145.00 434.20 145.00 C 434.21 145.75 434.22 147.25 434.23 148.00 C 341.49 148.00 248.75 148.00 156.01 148.00 C 156.01 147.25 156.01 145.75 156.01 145.00 Z" />
<path fill="#eababb" opacity="1.00" d=" M 96.76 272.99 C 226.96 273.00 357.16 273.03 487.36 272.97 C 487.86 273.98 488.37 274.98 488.89 275.99 C 456.93 276.02 424.98 275.96 393.03 276.03 C 392.98 293.01 392.99 309.99 393.02 326.97 C 433.47 327.02 473.92 327.02 514.37 326.97 C 514.87 327.98 515.37 328.98 515.89 330.00 C 473.93 330.00 431.97 330.00 390.00 330.00 C 389.97 312.01 390.04 294.02 389.97 276.03 C 358.32 275.98 326.67 275.98 295.03 276.03 C 294.97 328.01 295.02 380.00 295.00 431.99 C 294.25 431.99 292.75 431.99 292.00 431.99 C 291.98 380.00 292.04 328.01 291.97 276.02 C 258.99 275.99 226.01 275.98 193.02 276.03 C 192.96 294.35 193.03 312.67 193.00 331.00 C 150.31 331.02 107.62 330.97 64.93 331.02 C 65.29 329.93 65.66 328.86 66.03 327.78 L 66.30 327.80 C 107.52 328.25 148.75 327.90 189.97 327.97 C 190.01 310.66 190.02 293.34 189.97 276.02 C 158.37 275.97 126.76 276.02 95.16 275.99 C 95.69 274.99 96.23 273.99 96.76 272.99 Z" />
</g>
<g id="#c1c1c1ff">
<path fill="#c1c1c1" opacity="1.00" d=" M 171.81 31.04 C 179.21 30.95 186.61 31.03 194.01 30.97 C 198.63 30.92 203.43 32.10 207.16 34.90 C 211.08 38.04 211.63 43.71 210.22 48.24 C 208.96 51.62 205.90 53.79 202.99 55.66 C 208.40 56.77 213.60 60.35 215.15 65.87 C 216.29 70.65 216.17 76.10 213.33 80.30 C 209.47 86.38 201.88 88.93 194.98 89.03 C 187.25 88.97 179.53 89.05 171.80 88.95 C 171.79 69.65 171.77 50.35 171.81 31.04 M 179.68 38.01 C 179.64 43.34 179.64 48.66 179.68 53.99 C 185.72 53.59 192.07 55.02 197.90 52.99 C 204.13 51.25 204.96 40.25 198.17 38.72 C 192.15 37.19 185.82 38.34 179.68 38.01 M 179.67 61.01 C 179.64 68.00 179.64 75.00 179.67 81.99 C 187.63 81.50 196.27 83.57 203.62 79.61 C 208.09 77.11 208.60 71.23 207.17 66.80 C 205.72 63.17 201.59 61.60 197.99 61.11 C 191.89 60.79 185.78 61.10 179.67 61.01 Z" />
<path fill="#c1c1c1" opacity="1.00" d=" M 384.63 31.07 C 388.85 30.96 393.08 30.98 397.30 31.02 C 397.33 46.99 397.34 62.97 397.30 78.95 C 401.30 79.00 405.30 79.02 409.30 79.01 C 409.33 82.33 409.33 85.66 409.30 88.99 C 396.38 89.01 383.46 89.00 370.54 89.00 C 370.50 85.66 370.50 82.33 370.54 79.00 C 374.59 79.01 378.64 79.01 382.70 78.96 C 382.67 68.99 382.66 59.02 382.70 49.05 C 378.64 48.99 374.59 48.99 370.54 49.00 C 370.50 45.70 370.50 42.41 370.54 39.11 C 374.34 39.04 378.38 38.82 381.64 36.65 C 383.56 35.44 383.85 33.01 384.63 31.07 Z" />
<path fill="#c1c1c1" opacity="1.00" d=" M 236.88 42.01 C 239.62 42.00 242.36 42.00 245.11 42.01 C 250.84 57.65 256.45 73.33 262.18 88.96 C 260.03 88.74 257.42 89.62 255.56 88.48 C 253.70 84.48 252.73 80.12 251.04 76.04 C 244.20 76.01 237.36 75.87 230.53 76.13 C 229.23 80.49 227.70 84.76 226.10 89.01 C 224.01 88.99 221.92 88.97 219.83 88.94 C 225.56 73.31 231.14 57.63 236.88 42.01 M 232.48 70.98 C 238.04 71.01 243.60 71.04 249.17 70.94 C 246.48 63.23 243.90 55.48 240.90 47.88 C 237.83 55.48 235.31 63.29 232.48 70.98 Z" />
<path fill="#c1c1c1" opacity="1.00" d=" M 269.32 42.05 C 272.52 41.99 275.72 41.98 278.93 42.05 C 285.50 54.56 291.77 67.26 298.70 79.57 C 298.92 67.06 298.72 54.55 298.80 42.03 C 300.76 42.03 302.71 42.03 304.67 42.03 C 304.65 57.67 304.63 73.31 304.68 88.95 C 302.13 88.98 299.59 88.99 297.04 88.99 C 289.75 75.26 282.85 61.31 275.32 47.71 C 275.05 61.46 275.30 75.23 275.20 88.99 C 273.23 88.97 271.26 88.95 269.30 88.93 C 269.38 73.30 269.35 57.68 269.32 42.05 Z" />
<path fill="#c1c1c1" opacity="1.00" d=" M 328.87 42.01 C 331.61 42.00 334.36 42.00 337.11 42.01 C 342.84 57.65 348.45 73.33 354.18 88.97 C 351.98 88.86 349.62 89.41 347.55 88.57 C 345.76 84.51 344.72 80.15 343.03 76.04 C 336.20 76.01 329.36 75.88 322.53 76.13 C 321.23 80.48 319.70 84.76 318.10 89.01 C 316.01 88.99 313.93 88.97 311.84 88.95 C 317.54 73.31 323.15 57.64 328.87 42.01 M 324.48 70.98 C 330.04 71.01 335.60 71.04 341.16 70.95 C 338.50 63.20 335.84 55.45 332.91 47.80 C 329.86 55.44 327.30 63.26 324.48 70.98 Z" />
</g>
<g id="#e3f2f6ff">
<path fill="#e3f2f6" opacity="1.00" d=" M 154.44 169.10 C 248.03 168.84 341.63 169.13 435.23 168.95 C 445.11 187.83 454.36 207.03 463.98 226.04 C 471.75 241.69 479.69 257.27 487.36 272.97 C 357.16 273.03 226.96 273.00 96.76 272.99 C 115.94 238.34 135.32 203.79 154.44 169.10 Z" />
<path fill="#e3f2f6" opacity="1.00" d=" M 95.16 275.99 C 126.76 276.02 158.37 275.97 189.97 276.02 C 190.02 293.34 190.01 310.66 189.97 327.97 C 148.75 327.90 107.52 328.25 66.30 327.80 C 75.86 310.50 85.41 293.18 95.16 275.99 Z" />
<path fill="#e3f2f6" opacity="1.00" d=" M 193.02 276.03 C 226.01 275.98 258.99 275.99 291.97 276.02 C 292.04 328.01 291.98 380.00 292.00 431.99 C 197.45 432.00 102.90 432.03 8.35 431.97 C 26.95 398.28 45.83 364.74 64.38 331.02 L 64.93 331.02 C 107.62 330.97 150.31 331.02 193.00 331.00 C 193.03 312.67 192.96 294.35 193.02 276.03 Z" />
<path fill="#e3f2f6" opacity="1.00" d=" M 295.03 276.03 C 326.67 275.98 358.32 275.98 389.97 276.03 C 390.04 294.02 389.97 312.01 390.00 330.00 C 431.97 330.00 473.93 330.00 515.89 330.00 C 532.08 362.21 548.23 394.44 564.47 426.63 C 565.35 428.30 565.84 430.13 566.29 431.96 C 475.86 432.04 385.43 431.99 295.00 431.99 C 295.02 380.00 294.97 328.01 295.03 276.03 Z" />
<path fill="#e3f2f6" opacity="1.00" d=" M 393.03 276.03 C 424.98 275.96 456.93 276.02 488.89 275.99 C 497.47 292.94 505.97 309.93 514.37 326.97 C 473.92 327.02 433.47 327.02 393.02 326.97 C 392.99 309.99 392.98 293.01 393.03 276.03 Z" />
</g>
</svg>
