<?xml version="1.0" encoding="UTF-8" ?>
<!DOCTYPE svg PUBLIC "-//W3C//DTD SVG 1.1//EN" "http://www.w3.org/Graphics/SVG/1.1/DTD/svg11.dtd">
<svg width="573pt" height="439pt" viewBox="0 0 573 439" version="1.1" xmlns="http://www.w3.org/2000/svg">
<g id="#ffffffff">
<path fill="#ffffff" opacity="1.00" d=" M 0.00 0.00 L 151.81 0.00 C 101.00 91.16 50.79 182.66 0.00 273.84 L 0.00 0.00 Z" />
<path fill="#ffffff" opacity="1.00" d=" M 438.68 0.00 L 573.00 0.00 L 573.00 272.05 C 536.59 198.48 500.24 124.88 463.83 51.31 C 455.56 34.15 446.68 17.29 438.68 0.00 Z" />
<path fill="#ffffff" opacity="1.00" d=" M 156.10 10.13 C 191.05 9.77 226.01 10.07 260.96 9.98 C 318.80 9.98 376.65 9.97 434.50 9.98 C 435.01 41.43 434.61 72.89 434.48 104.34 C 341.65 104.36 248.83 104.36 156.01 104.35 C 156.06 72.94 155.87 41.53 156.10 10.13 M 369.64 33.77 C 369.66 38.32 369.66 42.86 369.77 47.41 C 375.10 44.41 380.56 40.54 386.99 40.93 C 390.94 41.01 395.60 43.56 395.79 47.92 C 396.55 53.54 392.83 58.31 389.19 62.12 C 382.85 68.60 375.61 74.15 368.28 79.46 C 368.24 82.62 368.21 85.79 368.21 88.96 C 383.44 89.04 398.68 88.99 413.92 88.99 C 414.12 85.34 414.14 81.68 413.98 78.03 C 405.28 77.93 396.58 78.09 387.89 77.93 C 394.92 72.72 402.14 67.40 407.21 60.15 C 411.58 53.86 412.92 44.99 408.80 38.24 C 406.15 33.75 401.01 31.57 396.11 30.56 C 387.21 28.87 378.02 30.62 369.64 33.77 M 171.80 31.04 C 171.78 50.35 171.79 69.65 171.80 88.95 C 178.19 89.06 184.59 88.95 190.98 89.03 C 195.73 89.17 200.61 88.95 205.02 87.01 C 210.21 85.01 214.49 80.44 215.52 74.90 C 216.24 70.04 215.81 64.49 212.26 60.76 C 209.92 57.89 206.36 56.56 202.89 55.65 C 206.07 53.72 209.39 51.31 210.44 47.54 C 211.45 43.34 211.02 38.32 207.60 35.30 C 203.62 31.89 198.13 30.86 193.03 30.96 C 185.95 31.04 178.88 30.95 171.80 31.04 M 236.88 42.00 C 231.16 57.63 225.53 73.30 219.85 88.95 C 221.93 88.97 224.02 88.99 226.11 89.01 C 227.71 84.75 229.22 80.46 230.55 76.11 C 237.38 75.90 244.21 76.01 251.05 76.03 C 252.71 80.12 253.67 84.48 255.58 88.46 C 257.44 89.59 260.03 88.76 262.17 88.99 C 256.47 73.34 250.83 57.66 245.11 42.01 C 242.36 42.00 239.62 42.00 236.88 42.00 M 269.31 42.05 C 269.37 57.69 269.35 73.33 269.32 88.97 C 271.28 88.97 273.24 88.97 275.20 88.97 C 275.31 75.24 275.02 61.51 275.35 47.78 C 282.89 61.35 289.76 75.29 297.04 89.00 C 299.59 88.98 302.14 88.96 304.69 88.95 C 304.64 73.33 304.62 57.70 304.70 42.08 C 302.73 42.05 300.76 42.03 298.80 42.01 C 298.71 54.52 298.93 67.04 298.68 79.55 C 291.76 67.23 285.49 54.55 278.92 42.03 C 275.71 41.99 272.51 42.00 269.31 42.05 M 328.87 42.00 C 323.17 57.64 317.51 73.30 311.86 88.96 C 313.95 88.97 316.03 88.99 318.12 89.01 C 319.71 84.67 321.20 80.29 322.77 75.94 C 329.53 76.06 336.28 75.95 343.04 76.04 C 344.88 80.24 345.56 84.98 347.98 88.89 C 350.03 89.09 352.10 89.01 354.16 88.99 C 348.48 73.33 342.82 57.66 337.11 42.01 C 334.36 42.01 331.61 42.00 328.87 42.00 Z" />
<path fill="#ffffff" opacity="1.00" d=" M 438.67 17.91 C 444.82 29.99 450.60 42.25 456.58 54.42 C 492.48 128.12 528.32 201.86 564.25 275.55 C 564.69 275.45 565.56 275.26 565.99 275.16 C 565.94 323.55 566.13 371.95 565.90 420.34 C 557.48 404.51 549.80 388.29 541.66 372.31 C 507.54 303.84 473.04 235.57 438.94 167.10 C 437.90 164.55 438.30 161.71 438.23 159.03 C 438.53 136.03 438.57 113.02 438.50 90.01 C 438.90 65.98 438.81 41.94 438.67 17.91 Z" />
<path fill="#ffffff" opacity="1.00" d=" M 15.53 265.60 C 60.99 183.40 106.36 101.13 151.86 18.94 C 152.21 66.61 151.86 114.29 152.04 161.96 C 152.45 165.85 149.95 169.00 148.21 172.21 C 107.34 245.65 66.50 319.11 25.64 392.56 C 19.42 403.58 13.50 414.78 7.08 425.68 C 6.90 376.79 7.04 327.89 7.01 278.99 C 10.93 275.28 12.88 270.18 15.53 265.60 Z" />
<path fill="#ffffff" opacity="1.00" d=" M 179.68 38.00 C 185.81 38.33 192.12 37.20 198.14 38.70 C 204.94 40.21 204.14 51.19 197.93 52.99 C 192.08 54.99 185.74 53.63 179.68 53.99 C 179.64 48.66 179.64 43.33 179.68 38.00 Z" />
<path fill="#ffffff" opacity="1.00" d=" M 232.49 70.98 C 235.30 63.32 237.76 55.51 240.92 47.98 C 243.93 55.54 246.49 63.27 249.16 70.95 C 243.61 71.03 238.05 71.01 232.49 70.98 Z" />
<path fill="#ffffff" opacity="1.00" d=" M 324.48 70.98 C 327.31 63.27 329.85 55.45 332.91 47.82 C 335.85 55.46 338.49 63.21 341.16 70.95 C 335.60 71.03 330.04 71.01 324.48 70.98 Z" />
<path fill="#ffffff" opacity="1.00" d=" M 179.67 61.00 C 185.81 61.12 191.96 60.74 198.08 61.13 C 201.64 61.61 205.70 63.19 207.15 66.77 C 208.60 71.18 208.11 77.10 203.63 79.60 C 196.29 83.58 187.63 81.50 179.67 81.99 C 179.65 75.00 179.64 68.00 179.67 61.00 Z" />
<path fill="#ffffff" opacity="1.00" d=" M 156.01 105.65 C 248.83 105.64 341.65 105.64 434.48 105.66 C 434.36 118.77 434.79 131.90 434.21 145.00 C 341.48 145.00 248.74 145.00 156.00 145.00 C 156.00 131.88 155.99 118.77 156.01 105.65 Z" />
<path fill="#ffffff" opacity="1.00" d=" M 156.00 148.00 C 248.75 148.00 341.49 148.00 434.23 148.00 C 434.25 153.33 434.24 158.66 434.23 163.99 C 341.49 164.01 248.75 164.00 156.00 164.00 C 155.99 158.67 155.99 153.33 156.00 148.00 Z" />
</g>
<g id="#abababff">
<path fill="#ababab" opacity="1.00" d=" M 151.81 0.00 L 438.68 0.00 C 446.68 17.29 455.56 34.15 463.83 51.31 C 500.24 124.88 536.59 198.48 573.00 272.05 L 573.00 439.00 L 0.00 439.00 L 0.00 273.84 C 50.79 182.66 101.00 91.16 151.81 0.00 M 155.94 6.98 C 155.98 7.77 156.06 9.34 156.10 10.13 C 155.87 41.53 156.06 72.94 156.01 104.35 C 248.83 104.36 341.65 104.36 434.48 104.34 C 434.61 72.89 435.01 41.43 434.50 9.98 C 434.48 9.23 434.44 7.73 434.41 6.99 C 341.59 7.00 248.77 7.00 155.94 6.98 M 146.74 21.72 C 100.08 106.15 53.43 190.60 6.77 275.03 C 5.89 276.28 6.82 277.70 7.01 278.99 C 7.04 327.89 6.90 376.79 7.08 425.68 C 13.50 414.78 19.42 403.58 25.64 392.56 C 66.50 319.11 107.34 245.65 148.21 172.21 C 149.95 169.00 152.45 165.85 152.04 161.96 C 151.86 114.29 152.21 66.61 151.86 18.94 C 152.23 16.88 151.95 14.77 151.91 12.69 C 150.05 15.62 148.39 18.67 146.74 21.72 M 438.65 11.81 C 438.64 13.83 438.12 15.93 438.67 17.91 C 438.81 41.94 438.90 65.98 438.50 90.01 C 438.57 113.02 438.53 136.03 438.23 159.03 C 438.30 161.71 437.90 164.55 438.94 167.10 C 473.04 235.57 507.54 303.84 541.66 372.31 C 549.80 388.29 557.48 404.51 565.90 420.34 C 566.13 371.95 565.94 323.55 565.99 275.16 L 567.11 274.90 C 564.16 267.72 560.43 260.91 557.14 253.90 C 519.17 175.92 481.22 97.93 443.25 19.96 C 441.99 17.09 440.64 14.25 438.65 11.81 M 156.01 105.65 C 155.99 118.77 156.00 131.88 156.00 145.00 C 156.00 145.75 156.00 147.25 156.00 148.00 C 155.99 153.33 155.99 158.67 156.00 164.00 C 248.75 164.00 341.49 164.01 434.23 163.99 C 434.24 158.66 434.25 153.33 434.23 148.00 C 434.23 147.25 434.22 145.75 434.21 145.00 C 434.79 131.90 434.36 118.77 434.48 105.66 C 341.65 105.64 248.83 105.64 156.01 105.65 M 154.40 169.12 C 135.34 203.82 115.92 238.34 96.76 272.99 C 96.22 273.99 95.68 274.99 95.14 276.00 C 85.42 293.19 75.86 310.48 66.32 327.77 L 66.02 327.76 C 65.66 328.84 65.30 329.93 64.96 331.04 L 64.34 331.04 C 45.86 364.78 26.91 398.27 8.37 431.98 C 102.91 432.02 197.45 432.00 292.00 431.99 C 292.75 431.99 294.25 431.99 295.00 431.99 C 385.46 431.98 475.91 432.05 566.37 431.96 C 565.78 430.14 565.27 428.30 564.45 426.58 C 548.21 394.42 532.07 362.20 515.89 330.00 C 515.38 328.99 514.87 327.98 514.37 326.98 C 505.98 309.93 497.46 292.95 488.89 276.00 C 488.38 274.98 487.88 273.98 487.37 272.97 C 471.00 239.90 454.39 206.95 437.91 173.93 C 437.05 172.29 436.30 170.55 435.09 169.14 C 433.07 168.89 431.04 168.96 429.02 168.96 C 337.48 169.13 245.94 168.82 154.40 169.12 Z" />
</g>
<g id="#e9b9bbff">
<path fill="#e9b9bb" opacity="1.00" d=" M 155.94 6.98 C 248.77 7.00 341.59 7.00 434.41 6.99 C 434.44 7.73 434.48 9.23 434.50 9.98 C 376.65 9.97 318.80 9.98 260.96 9.98 C 226.01 10.07 191.05 9.77 156.10 10.13 C 156.06 9.34 155.98 7.77 155.94 6.98 Z" />
<path fill="#e9b9bb" opacity="1.00" d=" M 146.74 21.72 C 148.39 18.67 150.05 15.62 151.91 12.69 C 151.95 14.77 152.23 16.88 151.86 18.94 C 106.36 101.13 60.99 183.40 15.53 265.60 C 12.88 270.18 10.93 275.28 7.01 278.99 C 6.82 277.70 5.89 276.28 6.77 275.03 C 53.43 190.60 100.08 106.15 146.74 21.72 Z" />
<path fill="#e9b9bb" opacity="1.00" d=" M 438.65 11.81 C 440.64 14.25 441.99 17.09 443.25 19.96 C 481.22 97.93 519.17 175.92 557.14 253.90 C 560.43 260.91 564.16 267.72 567.11 274.90 L 565.99 275.16 C 565.56 275.26 564.69 275.45 564.25 275.55 C 528.32 201.86 492.48 128.12 456.58 54.42 C 450.60 42.25 444.82 29.99 438.67 17.91 C 438.12 15.93 438.64 13.83 438.65 11.81 Z" />
<path fill="#e9b9bb" opacity="1.00" d=" M 156.00 145.00 C 248.74 145.00 341.48 145.00 434.21 145.00 C 434.22 145.75 434.23 147.25 434.23 148.00 C 341.49 148.00 248.75 148.00 156.00 148.00 C 156.00 147.25 156.00 145.75 156.00 145.00 Z" />
<path fill="#e9b9bb" opacity="1.00" d=" M 96.76 272.99 C 226.96 273.00 357.17 273.03 487.37 272.97 C 487.88 273.98 488.38 274.98 488.89 276.00 C 456.93 276.02 424.98 275.96 393.02 276.03 C 392.98 293.01 392.99 309.99 393.02 326.97 C 433.47 327.02 473.92 327.01 514.37 326.98 C 514.87 327.98 515.38 328.99 515.89 330.00 C 473.93 330.00 431.96 330.01 390.00 330.00 C 389.98 312.00 390.03 294.01 389.98 276.02 C 358.33 275.98 326.67 275.99 295.02 276.02 C 294.97 328.01 295.01 380.00 295.00 431.99 C 294.25 431.99 292.75 431.99 292.00 431.99 C 291.98 380.00 292.03 328.01 291.98 276.02 C 258.99 275.99 226.01 275.98 193.02 276.03 C 192.97 294.35 193.02 312.67 193.00 331.00 C 150.32 331.03 107.64 330.95 64.96 331.04 C 65.30 329.93 65.66 328.84 66.02 327.76 L 66.32 327.77 C 73.89 328.16 81.47 327.96 89.04 328.00 C 122.69 327.98 156.33 328.03 189.98 327.98 C 190.01 310.66 190.01 293.34 189.98 276.02 C 158.36 275.97 126.75 276.02 95.14 276.00 C 95.68 274.99 96.22 273.99 96.76 272.99 Z" />
</g>
<g id="#c1c1c1ff">
<path fill="#c1c1c1" opacity="1.00" d=" M 369.64 33.77 C 378.02 30.62 387.21 28.87 396.11 30.56 C 401.01 31.57 406.15 33.75 408.80 38.24 C 412.92 44.99 411.58 53.86 407.21 60.15 C 402.14 67.40 394.92 72.72 387.89 77.93 C 396.58 78.09 405.28 77.93 413.98 78.03 C 414.14 81.68 414.12 85.34 413.92 88.99 C 398.68 88.99 383.44 89.04 368.21 88.96 C 368.21 85.79 368.24 82.62 368.28 79.46 C 375.61 74.15 382.85 68.60 389.19 62.12 C 392.83 58.31 396.55 53.54 395.79 47.92 C 395.60 43.56 390.94 41.01 386.99 40.93 C 380.56 40.54 375.10 44.41 369.77 47.41 C 369.66 42.86 369.66 38.32 369.64 33.77 Z" />
<path fill="#c1c1c1" opacity="1.00" d=" M 171.80 31.04 C 178.88 30.95 185.95 31.04 193.03 30.96 C 198.13 30.86 203.62 31.89 207.60 35.30 C 211.02 38.32 211.45 43.34 210.44 47.54 C 209.39 51.31 206.07 53.72 202.89 55.65 C 206.36 56.56 209.92 57.89 212.26 60.76 C 215.81 64.49 216.24 70.04 215.52 74.90 C 214.49 80.44 210.21 85.01 205.02 87.01 C 200.61 88.95 195.73 89.17 190.98 89.03 C 184.59 88.95 178.19 89.06 171.80 88.95 C 171.79 69.65 171.78 50.35 171.80 31.04 M 179.68 38.00 C 179.64 43.33 179.64 48.66 179.68 53.99 C 185.74 53.63 192.08 54.99 197.93 52.99 C 204.14 51.19 204.94 40.21 198.14 38.70 C 192.12 37.20 185.81 38.33 179.68 38.00 M 179.67 61.00 C 179.64 68.00 179.65 75.00 179.67 81.99 C 187.63 81.50 196.29 83.58 203.63 79.60 C 208.11 77.10 208.60 71.18 207.15 66.77 C 205.70 63.19 201.64 61.61 198.08 61.13 C 191.96 60.74 185.81 61.12 179.67 61.00 Z" />
<path fill="#c1c1c1" opacity="1.00" d=" M 236.88 42.00 C 239.62 42.00 242.36 42.00 245.11 42.01 C 250.83 57.66 256.47 73.34 262.17 88.99 C 260.03 88.76 257.44 89.59 255.58 88.46 C 253.67 84.48 252.71 80.12 251.05 76.03 C 244.21 76.01 237.38 75.90 230.55 76.11 C 229.22 80.46 227.71 84.75 226.11 89.01 C 224.02 88.99 221.93 88.97 219.85 88.95 C 225.53 73.30 231.16 57.63 236.88 42.00 M 232.49 70.98 C 238.05 71.01 243.61 71.03 249.16 70.95 C 246.49 63.27 243.93 55.54 240.92 47.98 C 237.76 55.51 235.30 63.32 232.49 70.98 Z" />
<path fill="#c1c1c1" opacity="1.00" d=" M 269.31 42.05 C 272.51 42.00 275.71 41.99 278.92 42.03 C 285.49 54.55 291.76 67.23 298.68 79.55 C 298.93 67.04 298.71 54.52 298.80 42.01 C 300.76 42.03 302.73 42.05 304.70 42.08 C 304.62 57.70 304.64 73.33 304.69 88.95 C 302.14 88.96 299.59 88.98 297.04 89.00 C 289.76 75.29 282.89 61.35 275.35 47.78 C 275.02 61.51 275.31 75.24 275.20 88.97 C 273.24 88.97 271.28 88.97 269.32 88.97 C 269.35 73.33 269.37 57.69 269.31 42.05 Z" />
<path fill="#c1c1c1" opacity="1.00" d=" M 328.87 42.00 C 331.61 42.00 334.36 42.01 337.11 42.01 C 342.82 57.66 348.48 73.33 354.16 88.99 C 352.10 89.01 350.03 89.09 347.98 88.89 C 345.56 84.98 344.88 80.24 343.04 76.04 C 336.28 75.95 329.53 76.06 322.77 75.94 C 321.20 80.29 319.71 84.67 318.12 89.01 C 316.03 88.99 313.95 88.97 311.86 88.96 C 317.51 73.30 323.17 57.64 328.87 42.00 M 324.48 70.98 C 330.04 71.01 335.60 71.03 341.16 70.95 C 338.49 63.21 335.85 55.46 332.91 47.82 C 329.85 55.45 327.31 63.27 324.48 70.98 Z" />
</g>
<g id="#e3f2f6ff">
<path fill="#e3f2f6" opacity="1.00" d=" M 154.40 169.12 C 245.94 168.82 337.48 169.13 429.02 168.96 C 431.04 168.96 433.07 168.89 435.09 169.14 C 436.30 170.55 437.05 172.29 437.91 173.93 C 454.39 206.95 471.00 239.90 487.37 272.97 C 357.17 273.03 226.96 273.00 96.76 272.99 C 115.92 238.34 135.34 203.82 154.40 169.12 Z" />
<path fill="#e3f2f6" opacity="1.00" d=" M 95.14 276.00 C 126.75 276.02 158.36 275.97 189.98 276.02 C 190.01 293.34 190.01 310.66 189.98 327.98 C 156.33 328.03 122.69 327.98 89.04 328.00 C 81.47 327.96 73.89 328.16 66.32 327.77 C 75.86 310.48 85.42 293.19 95.14 276.00 Z" />
<path fill="#e3f2f6" opacity="1.00" d=" M 193.02 276.03 C 226.01 275.98 258.99 275.99 291.98 276.02 C 292.03 328.01 291.98 380.00 292.00 431.99 C 197.45 432.00 102.91 432.02 8.37 431.98 C 26.91 398.27 45.86 364.78 64.34 331.04 L 64.96 331.04 C 107.64 330.95 150.32 331.03 193.00 331.00 C 193.02 312.67 192.97 294.35 193.02 276.03 Z" />
<path fill="#e3f2f6" opacity="1.00" d=" M 295.02 276.02 C 326.67 275.99 358.33 275.98 389.98 276.02 C 390.03 294.01 389.98 312.00 390.00 330.00 C 431.96 330.01 473.93 330.00 515.89 330.00 C 532.07 362.20 548.21 394.42 564.45 426.58 C 565.27 428.30 565.78 430.14 566.37 431.96 C 475.91 432.05 385.46 431.98 295.00 431.99 C 295.01 380.00 294.97 328.01 295.02 276.02 Z" />
<path fill="#e3f2f6" opacity="1.00" d=" M 393.02 276.03 C 424.98 275.96 456.93 276.02 488.89 276.00 C 497.46 292.95 505.98 309.93 514.37 326.98 C 473.92 327.01 433.47 327.02 393.02 326.97 C 392.99 309.99 392.98 293.01 393.02 276.03 Z" />
</g>
</svg>
