<?xml version="1.0" encoding="UTF-8" ?>
<!DOCTYPE svg PUBLIC "-//W3C//DTD SVG 1.1//EN" "http://www.w3.org/Graphics/SVG/1.1/DTD/svg11.dtd">
<svg width="573pt" height="439pt" viewBox="0 0 573 439" version="1.1" xmlns="http://www.w3.org/2000/svg">
<g id="#ffffffff">
<path fill="#ffffff" opacity="1.00" d=" M 0.00 0.00 L 151.77 0.00 C 101.05 91.21 50.75 182.67 0.00 273.87 L 0.00 0.00 Z" />
<path fill="#ffffff" opacity="1.00" d=" M 438.54 0.00 L 573.00 0.00 L 573.00 272.24 C 528.33 181.42 483.22 90.82 438.54 0.00 Z" />
<path fill="#ffffff" opacity="1.00" d=" M 156.00 10.63 C 157.28 10.23 158.60 9.95 159.95 9.97 C 251.47 10.02 342.99 9.98 434.51 9.99 C 435.01 41.45 434.66 72.92 434.46 104.38 C 341.64 104.34 248.82 104.38 156.00 104.36 C 156.00 73.12 155.99 41.88 156.00 10.63 M 171.79 31.05 C 171.80 50.35 171.79 69.65 171.79 88.95 C 180.20 89.03 188.62 89.01 197.03 88.99 C 203.33 88.31 210.10 85.75 213.49 80.04 C 216.00 76.26 216.14 71.46 215.44 67.11 C 214.41 60.99 208.70 56.58 202.76 55.71 C 206.21 53.80 209.67 51.03 210.57 46.99 C 211.14 43.59 211.13 39.76 208.96 36.87 C 206.25 33.07 201.40 31.82 197.05 31.05 C 188.63 30.93 180.21 31.00 171.79 31.05 M 384.60 31.00 C 383.95 33.06 383.58 35.49 381.57 36.72 C 378.28 38.73 374.31 39.23 370.53 39.03 C 370.52 42.36 370.52 45.68 370.53 49.01 C 374.61 49.00 378.69 48.93 382.77 49.12 C 382.62 59.05 382.65 68.98 382.75 78.91 C 378.67 79.05 374.60 79.00 370.53 79.00 C 370.52 82.33 370.52 85.66 370.53 89.00 C 383.45 89.00 396.38 89.00 409.31 89.00 C 409.32 85.67 409.32 82.33 409.31 79.00 C 405.30 79.00 401.29 79.02 397.29 78.96 C 397.34 62.97 397.32 46.98 397.30 31.00 C 393.06 31.00 388.83 31.00 384.60 31.00 M 219.82 88.94 C 221.92 88.98 224.02 89.00 226.12 89.00 C 227.37 85.49 228.70 82.01 229.79 78.44 C 230.23 77.46 230.34 75.57 231.94 76.01 C 238.31 75.97 244.69 75.98 251.06 76.05 C 252.72 80.16 253.80 84.48 255.52 88.57 C 257.53 89.53 260.00 88.79 262.18 88.94 C 256.34 73.38 250.98 57.64 245.06 42.12 C 242.34 41.87 239.61 42.01 236.89 42.01 C 231.13 57.62 225.58 73.32 219.82 88.94 M 269.29 42.09 C 269.41 57.71 269.36 73.34 269.31 88.96 C 271.28 88.98 273.24 88.98 275.21 88.97 C 275.26 75.22 275.08 61.46 275.31 47.72 C 282.84 61.28 289.77 75.19 296.98 88.94 C 299.55 89.02 302.13 89.01 304.72 88.91 C 304.60 73.30 304.61 57.68 304.71 42.07 C 302.73 42.03 300.76 42.02 298.79 42.02 C 298.77 54.45 298.86 66.88 298.74 79.31 C 297.91 78.21 297.07 77.11 296.46 75.88 C 290.78 64.53 284.63 53.43 278.97 42.06 C 275.74 41.96 272.51 41.97 269.29 42.09 M 311.80 88.93 C 313.90 88.97 316.00 89.00 318.11 89.01 C 319.71 84.69 321.20 80.32 322.71 75.97 C 329.49 76.06 336.27 75.94 343.05 76.04 C 344.72 80.16 345.82 84.49 347.53 88.60 C 349.57 89.47 351.99 88.82 354.18 88.94 C 348.40 73.33 342.84 57.64 337.11 42.00 C 334.37 42.00 331.64 42.00 328.90 41.99 C 323.10 57.60 317.63 73.33 311.80 88.93 Z" />
<path fill="#ffffff" opacity="1.00" d=" M 438.51 16.83 C 443.22 27.72 448.87 38.19 453.89 48.94 C 483.40 109.50 512.87 170.07 542.35 230.64 C 550.00 246.06 557.20 261.71 565.15 276.99 C 565.28 276.89 565.55 276.69 565.69 276.60 L 566.00 276.37 C 566.00 307.56 566.00 338.76 566.00 369.95 C 565.86 386.96 566.27 403.98 565.79 420.98 C 547.05 382.56 527.60 344.47 508.59 306.18 C 485.17 259.37 461.49 212.67 438.36 165.72 C 438.18 157.17 438.11 148.59 438.48 140.05 C 438.66 117.71 438.21 95.35 438.76 73.02 C 438.62 54.29 439.03 35.55 438.51 16.83 Z" />
<path fill="#ffffff" opacity="1.00" d=" M 9.10 277.23 C 56.75 191.13 104.25 104.95 151.92 18.86 C 152.12 66.89 151.92 114.93 152.02 162.97 C 152.38 165.75 150.46 167.97 149.28 170.29 C 101.88 255.50 54.48 340.70 7.11 425.93 C 6.87 377.27 7.03 328.60 7.03 279.94 L 7.27 279.69 C 7.99 278.96 8.55 278.09 9.10 277.23 Z" />
<path fill="#ffffff" opacity="1.00" d=" M 179.65 38.00 C 185.77 38.40 192.10 37.13 198.07 38.72 C 204.65 39.96 204.32 50.47 198.61 52.69 C 192.63 55.24 185.94 53.49 179.65 54.00 C 179.65 48.67 179.64 43.33 179.65 38.00 Z" />
<path fill="#ffffff" opacity="1.00" d=" M 232.40 70.89 C 235.47 63.27 237.74 55.35 240.96 47.79 C 243.79 55.48 246.55 63.19 249.15 70.96 C 243.57 71.00 237.98 71.10 232.40 70.89 Z" />
<path fill="#ffffff" opacity="1.00" d=" M 332.81 47.86 C 336.01 55.39 338.41 63.24 341.17 70.95 C 335.58 71.00 329.98 71.10 324.39 70.88 C 327.40 63.28 329.86 55.48 332.81 47.86 Z" />
<path fill="#ffffff" opacity="1.00" d=" M 179.65 61.00 C 185.81 61.06 191.98 60.88 198.14 61.06 C 201.65 61.74 205.76 63.15 207.16 66.79 C 208.60 71.23 208.11 77.05 203.66 79.62 C 196.27 83.57 187.64 81.48 179.65 82.00 C 179.65 75.00 179.65 68.00 179.65 61.00 Z" />
<path fill="#ffffff" opacity="1.00" d=" M 156.00 105.64 C 248.83 105.64 341.66 105.64 434.49 105.64 C 434.34 118.76 434.83 131.89 434.21 145.00 C 341.47 145.00 248.74 145.00 156.01 145.00 C 155.99 131.88 156.01 118.76 156.00 105.64 Z" />
<path fill="#ffffff" opacity="1.00" d=" M 156.01 148.00 C 248.76 148.00 341.50 148.00 434.25 148.00 C 434.24 153.33 434.25 158.67 434.25 164.00 C 341.50 164.00 248.75 164.00 156.00 164.00 C 156.00 158.67 155.99 153.33 156.01 148.00 Z" />
</g>
<g id="#000000ff">
<path fill="#000000" opacity="1.00" d=" M 151.77 0.00 L 438.54 0.00 C 483.22 90.82 528.33 181.42 573.00 272.24 L 573.00 439.00 L 0.00 439.00 L 0.00 273.87 C 50.75 182.67 101.05 91.21 151.77 0.00 M 155.99 7.00 C 155.99 8.21 155.99 9.42 156.00 10.63 C 155.99 41.88 156.00 73.12 156.00 104.36 C 248.82 104.38 341.64 104.34 434.46 104.38 C 434.66 72.92 435.01 41.45 434.51 9.99 C 434.50 9.24 434.47 7.74 434.46 6.99 C 341.64 7.01 248.82 7.00 155.99 7.00 M 438.43 10.12 C 438.44 12.36 438.35 14.59 438.51 16.83 C 439.03 35.55 438.62 54.29 438.76 73.02 C 438.21 95.35 438.66 117.71 438.48 140.05 C 438.11 148.59 438.18 157.17 438.36 165.72 C 461.49 212.67 485.17 259.37 508.59 306.18 C 527.60 344.47 547.05 382.56 565.79 420.98 C 566.27 403.98 565.86 386.96 566.00 369.95 C 566.00 338.76 566.00 307.56 566.00 276.37 L 565.69 276.60 C 566.57 274.96 566.76 272.97 565.67 271.38 C 523.21 184.32 480.92 97.17 438.43 10.12 M 6.07 276.09 C 6.43 277.30 6.83 278.50 7.27 279.69 L 7.03 279.94 C 7.03 328.60 6.87 377.27 7.11 425.93 C 54.48 340.70 101.88 255.50 149.28 170.29 C 150.46 167.97 152.38 165.75 152.02 162.97 C 151.92 114.93 152.12 66.89 151.92 18.86 C 152.18 16.80 151.95 14.71 151.84 12.65 C 103.09 100.36 54.86 188.39 6.07 276.09 M 156.00 105.64 C 156.01 118.76 155.99 131.88 156.01 145.00 C 156.01 145.75 156.01 147.25 156.01 148.00 C 155.99 153.33 156.00 158.67 156.00 164.00 C 248.75 164.00 341.50 164.00 434.25 164.00 C 434.25 158.67 434.24 153.33 434.25 148.00 C 434.24 147.25 434.22 145.75 434.21 145.00 C 434.83 131.89 434.34 118.76 434.49 105.64 C 341.66 105.64 248.83 105.64 156.00 105.64 M 96.85 272.97 C 96.28 273.98 95.72 274.99 95.16 276.00 C 85.49 293.32 75.93 310.71 66.19 327.99 C 65.74 329.01 65.29 330.04 64.84 331.07 L 64.42 331.08 C 45.93 364.81 27.04 398.33 8.41 431.99 C 102.94 432.00 197.47 432.01 292.00 431.99 C 292.75 431.99 294.25 431.99 295.00 431.99 C 385.40 432.00 475.80 432.02 566.20 431.98 C 565.94 430.60 565.72 429.20 565.01 427.98 C 548.65 395.31 532.15 362.71 515.86 330.00 C 515.35 328.99 514.85 327.99 514.35 327.00 C 505.87 309.99 497.37 293.00 488.86 276.00 C 488.35 274.99 487.85 273.99 487.35 273.00 C 469.95 238.33 452.83 203.52 435.18 168.97 C 341.70 169.01 248.22 169.03 154.73 168.96 C 135.37 203.60 116.17 238.31 96.85 272.97 Z" />
</g>
<g id="#c33035ff">
<path fill="#c33035" opacity="1.00" d=" M 155.99 7.00 C 248.82 7.00 341.64 7.01 434.46 6.99 C 434.47 7.74 434.50 9.24 434.51 9.99 C 342.99 9.98 251.47 10.02 159.95 9.97 C 158.60 9.95 157.28 10.23 156.00 10.63 C 155.99 9.42 155.99 8.21 155.99 7.00 Z" />
<path fill="#c33035" opacity="1.00" d=" M 438.43 10.12 C 480.92 97.17 523.21 184.32 565.67 271.38 C 566.76 272.97 566.57 274.96 565.69 276.60 C 565.55 276.69 565.28 276.89 565.15 276.99 C 557.20 261.71 550.00 246.06 542.35 230.64 C 512.87 170.07 483.40 109.50 453.89 48.94 C 448.87 38.19 443.22 27.72 438.51 16.83 C 438.35 14.59 438.44 12.36 438.43 10.12 Z" />
<path fill="#c33035" opacity="1.00" d=" M 6.07 276.09 C 54.86 188.39 103.09 100.36 151.84 12.65 C 151.95 14.71 152.18 16.80 151.92 18.86 C 104.25 104.95 56.75 191.13 9.10 277.23 C 8.55 278.09 7.99 278.96 7.27 279.69 C 6.83 278.50 6.43 277.30 6.07 276.09 Z" />
<path fill="#c33035" opacity="1.00" d=" M 156.01 145.00 C 248.74 145.00 341.47 145.00 434.21 145.00 C 434.22 145.75 434.24 147.25 434.25 148.00 C 341.50 148.00 248.76 148.00 156.01 148.00 C 156.01 147.25 156.01 145.75 156.01 145.00 Z" />
<path fill="#c33035" opacity="1.00" d=" M 96.85 272.97 C 227.02 273.04 357.18 272.98 487.35 273.00 C 487.85 273.99 488.35 274.99 488.86 276.00 C 456.91 276.00 424.96 276.00 393.00 276.00 C 393.00 293.00 393.00 310.00 393.01 327.00 C 433.45 327.00 473.90 327.00 514.35 327.00 C 514.85 327.99 515.35 328.99 515.86 330.00 C 473.91 330.00 431.95 330.00 390.00 330.00 C 390.00 312.00 390.00 294.00 390.00 276.00 C 358.33 276.00 326.67 276.00 295.00 276.00 C 295.00 328.00 295.00 379.99 295.00 431.99 C 294.25 431.99 292.75 431.99 292.00 431.99 C 292.00 379.99 292.00 328.00 292.00 276.00 C 259.00 276.00 226.00 276.00 193.00 276.00 C 193.00 294.34 193.00 312.67 193.00 331.00 C 150.28 331.04 107.56 330.91 64.84 331.07 C 65.29 330.04 65.74 329.01 66.19 327.99 C 107.46 328.01 148.73 328.00 190.00 328.00 C 190.00 310.67 190.00 293.34 190.00 276.01 C 158.39 275.99 126.77 276.00 95.16 276.00 C 95.72 274.99 96.28 273.98 96.85 272.97 Z" />
</g>
<g id="#444444ff">
<path fill="#444444" opacity="1.00" d=" M 171.79 31.05 C 180.21 31.00 188.63 30.93 197.05 31.05 C 201.40 31.82 206.25 33.07 208.96 36.87 C 211.13 39.76 211.14 43.59 210.57 46.99 C 209.67 51.03 206.21 53.80 202.76 55.71 C 208.70 56.58 214.41 60.99 215.44 67.11 C 216.14 71.46 216.00 76.26 213.49 80.04 C 210.10 85.75 203.33 88.31 197.03 88.99 C 188.62 89.01 180.20 89.03 171.79 88.95 C 171.79 69.65 171.80 50.35 171.79 31.05 M 179.65 38.00 C 179.64 43.33 179.65 48.67 179.65 54.00 C 185.94 53.49 192.63 55.24 198.61 52.69 C 204.32 50.47 204.65 39.96 198.07 38.72 C 192.10 37.13 185.77 38.40 179.65 38.00 M 179.65 61.00 C 179.65 68.00 179.65 75.00 179.65 82.00 C 187.64 81.48 196.27 83.57 203.66 79.62 C 208.11 77.05 208.60 71.23 207.16 66.79 C 205.76 63.15 201.65 61.74 198.14 61.06 C 191.98 60.88 185.81 61.06 179.65 61.00 Z" />
<path fill="#444444" opacity="1.00" d=" M 384.60 31.00 C 388.83 31.00 393.06 31.00 397.30 31.00 C 397.32 46.98 397.34 62.97 397.29 78.96 C 401.29 79.02 405.30 79.00 409.31 79.00 C 409.32 82.33 409.32 85.67 409.31 89.00 C 396.38 89.00 383.45 89.00 370.53 89.00 C 370.52 85.66 370.52 82.33 370.53 79.00 C 374.60 79.00 378.67 79.05 382.75 78.91 C 382.65 68.98 382.62 59.05 382.77 49.12 C 378.69 48.93 374.61 49.00 370.53 49.01 C 370.52 45.68 370.52 42.36 370.53 39.03 C 374.31 39.23 378.28 38.73 381.57 36.72 C 383.58 35.49 383.95 33.06 384.60 31.00 Z" />
<path fill="#444444" opacity="1.00" d=" M 219.82 88.94 C 225.58 73.32 231.13 57.62 236.89 42.01 C 239.61 42.01 242.34 41.87 245.06 42.12 C 250.98 57.64 256.34 73.38 262.18 88.94 C 260.00 88.79 257.53 89.53 255.52 88.57 C 253.80 84.48 252.72 80.16 251.06 76.05 C 244.69 75.98 238.31 75.97 231.94 76.01 C 230.34 75.57 230.23 77.46 229.79 78.44 C 228.70 82.01 227.37 85.49 226.12 89.00 C 224.02 89.00 221.92 88.98 219.82 88.94 M 232.40 70.89 C 237.98 71.10 243.57 71.00 249.15 70.96 C 246.55 63.19 243.79 55.48 240.96 47.79 C 237.74 55.35 235.47 63.27 232.40 70.89 Z" />
<path fill="#444444" opacity="1.00" d=" M 269.29 42.09 C 272.51 41.97 275.74 41.96 278.97 42.06 C 284.63 53.43 290.78 64.53 296.46 75.88 C 297.07 77.11 297.91 78.21 298.74 79.31 C 298.86 66.88 298.77 54.45 298.79 42.02 C 300.76 42.02 302.73 42.03 304.71 42.07 C 304.61 57.68 304.60 73.30 304.72 88.91 C 302.13 89.01 299.55 89.02 296.98 88.94 C 289.77 75.19 282.84 61.28 275.31 47.72 C 275.08 61.46 275.26 75.22 275.21 88.97 C 273.24 88.98 271.28 88.98 269.31 88.96 C 269.36 73.34 269.41 57.71 269.29 42.09 Z" />
<path fill="#444444" opacity="1.00" d=" M 311.80 88.93 C 317.63 73.33 323.10 57.60 328.90 41.99 C 331.64 42.00 334.37 42.00 337.11 42.00 C 342.84 57.64 348.40 73.33 354.18 88.94 C 351.99 88.82 349.57 89.47 347.53 88.60 C 345.82 84.49 344.72 80.16 343.05 76.04 C 336.27 75.94 329.49 76.06 322.71 75.97 C 321.20 80.32 319.71 84.69 318.11 89.01 C 316.00 89.00 313.90 88.97 311.80 88.93 M 332.81 47.86 C 329.86 55.48 327.40 63.28 324.39 70.88 C 329.98 71.10 335.58 71.00 341.17 70.95 C 338.41 63.24 336.01 55.39 332.81 47.86 Z" />
</g>
</svg>
