<?xml version="1.0" encoding="UTF-8" ?>
<!DOCTYPE svg PUBLIC "-//W3C//DTD SVG 1.1//EN" "http://www.w3.org/Graphics/SVG/1.1/DTD/svg11.dtd">
<svg width="573pt" height="439pt" viewBox="0 0 573 439" version="1.1" xmlns="http://www.w3.org/2000/svg">
<g id="#ffffffff">
<path fill="#ffffff" opacity="1.00" d=" M 0.00 0.00 L 151.76 0.00 C 101.07 91.27 50.65 182.69 0.00 273.97 L 0.00 0.00 Z" />
<path fill="#ffffff" opacity="1.00" d=" M 438.52 0.00 L 573.00 0.00 L 573.00 272.07 C 528.18 181.38 483.26 90.73 438.52 0.00 Z" />
<path fill="#ffffff" opacity="1.00" d=" M 155.97 10.50 C 159.28 9.72 162.69 10.00 166.05 9.99 C 255.56 9.99 345.06 9.99 434.56 9.99 C 434.75 32.33 434.81 54.68 434.72 77.03 C 434.25 86.13 434.61 95.25 434.49 104.36 C 341.66 104.36 248.83 104.37 156.00 104.36 C 155.98 73.07 156.04 41.79 155.97 10.50 M 171.78 31.06 C 171.80 50.35 171.80 69.65 171.78 88.94 C 178.88 89.08 185.97 88.96 193.07 89.01 C 199.26 89.33 205.82 87.69 210.60 83.57 C 215.74 79.07 216.93 71.47 214.91 65.16 C 213.05 60.08 208.05 56.28 202.66 55.83 C 204.97 54.46 207.27 52.91 208.85 50.68 C 211.24 47.60 211.20 43.34 210.42 39.70 C 208.62 34.02 202.43 31.90 197.12 31.02 C 188.67 30.99 180.23 30.95 171.78 31.06 M 384.51 31.05 C 384.15 37.96 376.04 39.44 370.53 39.01 C 370.52 42.34 370.52 45.67 370.53 49.00 C 374.59 49.01 378.65 48.96 382.72 49.05 C 382.66 59.02 382.66 68.98 382.72 78.95 C 378.65 79.04 374.59 78.99 370.53 79.00 C 370.52 82.33 370.52 85.66 370.53 89.00 C 383.45 89.00 396.38 89.00 409.31 89.00 C 409.32 85.66 409.32 82.33 409.31 79.00 C 405.30 78.99 401.29 79.03 397.29 78.96 C 397.35 62.98 397.30 46.99 397.31 31.00 C 393.04 31.01 388.77 30.96 384.51 31.05 M 236.88 42.01 C 231.11 57.62 225.65 73.34 219.77 88.91 C 221.88 88.97 223.99 89.01 226.10 89.02 C 227.70 84.70 229.22 80.36 230.68 75.99 C 237.47 76.04 244.26 75.94 251.06 76.05 C 252.77 80.33 253.91 84.83 255.76 89.05 C 257.91 89.01 260.07 88.97 262.22 88.91 C 256.36 73.33 250.86 57.61 245.10 41.99 C 242.36 42.00 239.62 42.00 236.88 42.01 M 269.32 42.05 C 269.36 57.68 269.40 73.30 269.30 88.93 C 271.27 88.98 273.24 88.99 275.22 88.96 C 275.25 75.20 275.10 61.45 275.30 47.70 C 276.08 48.86 276.80 50.07 277.45 51.33 C 277.47 51.38 277.53 51.49 277.56 51.55 L 278.44 53.35 C 278.47 53.41 278.52 53.52 278.55 53.57 L 279.46 55.34 C 279.48 55.40 279.54 55.51 279.57 55.56 C 282.98 61.78 286.05 68.17 289.46 74.39 C 289.48 74.44 289.54 74.55 289.57 74.61 L 290.45 76.38 C 290.48 76.44 290.54 76.55 290.57 76.60 L 291.45 78.33 C 291.48 78.39 291.54 78.49 291.56 78.54 C 293.53 81.94 295.14 85.53 297.04 88.96 C 299.59 89.02 302.14 89.01 304.70 88.93 C 304.60 73.29 304.66 57.65 304.66 42.01 C 302.70 42.01 300.74 42.02 298.78 42.05 C 298.77 54.65 298.86 67.25 298.73 79.85 C 295.05 73.57 292.05 66.91 288.51 60.55 C 288.49 60.50 288.43 60.40 288.40 60.34 L 287.52 58.58 C 287.50 58.52 287.44 58.41 287.41 58.35 L 286.55 56.67 C 286.52 56.61 286.46 56.50 286.43 56.44 C 283.85 51.69 281.36 46.90 278.97 42.06 C 275.75 41.97 272.53 41.97 269.32 42.05 M 328.88 42.01 C 323.11 57.62 317.66 73.34 311.77 88.91 C 313.87 88.97 315.98 89.01 318.09 89.03 C 319.74 84.71 321.18 80.31 322.74 75.95 C 329.51 76.08 336.28 75.91 343.06 76.05 C 344.77 80.33 345.92 84.81 347.75 89.04 C 349.87 89.01 351.99 88.99 354.12 88.95 C 348.50 73.29 342.78 57.66 337.12 42.01 C 334.37 41.99 331.62 42.00 328.88 42.01 Z" />
<path fill="#ffffff" opacity="1.00" d=" M 438.40 17.25 C 467.16 75.97 495.68 134.83 524.32 193.62 C 537.76 220.90 550.75 248.43 564.43 275.59 L 566.00 275.14 C 566.00 319.44 566.00 363.74 566.00 408.04 C 565.93 412.34 566.22 416.66 565.70 420.95 C 559.90 408.09 553.16 395.67 546.99 382.98 C 525.84 340.77 504.86 298.47 483.54 256.35 C 468.51 226.08 453.16 195.96 438.32 165.61 C 438.23 156.75 438.09 147.88 438.50 139.03 C 438.50 120.71 438.51 102.39 438.49 84.07 C 438.99 71.07 438.65 58.05 438.75 45.04 C 438.65 35.78 439.04 26.50 438.40 17.25 Z" />
<path fill="#ffffff" opacity="1.00" d=" M 8.65 278.06 C 56.43 191.61 104.23 105.17 151.94 18.69 C 152.10 66.46 151.93 114.22 152.02 161.99 C 151.93 163.46 152.27 165.10 151.41 166.42 C 103.33 252.99 55.11 339.48 7.06 426.07 C 6.93 376.58 7.03 327.10 7.01 277.61 C 7.42 277.72 8.24 277.94 8.65 278.06 Z" />
<path fill="#ffffff" opacity="1.00" d=" M 179.65 38.00 C 185.76 38.40 192.10 37.13 198.05 38.72 C 204.68 39.95 204.28 50.53 198.56 52.70 C 192.61 55.25 185.93 53.49 179.65 54.00 C 179.64 48.67 179.65 43.33 179.65 38.00 Z" />
<path fill="#ffffff" opacity="1.00" d=" M 232.46 70.98 C 235.37 63.30 237.74 55.40 240.96 47.84 C 243.88 55.48 246.43 63.25 249.24 70.93 C 243.65 71.07 238.05 70.99 232.46 70.98 Z" />
<path fill="#ffffff" opacity="1.00" d=" M 332.80 47.87 C 336.07 55.36 338.33 63.28 341.24 70.93 C 335.64 71.06 330.05 70.99 324.46 70.98 C 327.28 63.29 329.90 55.53 332.80 47.87 Z" />
<path fill="#ffffff" opacity="1.00" d=" M 179.65 61.00 C 185.78 61.04 191.92 60.93 198.05 61.03 C 201.85 61.74 206.44 63.43 207.44 67.65 C 208.04 71.00 208.32 75.08 205.78 77.75 C 203.42 80.64 199.53 81.28 196.08 81.98 C 190.61 82.06 185.13 81.97 179.65 82.00 C 179.65 75.00 179.65 68.00 179.65 61.00 Z" />
<path fill="#ffffff" opacity="1.00" d=" M 156.00 105.64 C 248.83 105.64 341.66 105.64 434.49 105.64 C 434.35 118.76 434.83 131.89 434.21 145.00 C 341.47 145.00 248.74 145.00 156.01 145.00 C 155.99 131.88 156.00 118.76 156.00 105.64 Z" />
<path fill="#ffffff" opacity="1.00" d=" M 156.01 148.00 C 248.76 148.00 341.50 148.00 434.25 148.00 C 434.24 153.33 434.25 158.66 434.25 164.00 C 341.50 164.00 248.75 164.00 156.00 164.00 C 156.00 158.67 155.99 153.33 156.01 148.00 Z" />
</g>
<g id="#000000ff">
<path fill="#000000" opacity="1.00" d=" M 151.76 0.00 L 438.52 0.00 C 483.26 90.73 528.18 181.38 573.00 272.07 L 573.00 439.00 L 0.00 439.00 L 0.00 273.97 C 50.65 182.69 101.07 91.27 151.76 0.00 M 156.00 7.00 C 155.99 8.17 155.98 9.33 155.97 10.50 C 156.04 41.79 155.98 73.07 156.00 104.36 C 248.83 104.37 341.66 104.36 434.49 104.36 C 434.61 95.25 434.25 86.13 434.72 77.03 C 434.81 54.68 434.75 32.33 434.56 9.99 C 434.51 9.23 434.42 7.70 434.37 6.94 C 341.58 7.08 248.79 6.96 156.00 7.00 M 438.06 9.81 C 438.59 12.20 438.61 14.64 438.29 17.05 L 438.40 17.25 C 439.04 26.50 438.65 35.78 438.75 45.04 C 438.65 58.05 438.99 71.07 438.49 84.07 C 438.51 102.39 438.50 120.71 438.50 139.03 C 438.09 147.88 438.23 156.75 438.32 165.61 C 453.16 195.96 468.51 226.08 483.54 256.35 C 504.86 298.47 525.84 340.77 546.99 382.98 C 553.16 395.67 559.90 408.09 565.70 420.95 C 566.22 416.66 565.93 412.34 566.00 408.04 C 566.00 363.74 566.00 319.44 566.00 275.14 L 567.08 274.80 C 552.90 244.55 537.87 214.68 523.40 184.56 C 501.32 139.29 479.30 93.99 457.25 48.71 C 450.78 35.78 444.87 22.56 438.06 9.81 M 147.81 19.80 C 100.67 105.05 53.60 190.36 6.43 275.60 C 5.76 276.53 5.96 277.20 7.01 277.61 C 7.03 327.10 6.93 376.58 7.06 426.07 C 55.11 339.48 103.33 252.99 151.41 166.42 C 152.27 165.10 151.93 163.46 152.02 161.99 C 151.93 114.22 152.10 66.46 151.94 18.69 C 152.15 16.75 151.99 14.78 151.90 12.84 C 150.26 14.99 149.10 17.44 147.81 19.80 M 156.00 105.64 C 156.00 118.76 155.99 131.88 156.01 145.00 C 156.01 145.75 156.01 147.25 156.01 148.00 C 155.99 153.33 156.00 158.67 156.00 164.00 C 248.75 164.00 341.50 164.00 434.25 164.00 C 434.25 158.66 434.24 153.33 434.25 148.00 C 434.24 147.25 434.22 145.75 434.21 145.00 C 434.83 131.89 434.35 118.76 434.49 105.64 C 341.66 105.64 248.83 105.64 156.00 105.64 M 154.40 169.04 C 135.33 203.76 115.84 238.27 96.75 272.98 C 96.24 273.98 95.71 274.98 95.18 275.98 C 85.22 293.15 75.86 310.67 66.07 327.95 C 65.68 328.96 65.29 329.97 64.91 330.99 L 64.28 330.99 C 45.84 364.77 26.87 398.26 8.29 431.96 C 102.86 432.04 197.43 431.99 292.00 431.99 C 292.75 431.99 294.25 431.99 295.00 431.99 C 385.34 432.01 475.68 432.00 566.01 432.00 C 566.00 431.35 565.97 430.05 565.96 429.41 C 550.62 398.99 535.24 368.59 520.05 338.10 C 518.57 335.32 517.48 332.31 515.54 329.81 L 515.89 329.78 C 515.35 328.83 514.83 327.88 514.31 326.94 C 506.07 309.85 497.51 292.89 488.88 275.99 C 488.35 274.97 487.82 273.95 487.32 272.93 C 470.32 238.21 452.77 203.73 435.56 169.11 C 341.84 168.88 248.12 169.02 154.40 169.04 Z" />
</g>
<g id="#c13134ff">
<path fill="#c13134" opacity="1.00" d=" M 156.00 7.00 C 248.79 6.96 341.58 7.08 434.37 6.94 C 434.42 7.70 434.51 9.23 434.56 9.99 C 345.06 9.99 255.56 9.99 166.05 9.99 C 162.69 10.00 159.28 9.72 155.97 10.50 C 155.98 9.33 155.99 8.17 156.00 7.00 Z" />
<path fill="#c13134" opacity="1.00" d=" M 438.06 9.81 C 444.87 22.56 450.78 35.78 457.25 48.71 C 479.30 93.99 501.32 139.29 523.40 184.56 C 537.87 214.68 552.90 244.55 567.08 274.80 L 566.00 275.14 L 564.43 275.59 C 550.75 248.43 537.76 220.90 524.32 193.62 C 495.68 134.83 467.16 75.97 438.40 17.25 L 438.29 17.05 C 438.61 14.64 438.59 12.20 438.06 9.81 Z" />
<path fill="#c13134" opacity="1.00" d=" M 147.81 19.80 C 149.10 17.44 150.26 14.99 151.90 12.84 C 151.99 14.78 152.15 16.75 151.94 18.69 C 104.23 105.17 56.43 191.61 8.65 278.06 C 8.24 277.94 7.42 277.72 7.01 277.61 C 5.96 277.20 5.76 276.53 6.43 275.60 C 53.60 190.36 100.67 105.05 147.81 19.80 Z" />
<path fill="#c13134" opacity="1.00" d=" M 156.01 145.00 C 248.74 145.00 341.47 145.00 434.21 145.00 C 434.22 145.75 434.24 147.25 434.25 148.00 C 341.50 148.00 248.76 148.00 156.01 148.00 C 156.01 147.25 156.01 145.75 156.01 145.00 Z" />
<path fill="#c13134" opacity="1.00" d=" M 96.75 272.98 C 226.94 272.98 357.13 273.08 487.32 272.93 C 487.82 273.95 488.35 274.97 488.88 275.99 C 456.92 276.02 424.97 275.98 393.01 276.01 C 392.99 293.00 392.99 310.00 393.01 326.99 C 433.44 326.97 473.88 327.08 514.31 326.94 C 514.83 327.88 515.35 328.83 515.89 329.78 L 515.54 329.81 C 473.70 330.26 431.84 329.87 390.00 330.00 C 390.00 312.00 390.01 294.01 389.99 276.01 C 358.33 276.00 326.67 275.99 295.01 276.01 C 294.99 328.00 295.01 380.00 295.00 431.99 C 294.25 431.99 292.75 431.99 292.00 431.99 C 291.99 380.00 292.01 328.00 291.99 276.01 C 259.00 275.99 226.00 276.00 193.01 276.01 C 192.99 294.34 193.00 312.67 193.00 331.00 C 150.30 330.99 107.61 331.02 64.91 330.99 C 65.29 329.97 65.68 328.96 66.07 327.95 C 107.38 328.06 148.69 327.98 189.99 327.99 C 190.00 310.66 190.00 293.34 189.99 276.01 C 158.39 275.98 126.78 276.03 95.18 275.98 C 95.71 274.98 96.24 273.98 96.75 272.98 Z" />
</g>
<g id="#444444ff">
<path fill="#444444" opacity="1.00" d=" M 171.78 31.06 C 180.23 30.95 188.67 30.99 197.12 31.02 C 202.43 31.90 208.62 34.02 210.42 39.70 C 211.20 43.34 211.24 47.60 208.85 50.68 C 207.27 52.91 204.97 54.46 202.66 55.83 C 208.05 56.28 213.05 60.08 214.91 65.16 C 216.93 71.47 215.74 79.07 210.60 83.57 C 205.82 87.69 199.26 89.33 193.07 89.01 C 185.97 88.96 178.88 89.08 171.78 88.94 C 171.80 69.65 171.80 50.35 171.78 31.06 M 179.65 38.00 C 179.65 43.33 179.64 48.67 179.65 54.00 C 185.93 53.49 192.61 55.25 198.56 52.70 C 204.28 50.53 204.68 39.95 198.05 38.72 C 192.10 37.13 185.76 38.40 179.65 38.00 M 179.65 61.00 C 179.65 68.00 179.65 75.00 179.65 82.00 C 185.13 81.97 190.61 82.06 196.08 81.98 C 199.53 81.28 203.42 80.64 205.78 77.75 C 208.32 75.08 208.04 71.00 207.44 67.65 C 206.44 63.43 201.85 61.74 198.05 61.03 C 191.92 60.93 185.78 61.04 179.65 61.00 Z" />
<path fill="#444444" opacity="1.00" d=" M 384.51 31.05 C 388.77 30.96 393.04 31.01 397.31 31.00 C 397.30 46.99 397.35 62.98 397.29 78.96 C 401.29 79.03 405.30 78.99 409.31 79.00 C 409.32 82.33 409.32 85.66 409.31 89.00 C 396.38 89.00 383.45 89.00 370.53 89.00 C 370.52 85.66 370.52 82.33 370.53 79.00 C 374.59 78.99 378.65 79.04 382.72 78.95 C 382.66 68.98 382.66 59.02 382.72 49.05 C 378.65 48.96 374.59 49.01 370.53 49.00 C 370.52 45.67 370.52 42.34 370.53 39.01 C 376.04 39.44 384.15 37.96 384.51 31.05 Z" />
<path fill="#444444" opacity="1.00" d=" M 236.88 42.01 C 239.62 42.00 242.36 42.00 245.10 41.99 C 250.86 57.61 256.36 73.33 262.22 88.91 C 260.07 88.97 257.91 89.01 255.76 89.05 C 253.91 84.83 252.77 80.33 251.06 76.05 C 244.26 75.94 237.47 76.04 230.68 75.99 C 229.22 80.36 227.70 84.70 226.10 89.02 C 223.99 89.01 221.88 88.97 219.77 88.91 C 225.65 73.34 231.11 57.62 236.88 42.01 M 232.46 70.98 C 238.05 70.99 243.65 71.07 249.24 70.93 C 246.43 63.25 243.88 55.48 240.96 47.84 C 237.74 55.40 235.37 63.30 232.46 70.98 Z" />
<path fill="#444444" opacity="1.00" d=" M 269.32 42.05 C 272.53 41.97 275.75 41.97 278.97 42.06 C 281.36 46.90 283.85 51.69 286.43 56.44 C 286.46 56.50 286.52 56.61 286.55 56.67 L 287.41 58.35 C 287.44 58.41 287.50 58.52 287.52 58.58 L 288.40 60.34 C 288.43 60.40 288.49 60.50 288.51 60.55 C 292.05 66.91 295.05 73.57 298.73 79.85 C 298.86 67.25 298.77 54.65 298.78 42.05 C 300.74 42.02 302.70 42.01 304.66 42.01 C 304.66 57.65 304.60 73.29 304.70 88.93 C 302.14 89.01 299.59 89.02 297.04 88.96 C 295.14 85.53 293.53 81.94 291.56 78.54 C 291.54 78.49 291.48 78.39 291.45 78.33 L 290.57 76.60 C 290.54 76.55 290.48 76.44 290.45 76.38 L 289.57 74.61 C 289.54 74.55 289.48 74.44 289.46 74.39 C 286.05 68.17 282.98 61.78 279.57 55.56 C 279.54 55.51 279.48 55.40 279.46 55.34 L 278.55 53.57 C 278.52 53.52 278.47 53.41 278.44 53.35 L 277.56 51.55 C 277.53 51.49 277.47 51.38 277.45 51.33 C 276.80 50.07 276.08 48.86 275.30 47.70 C 275.10 61.45 275.25 75.20 275.22 88.96 C 273.24 88.99 271.27 88.98 269.30 88.93 C 269.40 73.30 269.36 57.68 269.32 42.05 Z" />
<path fill="#444444" opacity="1.00" d=" M 328.88 42.01 C 331.62 42.00 334.37 41.99 337.12 42.01 C 342.78 57.66 348.50 73.29 354.12 88.95 C 351.99 88.99 349.87 89.01 347.75 89.04 C 345.92 84.81 344.77 80.33 343.06 76.05 C 336.28 75.91 329.51 76.08 322.74 75.95 C 321.18 80.31 319.74 84.71 318.09 89.03 C 315.98 89.01 313.87 88.97 311.77 88.91 C 317.66 73.34 323.11 57.62 328.88 42.01 M 332.80 47.87 C 329.90 55.53 327.28 63.29 324.46 70.98 C 330.05 70.99 335.64 71.06 341.24 70.93 C 338.33 63.28 336.07 55.36 332.80 47.87 Z" />
</g>
<g id="#90ee90ff">
<path fill="#90ee90" opacity="1.00" d=" M 277.45 51.33 C 277.47 51.38 277.53 51.49 277.56 51.55 C 277.53 51.49 277.47 51.38 277.45 51.33 Z" />
<path fill="#90ee90" opacity="1.00" d=" M 278.44 53.35 C 278.47 53.41 278.52 53.52 278.55 53.57 C 278.52 53.52 278.47 53.41 278.44 53.35 Z" />
<path fill="#90ee90" opacity="1.00" d=" M 279.46 55.34 C 279.48 55.40 279.54 55.51 279.57 55.56 C 279.54 55.51 279.48 55.40 279.46 55.34 Z" />
<path fill="#90ee90" opacity="1.00" d=" M 286.43 56.44 C 286.46 56.50 286.52 56.61 286.55 56.67 C 286.52 56.61 286.46 56.50 286.43 56.44 Z" />
<path fill="#90ee90" opacity="1.00" d=" M 287.41 58.35 C 287.44 58.41 287.50 58.52 287.52 58.58 C 287.50 58.52 287.44 58.41 287.41 58.35 Z" />
<path fill="#90ee90" opacity="1.00" d=" M 288.40 60.34 C 288.43 60.40 288.49 60.50 288.51 60.55 C 288.49 60.50 288.43 60.40 288.40 60.34 Z" />
<path fill="#90ee90" opacity="1.00" d=" M 289.46 74.39 C 289.48 74.44 289.54 74.55 289.57 74.61 C 289.54 74.55 289.48 74.44 289.46 74.39 Z" />
<path fill="#90ee90" opacity="1.00" d=" M 290.45 76.38 C 290.48 76.44 290.54 76.55 290.57 76.60 C 290.54 76.55 290.48 76.44 290.45 76.38 Z" />
<path fill="#90ee90" opacity="1.00" d=" M 291.45 78.33 C 291.48 78.39 291.54 78.49 291.56 78.54 C 291.54 78.49 291.48 78.39 291.45 78.33 Z" />
<path fill="#90ee90" opacity="1.00" d=" M 154.40 169.04 C 248.12 169.02 341.84 168.88 435.56 169.11 C 452.77 203.73 470.32 238.21 487.32 272.93 C 357.13 273.08 226.94 272.98 96.75 272.98 C 115.84 238.27 135.33 203.76 154.40 169.04 Z" />
<path fill="#90ee90" opacity="1.00" d=" M 95.18 275.98 C 126.78 276.03 158.39 275.98 189.99 276.01 C 190.00 293.34 190.00 310.66 189.99 327.99 C 148.69 327.98 107.38 328.06 66.07 327.95 C 75.86 310.67 85.22 293.15 95.18 275.98 Z" />
<path fill="#90ee90" opacity="1.00" d=" M 193.01 276.01 C 226.00 276.00 259.00 275.99 291.99 276.01 C 292.01 328.00 291.99 380.00 292.00 431.99 C 197.43 431.99 102.86 432.04 8.29 431.96 C 26.87 398.26 45.84 364.77 64.28 330.99 L 64.91 330.99 C 107.61 331.02 150.30 330.99 193.00 331.00 C 193.00 312.67 192.99 294.34 193.01 276.01 Z" />
<path fill="#90ee90" opacity="1.00" d=" M 295.01 276.01 C 326.67 275.99 358.33 276.00 389.99 276.01 C 390.01 294.01 390.00 312.00 390.00 330.00 C 431.84 329.87 473.70 330.26 515.54 329.81 C 517.48 332.31 518.57 335.32 520.05 338.10 C 535.24 368.59 550.62 398.99 565.96 429.41 C 565.97 430.05 566.00 431.35 566.01 432.00 C 475.68 432.00 385.34 432.01 295.00 431.99 C 295.01 380.00 294.99 328.00 295.01 276.01 Z" />
<path fill="#90ee90" opacity="1.00" d=" M 393.01 276.01 C 424.97 275.98 456.92 276.02 488.88 275.99 C 497.51 292.89 506.07 309.85 514.31 326.94 C 473.88 327.08 433.44 326.97 393.01 326.99 C 392.99 310.00 392.99 293.00 393.01 276.01 Z" />
</g>
</svg>
