<?xml version="1.0" encoding="UTF-8" ?>
<!DOCTYPE svg PUBLIC "-//W3C//DTD SVG 1.1//EN" "http://www.w3.org/Graphics/SVG/1.1/DTD/svg11.dtd">
<svg width="573pt" height="439pt" viewBox="0 0 573 439" version="1.1" xmlns="http://www.w3.org/2000/svg">
<g id="#ffffffff">
<path fill="#ffffff" opacity="1.00" d=" M 0.00 0.00 L 151.77 0.00 C 103.90 86.13 56.31 172.42 8.53 258.60 C 5.72 263.66 3.00 268.77 0.00 273.72 L 0.00 0.00 Z" />
<path fill="#ffffff" opacity="1.00" d=" M 438.71 0.00 L 573.00 0.00 L 573.00 271.99 C 536.74 198.89 500.69 125.69 464.44 52.58 C 456.02 34.98 446.85 17.74 438.71 0.00 Z" />
<path fill="#ffffff" opacity="1.00" d=" M 156.11 10.15 C 196.74 9.77 237.38 10.09 278.01 9.98 C 330.17 9.98 382.33 9.98 434.50 9.99 C 435.01 41.43 434.62 72.89 434.47 104.34 C 341.65 104.35 248.82 104.37 156.00 104.34 C 156.07 72.94 155.85 41.54 156.11 10.15 M 171.81 31.05 C 171.78 50.35 171.77 69.65 171.81 88.95 C 179.88 89.05 187.96 88.99 196.03 89.01 C 202.80 88.65 210.18 85.89 213.68 79.71 C 216.15 75.77 216.16 70.82 215.30 66.40 C 213.93 60.63 208.54 56.71 202.90 55.66 C 205.91 53.85 208.97 51.61 210.24 48.19 C 211.60 43.66 211.10 38.03 207.16 34.91 C 203.16 31.90 197.97 30.78 193.03 30.97 C 185.95 31.06 178.88 30.92 171.81 31.05 M 384.51 31.14 C 383.85 33.10 383.57 35.49 381.63 36.66 C 378.37 38.78 374.35 39.11 370.57 39.07 C 370.49 42.38 370.48 45.69 370.55 49.01 C 374.61 48.98 378.66 48.97 382.72 49.08 C 382.64 59.03 382.66 68.98 382.71 78.93 C 378.66 79.02 374.60 79.01 370.55 78.99 C 370.49 82.33 370.49 85.67 370.55 89.00 C 383.47 88.99 396.38 89.02 409.30 88.99 C 409.34 85.66 409.34 82.33 409.30 79.01 C 405.29 79.01 401.28 79.03 397.28 78.92 C 397.35 62.95 397.34 46.98 397.29 31.01 C 393.03 31.00 388.76 30.89 384.51 31.14 M 236.89 42.02 C 231.13 57.63 225.56 73.32 219.84 88.95 C 221.93 88.97 224.02 88.98 226.11 88.99 C 227.98 84.82 228.76 79.99 231.00 76.13 C 237.66 75.80 244.35 76.06 251.02 76.05 C 252.95 80.22 253.58 85.01 255.96 88.92 C 258.02 89.11 260.08 88.99 262.14 88.94 C 256.46 73.30 250.83 57.64 245.11 42.02 C 242.36 41.99 239.62 41.99 236.89 42.02 M 269.32 42.06 C 269.34 57.67 269.41 73.28 269.28 88.89 C 271.24 88.93 273.21 88.98 275.18 89.01 C 275.33 75.26 275.04 61.51 275.32 47.77 C 282.90 61.31 289.74 75.26 297.02 88.96 C 299.58 89.01 302.14 89.00 304.70 88.93 C 304.63 73.30 304.63 57.68 304.69 42.06 C 302.73 42.04 300.77 42.03 298.81 42.02 C 298.71 54.47 298.91 66.93 298.71 79.38 C 296.39 76.18 294.83 72.54 292.99 69.06 C 288.31 60.06 283.53 51.11 278.93 42.06 C 275.73 41.97 272.52 41.97 269.32 42.06 M 328.88 42.02 C 323.14 57.64 317.56 73.31 311.84 88.94 C 313.93 88.97 316.01 88.99 318.10 89.01 C 319.68 84.77 321.24 80.51 322.50 76.16 C 329.33 75.83 336.18 76.03 343.03 76.05 C 344.79 80.33 345.91 84.85 347.80 89.08 C 349.91 89.03 352.02 88.97 354.13 88.93 C 348.46 73.29 342.82 57.64 337.11 42.02 C 334.36 41.99 331.62 41.99 328.88 42.02 Z" />
<path fill="#ffffff" opacity="1.00" d=" M 438.64 18.06 C 442.71 25.57 446.24 33.34 450.04 40.98 C 488.11 119.17 526.14 197.38 564.24 275.55 C 564.68 275.45 565.54 275.24 565.97 275.13 C 566.04 304.09 565.98 333.06 566.00 362.02 C 565.82 381.49 566.35 400.98 565.73 420.43 C 527.45 343.71 488.94 267.10 450.58 190.41 C 446.60 182.20 442.23 174.16 438.46 165.87 C 438.04 157.28 438.22 148.64 438.47 140.04 C 438.69 117.69 438.21 95.34 438.77 73.00 C 438.69 54.69 438.89 36.37 438.64 18.06 Z" />
<path fill="#ffffff" opacity="1.00" d=" M 13.11 270.03 C 59.39 186.37 105.47 102.61 151.89 19.03 C 152.15 64.38 151.93 109.73 152.00 155.07 C 151.64 159.27 153.05 163.95 150.71 167.75 C 102.77 253.76 55.02 339.89 7.06 425.90 C 6.97 376.73 6.94 327.56 7.08 278.39 C 10.38 276.79 11.26 272.89 13.11 270.03 Z" />
<path fill="#ffffff" opacity="1.00" d=" M 179.69 38.01 C 184.79 38.06 189.91 37.86 195.02 38.06 C 197.73 38.35 200.95 39.24 202.28 41.87 C 203.80 45.93 202.50 51.63 197.90 52.98 C 192.08 55.04 185.72 53.57 179.68 53.99 C 179.64 48.66 179.63 43.33 179.69 38.01 Z" />
<path fill="#ffffff" opacity="1.00" d=" M 232.50 70.98 C 235.30 63.32 237.75 55.51 240.92 47.99 C 243.93 55.54 246.53 63.25 249.12 70.95 C 243.58 71.04 238.04 71.01 232.50 70.98 Z" />
<path fill="#ffffff" opacity="1.00" d=" M 324.52 70.98 C 327.30 63.36 329.68 55.56 332.92 48.11 C 336.02 55.58 338.47 63.30 341.16 70.93 C 335.61 71.06 330.06 71.00 324.52 70.98 Z" />
<path fill="#ffffff" opacity="1.00" d=" M 179.69 61.01 C 185.12 61.01 190.55 60.98 195.98 60.98 C 199.22 60.94 202.51 61.95 205.09 63.93 C 208.22 66.48 208.10 71.04 207.49 74.66 C 206.10 79.60 200.62 81.40 196.04 81.92 C 190.59 82.17 185.13 81.92 179.68 81.99 C 179.64 74.99 179.62 68.00 179.69 61.01 Z" />
<path fill="#ffffff" opacity="1.00" d=" M 156.01 105.66 C 248.82 105.63 341.64 105.65 434.46 105.65 C 434.36 118.76 434.82 131.90 434.19 145.00 C 341.46 145.00 248.74 145.00 156.01 145.00 C 155.99 131.89 156.00 118.77 156.01 105.66 Z" />
<path fill="#ffffff" opacity="1.00" d=" M 156.01 148.00 C 248.75 148.00 341.49 148.00 434.23 148.00 C 434.24 153.33 434.25 158.66 434.23 163.99 C 341.49 164.01 248.75 164.00 156.01 163.99 C 155.99 158.66 155.99 153.33 156.01 148.00 Z" />
</g>
<g id="#abababff">
<path fill="#ababab" opacity="1.00" d=" M 151.77 0.00 L 438.71 0.00 C 446.85 17.74 456.02 34.98 464.44 52.58 C 500.69 125.69 536.74 198.89 573.00 271.99 L 573.00 439.00 L 0.00 439.00 L 0.00 273.72 C 3.00 268.77 5.72 263.66 8.53 258.60 C 56.31 172.42 103.90 86.13 151.77 0.00 M 155.92 7.01 C 155.97 7.79 156.06 9.36 156.11 10.15 C 155.85 41.54 156.07 72.94 156.00 104.34 C 248.82 104.37 341.65 104.35 434.47 104.34 C 434.62 72.89 435.01 41.43 434.50 9.99 C 434.47 9.24 434.41 7.74 434.38 6.99 C 341.56 7.01 248.74 6.96 155.92 7.01 M 147.39 20.58 C 101.10 104.26 54.93 188.00 8.60 271.66 C 7.75 273.76 4.96 276.23 7.08 278.39 C 6.94 327.56 6.97 376.73 7.06 425.90 C 55.02 339.89 102.77 253.76 150.71 167.75 C 153.05 163.95 151.64 159.27 152.00 155.07 C 151.93 109.73 152.15 64.38 151.89 19.03 C 152.30 16.97 151.92 14.84 151.85 12.76 C 150.23 15.29 148.81 17.93 147.39 20.58 M 438.73 12.04 C 438.65 14.02 438.12 16.11 438.64 18.06 C 438.89 36.37 438.69 54.69 438.77 73.00 C 438.21 95.34 438.69 117.69 438.47 140.04 C 438.22 148.64 438.04 157.28 438.46 165.87 C 442.23 174.16 446.60 182.20 450.58 190.41 C 488.94 267.10 527.45 343.71 565.73 420.43 C 566.35 400.98 565.82 381.49 566.00 362.02 C 565.98 333.06 566.04 304.09 565.97 275.13 L 567.04 274.90 C 563.50 266.12 558.85 257.84 554.85 249.26 C 516.66 170.75 478.44 92.25 440.22 13.76 C 439.85 13.33 439.11 12.47 438.73 12.04 M 156.01 105.66 C 156.00 118.77 155.99 131.89 156.01 145.00 C 156.01 145.75 156.01 147.25 156.01 148.00 C 155.99 153.33 155.99 158.66 156.01 163.99 C 248.75 164.00 341.49 164.01 434.23 163.99 C 434.25 158.66 434.24 153.33 434.23 148.00 C 434.22 147.25 434.20 145.75 434.19 145.00 C 434.82 131.90 434.36 118.76 434.46 105.65 C 341.64 105.65 248.82 105.63 156.01 105.66 M 154.38 169.09 C 135.29 203.79 115.83 238.30 96.74 273.00 C 96.22 274.00 95.69 275.00 95.15 275.99 C 85.22 293.19 75.81 310.71 66.05 328.01 C 65.69 329.01 65.31 330.00 64.91 330.99 L 64.28 330.98 C 45.94 364.79 26.68 398.12 8.47 431.99 C 102.97 432.00 197.48 432.01 291.98 431.99 C 292.74 431.98 294.25 431.98 295.00 431.98 C 385.40 432.01 475.79 432.01 566.19 431.98 C 565.94 430.32 565.64 428.65 564.81 427.18 C 548.47 394.80 532.26 362.35 515.89 329.98 C 515.35 328.97 514.83 327.96 514.33 326.94 C 506.08 309.85 497.51 292.90 488.90 275.98 C 488.36 274.97 487.84 273.96 487.36 272.94 C 470.54 238.77 453.38 204.76 436.32 170.71 C 435.86 168.61 433.55 169.03 431.95 168.97 C 339.43 169.10 246.90 168.86 154.38 169.09 Z" />
</g>
<g id="#eababbff">
<path fill="#eababb" opacity="1.00" d=" M 155.92 7.01 C 248.74 6.96 341.56 7.01 434.38 6.99 C 434.41 7.74 434.47 9.24 434.50 9.99 C 382.33 9.98 330.17 9.98 278.01 9.98 C 237.38 10.09 196.74 9.77 156.11 10.15 C 156.06 9.36 155.97 7.79 155.92 7.01 Z" />
<path fill="#eababb" opacity="1.00" d=" M 147.39 20.58 C 148.81 17.93 150.23 15.29 151.85 12.76 C 151.92 14.84 152.30 16.97 151.89 19.03 C 105.47 102.61 59.39 186.37 13.11 270.03 C 11.26 272.89 10.38 276.79 7.08 278.39 C 4.96 276.23 7.75 273.76 8.60 271.66 C 54.93 188.00 101.10 104.26 147.39 20.58 Z" />
<path fill="#eababb" opacity="1.00" d=" M 438.73 12.04 C 439.11 12.47 439.85 13.33 440.22 13.76 C 478.44 92.25 516.66 170.75 554.85 249.26 C 558.85 257.84 563.50 266.12 567.04 274.90 L 565.97 275.13 C 565.54 275.24 564.68 275.45 564.24 275.55 C 526.14 197.38 488.11 119.17 450.04 40.98 C 446.24 33.34 442.71 25.57 438.64 18.06 C 438.12 16.11 438.65 14.02 438.73 12.04 Z" />
<path fill="#eababb" opacity="1.00" d=" M 156.01 145.00 C 248.74 145.00 341.46 145.00 434.19 145.00 C 434.20 145.75 434.22 147.25 434.23 148.00 C 341.49 148.00 248.75 148.00 156.01 148.00 C 156.01 147.25 156.01 145.75 156.01 145.00 Z" />
<path fill="#eababb" opacity="1.00" d=" M 96.74 273.00 C 226.95 272.90 357.15 273.02 487.36 272.94 C 487.84 273.96 488.36 274.97 488.90 275.98 C 456.95 276.14 425.00 275.91 393.06 276.09 C 393.04 293.02 392.97 309.94 393.11 326.87 C 433.51 327.08 473.93 326.94 514.33 326.94 C 514.83 327.96 515.35 328.97 515.89 329.98 C 473.93 330.04 431.98 330.11 390.02 329.98 C 389.85 312.01 390.08 294.04 389.89 276.07 C 358.29 276.02 326.68 275.98 295.08 276.09 C 294.95 328.05 295.09 380.02 295.00 431.98 C 294.25 431.98 292.74 431.98 291.98 431.99 C 291.91 380.01 292.06 328.03 291.90 276.05 C 258.96 276.04 226.02 275.98 193.08 276.09 C 192.89 294.38 193.19 312.68 192.95 330.98 C 150.27 331.08 107.59 331.05 64.91 330.99 C 65.31 330.00 65.69 329.01 66.05 328.01 C 107.34 327.85 148.63 328.07 189.92 327.90 C 189.98 310.62 190.03 293.34 189.93 276.06 C 158.33 275.97 126.74 276.10 95.15 275.99 C 95.69 275.00 96.22 274.00 96.74 273.00 Z" />
</g>
<g id="#c1c1c1ff">
<path fill="#c1c1c1" opacity="1.00" d=" M 171.81 31.05 C 178.88 30.92 185.95 31.06 193.03 30.97 C 197.97 30.78 203.16 31.90 207.16 34.91 C 211.10 38.03 211.60 43.66 210.24 48.19 C 208.97 51.61 205.91 53.85 202.90 55.66 C 208.54 56.71 213.93 60.63 215.30 66.40 C 216.16 70.82 216.15 75.77 213.68 79.71 C 210.18 85.89 202.80 88.65 196.03 89.01 C 187.96 88.99 179.88 89.05 171.81 88.95 C 171.77 69.65 171.78 50.35 171.81 31.05 M 179.69 38.01 C 179.63 43.33 179.64 48.66 179.68 53.99 C 185.72 53.57 192.08 55.04 197.90 52.98 C 202.50 51.63 203.80 45.93 202.28 41.87 C 200.95 39.24 197.73 38.35 195.02 38.06 C 189.91 37.86 184.79 38.06 179.69 38.01 M 179.69 61.01 C 179.62 68.00 179.64 74.99 179.68 81.99 C 185.13 81.92 190.59 82.17 196.04 81.92 C 200.62 81.40 206.10 79.60 207.49 74.66 C 208.10 71.04 208.22 66.48 205.09 63.93 C 202.51 61.95 199.22 60.94 195.98 60.98 C 190.55 60.98 185.12 61.01 179.69 61.01 Z" />
<path fill="#c1c1c1" opacity="1.00" d=" M 384.51 31.14 C 388.76 30.89 393.03 31.00 397.29 31.01 C 397.34 46.98 397.35 62.95 397.28 78.92 C 401.28 79.03 405.29 79.01 409.30 79.01 C 409.34 82.33 409.34 85.66 409.30 88.99 C 396.38 89.02 383.47 88.99 370.55 89.00 C 370.49 85.67 370.49 82.33 370.55 78.99 C 374.60 79.01 378.66 79.02 382.71 78.93 C 382.66 68.98 382.64 59.03 382.72 49.08 C 378.66 48.97 374.61 48.98 370.55 49.01 C 370.48 45.69 370.49 42.38 370.57 39.07 C 374.35 39.11 378.37 38.78 381.63 36.66 C 383.57 35.49 383.85 33.10 384.51 31.14 Z" />
<path fill="#c1c1c1" opacity="1.00" d=" M 236.89 42.02 C 239.62 41.99 242.36 41.99 245.11 42.02 C 250.83 57.64 256.46 73.30 262.14 88.94 C 260.08 88.99 258.02 89.11 255.96 88.92 C 253.58 85.01 252.95 80.22 251.02 76.05 C 244.35 76.06 237.66 75.80 231.00 76.13 C 228.76 79.99 227.98 84.82 226.11 88.99 C 224.02 88.98 221.93 88.97 219.84 88.95 C 225.56 73.32 231.13 57.63 236.89 42.02 M 232.50 70.98 C 238.04 71.01 243.58 71.04 249.12 70.95 C 246.53 63.25 243.93 55.54 240.92 47.99 C 237.75 55.51 235.30 63.32 232.50 70.98 Z" />
<path fill="#c1c1c1" opacity="1.00" d=" M 269.32 42.06 C 272.52 41.97 275.73 41.97 278.93 42.06 C 283.53 51.11 288.31 60.06 292.99 69.06 C 294.83 72.54 296.39 76.18 298.71 79.38 C 298.91 66.93 298.71 54.47 298.81 42.02 C 300.77 42.03 302.73 42.04 304.69 42.06 C 304.63 57.68 304.63 73.30 304.70 88.93 C 302.14 89.00 299.58 89.01 297.02 88.96 C 289.74 75.26 282.90 61.31 275.32 47.77 C 275.04 61.51 275.33 75.26 275.18 89.01 C 273.21 88.98 271.24 88.93 269.28 88.89 C 269.41 73.28 269.34 57.67 269.32 42.06 Z" />
<path fill="#c1c1c1" opacity="1.00" d=" M 328.88 42.02 C 331.62 41.99 334.36 41.99 337.11 42.02 C 342.82 57.64 348.46 73.29 354.13 88.93 C 352.02 88.97 349.91 89.03 347.80 89.08 C 345.91 84.85 344.79 80.33 343.03 76.05 C 336.18 76.03 329.33 75.83 322.50 76.16 C 321.24 80.51 319.68 84.77 318.10 89.01 C 316.01 88.99 313.93 88.97 311.84 88.94 C 317.56 73.31 323.14 57.64 328.88 42.02 M 324.52 70.98 C 330.06 71.00 335.61 71.06 341.16 70.93 C 338.47 63.30 336.02 55.58 332.92 48.11 C 329.68 55.56 327.30 63.36 324.52 70.98 Z" />
</g>
<g id="#fad5d5ff">
<path fill="#fad5d5" opacity="1.00" d=" M 154.38 169.09 C 246.90 168.86 339.43 169.10 431.95 168.97 C 433.55 169.03 435.86 168.61 436.32 170.71 C 453.38 204.76 470.54 238.77 487.36 272.94 C 357.15 273.02 226.95 272.90 96.74 273.00 C 115.83 238.30 135.29 203.79 154.38 169.09 Z" />
<path fill="#fad5d5" opacity="1.00" d=" M 95.15 275.99 C 126.74 276.10 158.33 275.97 189.93 276.06 C 190.03 293.34 189.98 310.62 189.92 327.90 C 148.63 328.07 107.34 327.85 66.05 328.01 C 75.81 310.71 85.22 293.19 95.15 275.99 Z" />
<path fill="#fad5d5" opacity="1.00" d=" M 193.08 276.09 C 226.02 275.98 258.96 276.04 291.90 276.05 C 292.06 328.03 291.91 380.01 291.98 431.99 C 197.48 432.01 102.97 432.00 8.47 431.99 C 26.68 398.12 45.94 364.79 64.28 330.98 L 64.91 330.99 C 107.59 331.05 150.27 331.08 192.95 330.98 C 193.19 312.68 192.89 294.38 193.08 276.09 Z" />
<path fill="#fad5d5" opacity="1.00" d=" M 295.08 276.09 C 326.68 275.98 358.29 276.02 389.89 276.07 C 390.08 294.04 389.85 312.01 390.02 329.98 C 431.98 330.11 473.93 330.04 515.89 329.98 C 532.26 362.35 548.47 394.80 564.81 427.18 C 565.64 428.65 565.94 430.32 566.19 431.98 C 475.79 432.01 385.40 432.01 295.00 431.98 C 295.09 380.02 294.95 328.05 295.08 276.09 Z" />
<path fill="#fad5d5" opacity="1.00" d=" M 393.06 276.09 C 425.00 275.91 456.95 276.14 488.90 275.98 C 497.51 292.90 506.08 309.85 514.33 326.94 C 473.93 326.94 433.51 327.08 393.11 326.87 C 392.97 309.94 393.04 293.02 393.06 276.09 Z" />
</g>
</svg>
