<?xml version="1.0" encoding="UTF-8" ?>
<!DOCTYPE svg PUBLIC "-//W3C//DTD SVG 1.1//EN" "http://www.w3.org/Graphics/SVG/1.1/DTD/svg11.dtd">
<svg width="573pt" height="439pt" viewBox="0 0 573 439" version="1.1" xmlns="http://www.w3.org/2000/svg">
<g id="#ffffffff">
<path fill="#ffffff" opacity="1.00" d=" M 0.00 0.00 L 151.77 0.00 C 101.06 91.24 50.70 182.68 0.00 273.93 L 0.00 0.00 Z" />
<path fill="#ffffff" opacity="1.00" d=" M 438.53 0.00 L 573.00 0.00 L 573.00 272.10 C 528.21 181.38 483.25 90.75 438.53 0.00 Z" />
<path fill="#ffffff" opacity="1.00" d=" M 155.96 10.51 C 159.25 9.79 162.63 10.00 165.97 10.00 C 255.50 10.00 345.02 10.00 434.55 10.00 C 434.97 41.45 434.65 72.92 434.48 104.37 C 341.65 104.35 248.83 104.37 156.00 104.36 C 155.98 73.08 156.05 41.80 155.96 10.51 M 369.77 34.04 C 369.55 38.46 369.71 42.89 369.73 47.31 C 374.92 44.75 379.88 40.80 385.97 40.94 C 390.20 40.61 395.61 43.19 395.79 47.95 C 396.61 54.12 392.16 59.10 388.17 63.18 C 382.03 69.16 375.26 74.50 368.26 79.44 C 368.24 82.61 368.24 85.78 368.21 88.96 C 383.52 88.99 398.83 89.11 414.13 88.89 C 414.14 85.26 413.88 81.64 413.86 78.01 C 405.27 77.95 396.68 78.07 388.09 77.95 C 393.58 73.53 399.42 69.46 404.08 64.10 C 408.43 59.51 411.38 53.42 411.32 47.00 C 411.13 41.84 408.87 36.46 404.32 33.70 C 398.01 29.76 390.23 29.52 383.05 30.21 C 378.65 31.44 373.64 31.50 369.77 34.04 M 171.78 31.06 C 171.80 50.35 171.80 69.65 171.79 88.94 C 180.21 89.06 188.64 88.97 197.07 89.01 C 203.27 88.25 209.98 85.85 213.36 80.21 C 216.04 76.36 216.16 71.37 215.40 66.90 C 214.20 60.94 208.68 56.52 202.78 55.72 C 206.22 53.78 209.71 50.99 210.58 46.93 C 211.09 43.61 211.18 39.85 209.05 37.04 C 206.42 33.07 201.46 31.90 197.09 31.03 C 188.66 30.97 180.22 30.97 171.78 31.06 M 236.87 42.01 C 231.14 57.64 225.60 73.33 219.81 88.93 C 221.90 88.98 224.01 89.00 226.11 89.01 C 227.73 84.68 229.18 80.29 230.75 75.95 C 237.52 76.09 244.29 75.92 251.06 76.05 C 252.76 80.33 253.93 84.80 255.74 89.04 C 257.88 89.00 260.03 88.97 262.18 88.93 C 256.43 73.32 250.82 57.65 245.13 42.01 C 242.37 41.99 239.62 42.00 236.87 42.01 M 269.30 42.07 C 269.38 57.69 269.39 73.31 269.30 88.94 C 271.27 88.98 273.24 88.98 275.22 88.96 C 275.24 75.28 275.13 61.59 275.27 47.90 C 276.56 49.30 277.33 51.06 278.16 52.76 C 284.41 64.84 290.77 76.88 297.02 88.96 C 299.58 89.02 302.15 89.01 304.71 88.91 C 304.59 73.29 304.63 57.67 304.69 42.05 C 302.72 42.02 300.75 42.02 298.79 42.04 C 298.76 54.60 298.86 67.17 298.73 79.73 C 291.87 67.33 285.47 54.66 278.96 42.05 C 275.74 41.97 272.52 41.97 269.30 42.07 M 328.87 42.02 C 323.15 57.65 317.58 73.33 311.82 88.94 C 313.91 88.98 316.01 89.00 318.12 89.01 C 319.63 84.73 321.30 80.50 322.51 76.12 C 329.35 75.88 336.21 76.01 343.06 76.05 C 344.78 80.33 345.90 84.84 347.78 89.06 C 349.90 89.01 352.02 88.98 354.15 88.94 C 348.45 73.29 342.83 57.61 337.08 41.98 C 334.34 42.00 331.60 42.00 328.87 42.02 Z" />
<path fill="#ffffff" opacity="1.00" d=" M 438.51 16.79 C 443.22 27.97 449.11 38.65 454.20 49.67 C 490.93 124.85 527.32 200.21 564.19 275.31 C 564.64 275.29 565.54 275.25 565.99 275.23 C 566.02 304.84 565.99 334.45 566.00 364.05 C 565.86 383.02 566.28 401.99 565.78 420.95 C 548.16 384.82 529.88 349.00 512.00 312.99 C 490.42 269.89 468.72 226.86 447.23 183.71 C 444.31 177.63 440.99 171.73 438.32 165.54 C 438.06 147.06 438.74 128.58 438.50 110.10 C 438.41 78.99 439.21 47.89 438.51 16.79 Z" />
<path fill="#ffffff" opacity="1.00" d=" M 8.71 278.03 C 56.47 191.64 104.20 105.24 151.93 18.83 C 152.11 66.89 151.93 114.94 152.02 162.99 C 152.13 164.48 151.84 165.96 150.99 167.22 C 111.15 238.81 71.33 310.42 31.51 382.03 C 23.51 396.66 15.06 411.07 7.38 425.87 C 6.79 422.93 7.03 419.93 7.00 416.96 C 7.01 370.55 6.99 324.14 7.01 277.73 C 7.43 277.80 8.28 277.95 8.71 278.03 Z" />
<path fill="#ffffff" opacity="1.00" d=" M 179.65 38.00 C 186.29 38.54 193.35 36.70 199.66 39.33 C 203.34 40.93 203.39 45.85 202.17 49.09 C 200.91 52.36 197.23 53.51 194.08 53.98 C 189.27 54.08 184.46 53.95 179.65 54.00 C 179.64 48.67 179.65 43.33 179.65 38.00 Z" />
<path fill="#ffffff" opacity="1.00" d=" M 240.80 47.85 C 244.05 55.36 246.36 63.26 249.21 70.94 C 243.64 71.06 238.06 70.99 232.48 70.99 C 235.24 63.27 237.93 55.53 240.80 47.85 Z" />
<path fill="#ffffff" opacity="1.00" d=" M 332.75 47.85 C 336.10 55.32 338.31 63.28 341.23 70.93 C 335.64 71.06 330.06 70.99 324.48 70.99 C 327.21 63.27 329.98 55.56 332.75 47.85 Z" />
<path fill="#ffffff" opacity="1.00" d=" M 179.65 61.00 C 185.82 61.05 191.99 60.91 198.15 61.04 C 201.68 61.78 205.85 63.16 207.19 66.89 C 208.60 71.31 208.07 77.09 203.64 79.63 C 196.27 83.58 187.64 81.48 179.65 82.00 C 179.65 75.00 179.64 68.00 179.65 61.00 Z" />
<path fill="#ffffff" opacity="1.00" d=" M 156.00 105.64 C 248.83 105.63 341.66 105.64 434.49 105.64 C 434.35 118.76 434.83 131.89 434.20 145.00 C 341.48 145.00 248.75 145.00 156.02 145.00 C 155.97 131.88 156.01 118.76 156.00 105.64 Z" />
<path fill="#ffffff" opacity="1.00" d=" M 156.02 148.00 C 248.76 148.00 341.51 148.00 434.25 148.00 C 434.24 153.33 434.25 158.66 434.25 164.00 C 341.50 164.00 248.75 164.00 156.00 164.00 C 156.01 158.67 155.97 153.33 156.02 148.00 Z" />
</g>
<g id="#000000ff">
<path fill="#000000" opacity="1.00" d=" M 151.77 0.00 L 438.53 0.00 C 483.25 90.75 528.21 181.38 573.00 272.10 L 573.00 439.00 L 0.00 439.00 L 0.00 273.93 C 50.70 182.68 101.06 91.24 151.77 0.00 M 156.03 7.00 C 156.01 8.17 155.98 9.34 155.96 10.51 C 156.05 41.80 155.98 73.08 156.00 104.36 C 248.83 104.37 341.65 104.35 434.48 104.37 C 434.65 72.92 434.97 41.45 434.55 10.00 C 435.07 8.06 434.20 6.35 432.00 6.98 C 340.01 7.03 248.02 6.99 156.03 7.00 M 438.06 9.84 C 438.42 12.14 438.45 14.47 438.51 16.79 C 439.21 47.89 438.41 78.99 438.50 110.10 C 438.74 128.58 438.06 147.06 438.32 165.54 C 440.99 171.73 444.31 177.63 447.23 183.71 C 468.72 226.86 490.42 269.89 512.00 312.99 C 529.88 349.00 548.16 384.82 565.78 420.95 C 566.28 401.99 565.86 383.02 566.00 364.05 C 565.99 334.45 566.02 304.84 565.99 275.23 L 567.12 275.06 C 562.81 264.90 557.58 255.15 552.85 245.18 C 522.53 182.81 492.14 120.48 461.82 58.12 C 453.81 42.07 446.38 25.72 438.06 9.84 M 147.84 19.79 C 100.70 105.06 53.61 190.37 6.44 275.63 C 5.87 276.50 6.06 277.20 7.01 277.73 C 6.99 324.14 7.01 370.55 7.00 416.96 C 7.03 419.93 6.79 422.93 7.38 425.87 C 15.06 411.07 23.51 396.66 31.51 382.03 C 71.33 310.42 111.15 238.81 150.99 167.22 C 151.84 165.96 152.13 164.48 152.02 162.99 C 151.93 114.94 152.11 66.89 151.93 18.83 C 152.17 16.83 151.97 14.80 151.89 12.80 C 150.34 15.01 149.11 17.41 147.84 19.79 M 156.00 105.64 C 156.01 118.76 155.97 131.88 156.02 145.00 C 156.02 145.75 156.02 147.25 156.02 148.00 C 155.97 153.33 156.01 158.67 156.00 164.00 C 248.75 164.00 341.50 164.00 434.25 164.00 C 434.25 158.66 434.24 153.33 434.25 148.00 C 434.24 147.25 434.22 145.75 434.20 145.00 C 434.83 131.89 434.35 118.76 434.49 105.64 C 341.66 105.64 248.83 105.63 156.00 105.64 M 154.41 169.09 C 135.37 203.81 115.91 238.31 96.78 272.99 C 96.25 273.99 95.72 275.00 95.17 276.00 C 85.31 293.22 75.88 310.69 66.11 327.98 C 65.71 328.98 65.31 330.00 64.91 331.02 L 64.34 331.02 C 45.92 364.79 26.82 398.20 8.44 432.00 C 102.96 431.99 197.48 432.03 292.00 431.97 C 292.75 431.97 294.25 431.97 295.00 431.97 C 385.38 432.03 475.76 431.99 566.14 431.99 C 565.97 430.64 565.87 429.24 565.16 428.05 C 558.62 415.20 552.34 402.22 545.73 389.41 C 535.62 369.68 526.01 349.69 515.83 330.00 C 515.37 329.00 514.92 328.00 514.49 327.00 L 514.32 327.00 C 506.02 309.92 497.49 292.93 488.85 276.02 C 488.38 275.01 487.92 274.00 487.47 272.99 L 487.36 272.99 C 470.27 238.31 452.74 203.83 435.59 169.19 C 433.73 169.02 431.85 168.96 429.99 168.98 C 338.13 169.08 246.27 168.87 154.41 169.09 Z" />
</g>
<g id="#c23f43ff">
<path fill="#c23f43" opacity="1.00" d=" M 156.03 7.00 C 248.02 6.99 340.01 7.03 432.00 6.98 C 434.20 6.35 435.07 8.06 434.55 10.00 C 345.02 10.00 255.50 10.00 165.97 10.00 C 162.63 10.00 159.25 9.79 155.96 10.51 C 155.98 9.34 156.01 8.17 156.03 7.00 Z" />
<path fill="#c23f43" opacity="1.00" d=" M 438.06 9.84 C 446.38 25.72 453.81 42.07 461.82 58.12 C 492.14 120.48 522.53 182.81 552.85 245.18 C 557.58 255.15 562.81 264.90 567.12 275.06 L 565.99 275.23 C 565.54 275.25 564.64 275.29 564.19 275.31 C 527.32 200.21 490.93 124.85 454.20 49.67 C 449.11 38.65 443.22 27.97 438.51 16.79 C 438.45 14.47 438.42 12.14 438.06 9.84 Z" />
<path fill="#c23f43" opacity="1.00" d=" M 147.84 19.79 C 149.11 17.41 150.34 15.01 151.89 12.80 C 151.97 14.80 152.17 16.83 151.93 18.83 C 104.20 105.24 56.47 191.64 8.71 278.03 C 8.28 277.95 7.43 277.80 7.01 277.73 C 6.06 277.20 5.87 276.50 6.44 275.63 C 53.61 190.37 100.70 105.06 147.84 19.79 Z" />
<path fill="#c23f43" opacity="1.00" d=" M 156.02 145.00 C 248.75 145.00 341.48 145.00 434.20 145.00 C 434.22 145.75 434.24 147.25 434.25 148.00 C 341.51 148.00 248.76 148.00 156.02 148.00 C 156.02 147.25 156.02 145.75 156.02 145.00 Z" />
<path fill="#c23f43" opacity="1.00" d=" M 96.78 272.99 C 226.97 273.01 357.16 273.01 487.36 272.99 L 487.47 272.99 C 487.92 274.00 488.38 275.01 488.85 276.02 C 456.90 275.99 424.95 276.00 393.01 276.01 C 393.00 293.00 392.99 310.00 393.01 326.99 C 433.45 327.01 473.88 326.99 514.32 327.00 L 514.49 327.00 C 514.92 328.00 515.37 329.00 515.83 330.00 C 473.89 330.00 431.94 330.00 390.00 330.00 C 390.00 312.00 390.01 294.01 389.99 276.01 C 358.33 276.00 326.67 275.99 295.01 276.01 C 294.99 328.00 295.00 379.99 295.00 431.97 C 294.25 431.97 292.75 431.97 292.00 431.97 C 291.99 379.98 292.01 328.00 291.99 276.01 C 259.00 276.00 226.00 275.99 193.01 276.01 C 192.99 294.34 193.00 312.67 193.00 331.00 C 150.31 331.01 107.61 330.98 64.91 331.02 C 65.31 330.00 65.71 328.98 66.11 327.98 C 107.41 328.02 148.70 328.00 189.99 327.99 C 190.00 310.66 190.00 293.34 189.99 276.01 C 158.39 275.99 126.78 276.01 95.17 276.00 C 95.72 275.00 96.25 273.99 96.78 272.99 Z" />
</g>
<g id="#444444ff">
<path fill="#444444" opacity="1.00" d=" M 369.77 34.04 C 373.64 31.50 378.65 31.44 383.05 30.21 C 390.23 29.52 398.01 29.76 404.32 33.70 C 408.87 36.46 411.13 41.84 411.32 47.00 C 411.38 53.42 408.43 59.51 404.08 64.10 C 399.42 69.46 393.58 73.53 388.09 77.95 C 396.68 78.07 405.27 77.95 413.86 78.01 C 413.88 81.64 414.14 85.26 414.13 88.89 C 398.83 89.11 383.52 88.99 368.21 88.96 C 368.24 85.78 368.24 82.61 368.26 79.44 C 375.26 74.50 382.03 69.16 388.17 63.18 C 392.16 59.10 396.61 54.12 395.79 47.95 C 395.61 43.19 390.20 40.61 385.97 40.94 C 379.88 40.80 374.92 44.75 369.73 47.31 C 369.71 42.89 369.55 38.46 369.77 34.04 Z" />
<path fill="#444444" opacity="1.00" d=" M 171.78 31.06 C 180.22 30.97 188.66 30.97 197.09 31.03 C 201.46 31.90 206.42 33.07 209.05 37.04 C 211.18 39.85 211.09 43.61 210.58 46.93 C 209.71 50.99 206.22 53.78 202.78 55.72 C 208.68 56.52 214.20 60.94 215.40 66.90 C 216.16 71.37 216.04 76.36 213.36 80.21 C 209.98 85.85 203.27 88.25 197.07 89.01 C 188.64 88.97 180.21 89.06 171.79 88.94 C 171.80 69.65 171.80 50.35 171.78 31.06 M 179.65 38.00 C 179.65 43.33 179.64 48.67 179.65 54.00 C 184.46 53.95 189.27 54.08 194.08 53.98 C 197.23 53.51 200.91 52.36 202.17 49.09 C 203.39 45.85 203.34 40.93 199.66 39.33 C 193.35 36.70 186.29 38.54 179.65 38.00 M 179.65 61.00 C 179.64 68.00 179.65 75.00 179.65 82.00 C 187.64 81.48 196.27 83.58 203.64 79.63 C 208.07 77.09 208.60 71.31 207.19 66.89 C 205.85 63.16 201.68 61.78 198.15 61.04 C 191.99 60.91 185.82 61.05 179.65 61.00 Z" />
<path fill="#444444" opacity="1.00" d=" M 236.87 42.01 C 239.62 42.00 242.37 41.99 245.13 42.01 C 250.82 57.65 256.43 73.32 262.18 88.93 C 260.03 88.97 257.88 89.00 255.74 89.04 C 253.93 84.80 252.76 80.33 251.06 76.05 C 244.29 75.92 237.52 76.09 230.75 75.95 C 229.18 80.29 227.73 84.68 226.11 89.01 C 224.01 89.00 221.90 88.98 219.81 88.93 C 225.60 73.33 231.14 57.64 236.87 42.01 M 240.80 47.85 C 237.93 55.53 235.24 63.27 232.48 70.99 C 238.06 70.99 243.64 71.06 249.21 70.94 C 246.36 63.26 244.05 55.36 240.80 47.85 Z" />
<path fill="#444444" opacity="1.00" d=" M 269.30 42.07 C 272.52 41.97 275.74 41.97 278.96 42.05 C 285.47 54.66 291.87 67.33 298.73 79.73 C 298.86 67.17 298.76 54.60 298.79 42.04 C 300.75 42.02 302.72 42.02 304.69 42.05 C 304.63 57.67 304.59 73.29 304.71 88.91 C 302.15 89.01 299.58 89.02 297.02 88.96 C 290.77 76.88 284.41 64.84 278.16 52.76 C 277.33 51.06 276.56 49.30 275.27 47.90 C 275.13 61.59 275.24 75.28 275.22 88.96 C 273.24 88.98 271.27 88.98 269.30 88.94 C 269.39 73.31 269.38 57.69 269.30 42.07 Z" />
<path fill="#444444" opacity="1.00" d=" M 328.87 42.02 C 331.60 42.00 334.34 42.00 337.08 41.98 C 342.83 57.61 348.45 73.29 354.15 88.94 C 352.02 88.98 349.90 89.01 347.78 89.06 C 345.90 84.84 344.78 80.33 343.06 76.05 C 336.21 76.01 329.35 75.88 322.51 76.12 C 321.30 80.50 319.63 84.73 318.12 89.01 C 316.01 89.00 313.91 88.98 311.82 88.94 C 317.58 73.33 323.15 57.65 328.87 42.02 M 332.75 47.85 C 329.98 55.56 327.21 63.27 324.48 70.99 C 330.06 70.99 335.64 71.06 341.23 70.93 C 338.31 63.28 336.10 55.32 332.75 47.85 Z" />
</g>
<g id="#add8e6ff">
<path fill="#add8e6" opacity="1.00" d=" M 154.41 169.09 C 246.27 168.87 338.13 169.08 429.99 168.98 C 431.85 168.96 433.73 169.02 435.59 169.19 C 452.74 203.83 470.27 238.31 487.36 272.99 C 357.16 273.01 226.97 273.01 96.78 272.99 C 115.91 238.31 135.37 203.81 154.41 169.09 Z" />
<path fill="#add8e6" opacity="1.00" d=" M 95.17 276.00 C 126.78 276.01 158.39 275.99 189.99 276.01 C 190.00 293.34 190.00 310.66 189.99 327.99 C 148.70 328.00 107.41 328.02 66.11 327.98 C 75.88 310.69 85.31 293.22 95.17 276.00 Z" />
<path fill="#add8e6" opacity="1.00" d=" M 193.01 276.01 C 226.00 275.99 259.00 276.00 291.99 276.01 C 292.01 328.00 291.99 379.98 292.00 431.97 C 197.48 432.03 102.96 431.99 8.44 432.00 C 26.82 398.20 45.92 364.79 64.34 331.02 L 64.91 331.02 C 107.61 330.98 150.31 331.01 193.00 331.00 C 193.00 312.67 192.99 294.34 193.01 276.01 Z" />
<path fill="#add8e6" opacity="1.00" d=" M 295.01 276.01 C 326.67 275.99 358.33 276.00 389.99 276.01 C 390.01 294.01 390.00 312.00 390.00 330.00 C 431.94 330.00 473.89 330.00 515.83 330.00 C 526.01 349.69 535.62 369.68 545.73 389.41 C 552.34 402.22 558.62 415.20 565.16 428.05 C 565.87 429.24 565.97 430.64 566.14 431.99 C 475.76 431.99 385.38 432.03 295.00 431.97 C 295.00 379.99 294.99 328.00 295.01 276.01 Z" />
<path fill="#add8e6" opacity="1.00" d=" M 393.01 276.01 C 424.95 276.00 456.90 275.99 488.85 276.02 C 497.49 292.93 506.02 309.92 514.32 327.00 C 473.88 326.99 433.45 327.01 393.01 326.99 C 392.99 310.00 393.00 293.00 393.01 276.01 Z" />
</g>
</svg>
