<?xml version="1.0" encoding="UTF-8" ?>
<!DOCTYPE svg PUBLIC "-//W3C//DTD SVG 1.1//EN" "http://www.w3.org/Graphics/SVG/1.1/DTD/svg11.dtd">
<svg width="573pt" height="439pt" viewBox="0 0 573 439" version="1.1" xmlns="http://www.w3.org/2000/svg">
<g id="#ffffffff">
<path fill="#ffffff" opacity="1.00" d=" M 0.00 0.00 L 151.77 0.00 C 101.05 91.22 50.75 182.67 0.00 273.86 L 0.00 0.00 Z" />
<path fill="#ffffff" opacity="1.00" d=" M 438.53 0.00 L 573.00 0.00 L 573.00 272.26 C 528.34 181.43 483.23 90.81 438.53 0.00 Z" />
<path fill="#ffffff" opacity="1.00" d=" M 156.19 10.04 C 248.96 9.93 341.74 10.02 434.51 10.00 C 435.01 41.45 434.65 72.92 434.47 104.38 C 341.64 104.34 248.82 104.37 156.00 104.36 C 156.12 72.92 155.75 41.47 156.19 10.04 M 369.77 34.10 C 369.55 38.50 369.69 42.92 369.76 47.33 C 376.35 43.68 384.31 38.25 391.96 42.32 C 396.25 44.14 396.46 49.56 395.24 53.40 C 392.97 58.95 388.38 63.08 384.05 67.05 C 379.00 71.32 373.95 75.64 368.40 79.23 C 368.13 82.48 368.24 85.74 368.25 89.00 C 383.47 88.98 398.69 89.05 413.91 88.96 C 413.86 85.32 413.86 81.68 413.91 78.03 C 405.23 77.90 396.56 78.15 387.89 77.89 C 394.45 73.14 400.97 68.15 406.06 61.79 C 410.14 56.53 412.43 49.45 410.71 42.87 C 409.79 38.88 407.26 35.23 403.62 33.28 C 397.40 29.75 389.95 29.53 383.02 30.22 C 378.65 31.48 373.54 31.46 369.77 34.10 M 171.78 31.06 C 171.80 50.35 171.80 69.65 171.79 88.95 C 180.20 89.06 188.61 88.97 197.02 89.01 C 203.35 88.27 210.18 85.75 213.53 79.95 C 216.02 76.21 216.12 71.45 215.45 67.15 C 214.37 61.06 208.72 56.44 202.70 55.76 C 206.18 53.83 209.70 51.03 210.58 46.94 C 211.19 43.45 211.06 39.51 208.78 36.61 C 205.99 32.98 201.28 31.83 197.01 31.02 C 188.60 30.98 180.19 30.96 171.78 31.06 M 219.80 88.93 C 221.90 88.98 224.01 89.00 226.11 89.01 C 227.76 84.68 229.14 80.26 230.78 75.94 C 237.54 76.10 244.30 75.91 251.06 76.05 C 252.80 80.34 253.87 84.87 255.81 89.08 C 257.93 89.01 260.05 88.97 262.17 88.93 C 256.38 73.31 250.85 57.59 245.07 41.97 C 242.34 42.01 239.62 42.01 236.90 41.99 C 231.11 57.61 225.62 73.33 219.80 88.93 M 269.30 42.07 C 269.40 57.71 269.36 73.34 269.32 88.97 C 271.28 88.98 273.25 88.98 275.22 88.96 C 275.41 75.24 274.79 61.47 275.52 47.79 C 282.72 61.47 289.88 75.18 296.97 88.93 C 299.56 89.04 302.15 89.04 304.73 88.88 C 304.60 73.30 304.57 57.71 304.75 42.13 C 302.76 42.02 300.77 42.00 298.79 42.03 C 298.76 54.51 298.87 66.99 298.73 79.46 C 297.90 78.32 297.09 77.15 296.46 75.88 C 290.79 64.53 284.62 53.44 278.98 42.07 C 275.75 41.96 272.52 41.96 269.30 42.07 M 311.80 88.93 C 313.90 88.98 316.01 89.00 318.11 89.01 C 319.76 84.68 321.14 80.26 322.78 75.93 C 329.54 76.10 336.30 75.91 343.06 76.05 C 344.81 80.34 345.87 84.89 347.84 89.10 C 349.96 89.01 352.08 88.96 354.20 88.91 C 348.36 73.33 342.84 57.63 337.13 42.01 C 334.37 42.00 331.63 42.00 328.88 42.01 C 323.13 57.63 317.61 73.33 311.80 88.93 Z" />
<path fill="#ffffff" opacity="1.00" d=" M 438.50 16.79 C 439.67 20.07 441.33 23.14 442.87 26.26 C 478.75 99.97 514.63 173.68 550.51 247.39 C 555.64 257.43 559.99 267.91 565.67 277.64 L 565.92 277.93 C 566.13 323.63 565.92 369.34 566.02 415.04 C 566.05 417.01 565.89 418.98 565.61 420.94 C 560.96 410.00 555.08 399.60 549.94 388.88 C 513.02 314.86 475.80 240.99 438.86 166.99 C 437.86 165.17 438.34 163.02 438.24 161.05 C 438.12 147.69 438.68 134.36 438.50 121.01 C 438.28 86.27 439.26 51.52 438.50 16.79 Z" />
<path fill="#ffffff" opacity="1.00" d=" M 144.06 33.02 C 146.68 28.44 148.98 23.69 151.88 19.28 C 152.17 66.87 151.89 114.46 152.02 162.04 C 151.96 163.53 152.22 165.15 151.38 166.48 C 103.31 252.99 55.14 339.44 7.10 425.97 C 6.88 377.28 7.03 328.59 7.03 279.90 L 7.28 279.60 C 9.62 276.68 11.27 273.30 13.09 270.05 C 56.75 191.04 100.40 112.02 144.06 33.02 Z" />
<path fill="#ffffff" opacity="1.00" d=" M 179.65 38.00 C 185.78 38.41 192.15 37.11 198.13 38.75 C 204.67 40.03 204.26 50.48 198.60 52.69 C 192.63 55.23 185.94 53.49 179.65 54.00 C 179.65 48.67 179.65 43.33 179.65 38.00 Z" />
<path fill="#ffffff" opacity="1.00" d=" M 240.79 47.86 C 244.03 55.36 246.41 63.25 249.17 70.95 C 243.58 70.99 237.99 71.11 232.40 70.88 C 235.38 63.27 237.88 55.49 240.79 47.86 Z" />
<path fill="#ffffff" opacity="1.00" d=" M 332.77 47.86 C 336.07 55.34 338.37 63.26 341.19 70.94 C 335.59 71.00 329.99 71.11 324.40 70.88 C 327.37 63.27 329.90 55.50 332.77 47.86 Z" />
<path fill="#ffffff" opacity="1.00" d=" M 179.65 61.00 C 185.79 61.05 191.93 60.92 198.07 61.04 C 201.57 61.73 205.66 63.09 207.13 66.69 C 208.60 71.14 208.15 77.00 203.69 79.60 C 196.32 83.61 187.66 81.47 179.66 82.00 C 179.64 75.00 179.65 68.00 179.65 61.00 Z" />
<path fill="#ffffff" opacity="1.00" d=" M 156.00 105.64 C 248.83 105.64 341.66 105.64 434.49 105.64 C 434.35 118.76 434.83 131.89 434.21 145.00 C 341.47 145.00 248.74 145.00 156.01 145.00 C 155.99 131.88 156.00 118.76 156.00 105.64 Z" />
<path fill="#ffffff" opacity="1.00" d=" M 156.01 148.00 C 248.76 148.00 341.50 148.00 434.25 148.00 C 434.24 153.33 434.25 158.66 434.25 164.00 C 341.50 164.00 248.75 164.00 156.00 164.00 C 156.00 158.67 155.99 153.33 156.01 148.00 Z" />
</g>
<g id="#000000ff">
<path fill="#000000" opacity="1.00" d=" M 151.77 0.00 L 438.53 0.00 C 483.23 90.81 528.34 181.43 573.00 272.26 L 573.00 439.00 L 0.00 439.00 L 0.00 273.86 C 50.75 182.67 101.05 91.22 151.77 0.00 M 155.92 7.00 C 155.99 7.76 156.12 9.28 156.19 10.04 C 155.75 41.47 156.12 72.92 156.00 104.36 C 248.82 104.37 341.64 104.34 434.47 104.38 C 434.65 72.92 435.01 41.45 434.51 10.00 C 434.50 9.24 434.48 7.74 434.47 6.99 C 341.62 7.01 248.77 7.00 155.92 7.00 M 438.50 16.79 C 439.26 51.52 438.28 86.27 438.50 121.01 C 438.68 134.36 438.12 147.69 438.24 161.05 C 438.34 163.02 437.86 165.17 438.86 166.99 C 475.80 240.99 513.02 314.86 549.94 388.88 C 555.08 399.60 560.96 410.00 565.61 420.94 C 565.89 418.98 566.05 417.01 566.02 415.04 C 565.92 369.34 566.13 323.63 565.92 277.93 L 565.67 277.64 C 566.05 276.43 566.43 275.23 566.84 274.04 C 524.21 185.96 481.18 98.08 438.46 10.05 C 438.46 12.30 438.37 14.55 438.50 16.79 M 6.08 276.16 C 6.49 277.29 6.89 278.44 7.28 279.60 L 7.03 279.90 C 7.03 328.59 6.88 377.28 7.10 425.97 C 55.14 339.44 103.31 252.99 151.38 166.48 C 152.22 165.15 151.96 163.53 152.02 162.04 C 151.89 114.46 152.17 66.87 151.88 19.28 C 152.14 17.09 151.95 14.88 151.83 12.69 C 103.09 100.41 54.80 188.41 6.08 276.16 M 156.00 105.64 C 156.00 118.76 155.99 131.88 156.01 145.00 C 156.01 145.75 156.01 147.25 156.01 148.00 C 155.99 153.33 156.00 158.67 156.00 164.00 C 248.75 164.00 341.50 164.00 434.25 164.00 C 434.25 158.66 434.24 153.33 434.25 148.00 C 434.24 147.25 434.22 145.75 434.21 145.00 C 434.83 131.89 434.35 118.76 434.49 105.64 C 341.66 105.64 248.83 105.64 156.00 105.64 M 96.85 272.97 C 96.29 273.98 95.72 274.99 95.16 276.00 C 85.49 293.32 75.93 310.71 66.19 327.99 C 65.73 329.02 65.28 330.05 64.84 331.09 L 64.38 331.10 C 45.95 364.85 27.02 398.34 8.41 431.99 C 102.94 432.00 197.47 432.01 292.00 431.99 C 292.75 431.99 294.25 431.99 295.00 431.99 C 385.39 432.01 475.77 432.01 566.16 431.99 C 565.95 430.63 565.78 429.25 565.05 428.06 C 548.67 395.36 532.16 362.74 515.86 330.00 C 515.35 328.99 514.85 327.99 514.35 327.00 C 505.88 309.99 497.36 293.00 488.86 276.00 C 488.35 274.99 487.85 273.99 487.35 273.00 C 469.90 238.32 452.87 203.43 435.10 168.93 C 341.66 169.06 248.21 169.03 154.77 168.94 C 135.36 203.56 116.18 238.31 96.85 272.97 Z" />
</g>
<g id="#c33035ff">
<path fill="#c33035" opacity="1.00" d=" M 155.92 7.00 C 248.77 7.00 341.62 7.01 434.47 6.99 C 434.48 7.74 434.50 9.24 434.51 10.00 C 341.74 10.02 248.96 9.93 156.19 10.04 C 156.12 9.28 155.99 7.76 155.92 7.00 Z" />
<path fill="#c33035" opacity="1.00" d=" M 438.50 16.79 C 438.37 14.55 438.46 12.30 438.46 10.05 C 481.18 98.08 524.21 185.96 566.84 274.04 C 566.43 275.23 566.05 276.43 565.67 277.64 C 559.99 267.91 555.64 257.43 550.51 247.39 C 514.63 173.68 478.75 99.97 442.87 26.26 C 441.33 23.14 439.67 20.07 438.50 16.79 Z" />
<path fill="#c33035" opacity="1.00" d=" M 6.08 276.16 C 54.80 188.41 103.09 100.41 151.83 12.69 C 151.95 14.88 152.14 17.09 151.88 19.28 C 148.98 23.69 146.68 28.44 144.06 33.02 C 100.40 112.02 56.75 191.04 13.09 270.05 C 11.27 273.30 9.62 276.68 7.28 279.60 C 6.89 278.44 6.49 277.29 6.08 276.16 Z" />
<path fill="#c33035" opacity="1.00" d=" M 156.01 145.00 C 248.74 145.00 341.47 145.00 434.21 145.00 C 434.22 145.75 434.24 147.25 434.25 148.00 C 341.50 148.00 248.76 148.00 156.01 148.00 C 156.01 147.25 156.01 145.75 156.01 145.00 Z" />
<path fill="#c33035" opacity="1.00" d=" M 96.85 272.97 C 227.02 273.03 357.18 272.99 487.35 273.00 C 487.85 273.99 488.35 274.99 488.86 276.00 C 456.91 276.00 424.96 275.99 393.00 276.00 C 393.00 293.00 393.00 310.00 393.00 327.00 C 433.45 327.00 473.90 327.00 514.35 327.00 C 514.85 327.99 515.35 328.99 515.86 330.00 C 473.91 330.00 431.95 330.00 390.00 330.00 C 390.00 312.00 390.00 294.00 390.00 276.00 C 358.33 276.00 326.67 276.00 295.00 276.01 C 295.00 328.00 295.00 380.00 295.00 431.99 C 294.25 431.99 292.75 431.99 292.00 431.99 C 292.00 380.00 292.01 328.00 292.00 276.01 C 259.00 276.00 226.00 276.00 193.00 276.00 C 193.00 294.34 193.00 312.67 193.00 331.00 C 150.28 331.05 107.56 330.89 64.84 331.09 C 65.28 330.05 65.73 329.02 66.19 327.99 C 107.46 328.01 148.73 328.00 190.00 328.00 C 190.00 310.66 190.00 293.33 190.00 276.00 C 158.38 275.99 126.77 276.00 95.16 276.00 C 95.72 274.99 96.29 273.98 96.85 272.97 Z" />
</g>
<g id="#444444ff">
<path fill="#444444" opacity="1.00" d=" M 369.77 34.10 C 373.54 31.46 378.65 31.48 383.02 30.22 C 389.95 29.53 397.40 29.75 403.62 33.28 C 407.26 35.23 409.79 38.88 410.71 42.87 C 412.43 49.45 410.14 56.53 406.06 61.79 C 400.97 68.15 394.45 73.14 387.89 77.89 C 396.56 78.15 405.23 77.90 413.91 78.03 C 413.86 81.68 413.86 85.32 413.91 88.96 C 398.69 89.05 383.47 88.98 368.25 89.00 C 368.24 85.74 368.13 82.48 368.40 79.23 C 373.95 75.64 379.00 71.32 384.05 67.05 C 388.38 63.08 392.97 58.95 395.24 53.40 C 396.46 49.56 396.25 44.14 391.96 42.32 C 384.31 38.25 376.35 43.68 369.76 47.33 C 369.69 42.92 369.55 38.50 369.77 34.10 Z" />
<path fill="#444444" opacity="1.00" d=" M 171.78 31.06 C 180.19 30.96 188.60 30.98 197.01 31.02 C 201.28 31.83 205.99 32.98 208.78 36.61 C 211.06 39.51 211.19 43.45 210.58 46.94 C 209.70 51.03 206.18 53.83 202.70 55.76 C 208.72 56.44 214.37 61.06 215.45 67.15 C 216.12 71.45 216.02 76.21 213.53 79.95 C 210.18 85.75 203.35 88.27 197.02 89.01 C 188.61 88.97 180.20 89.06 171.79 88.95 C 171.80 69.65 171.80 50.35 171.78 31.06 M 179.65 38.00 C 179.65 43.33 179.65 48.67 179.65 54.00 C 185.94 53.49 192.63 55.23 198.60 52.69 C 204.26 50.48 204.67 40.03 198.13 38.75 C 192.15 37.11 185.78 38.41 179.65 38.00 M 179.65 61.00 C 179.65 68.00 179.64 75.00 179.66 82.00 C 187.66 81.47 196.32 83.61 203.69 79.60 C 208.15 77.00 208.60 71.14 207.13 66.69 C 205.66 63.09 201.57 61.73 198.07 61.04 C 191.93 60.92 185.79 61.05 179.65 61.00 Z" />
<path fill="#444444" opacity="1.00" d=" M 219.80 88.93 C 225.62 73.33 231.11 57.61 236.90 41.99 C 239.62 42.01 242.34 42.01 245.07 41.97 C 250.85 57.59 256.38 73.31 262.17 88.93 C 260.05 88.97 257.93 89.01 255.81 89.08 C 253.87 84.87 252.80 80.34 251.06 76.05 C 244.30 75.91 237.54 76.10 230.78 75.94 C 229.14 80.26 227.76 84.68 226.11 89.01 C 224.01 89.00 221.90 88.98 219.80 88.93 M 240.79 47.86 C 237.88 55.49 235.38 63.27 232.40 70.88 C 237.99 71.11 243.58 70.99 249.17 70.95 C 246.41 63.25 244.03 55.36 240.79 47.86 Z" />
<path fill="#444444" opacity="1.00" d=" M 269.30 42.07 C 272.52 41.96 275.75 41.96 278.98 42.07 C 284.62 53.44 290.79 64.53 296.46 75.88 C 297.09 77.15 297.90 78.32 298.73 79.46 C 298.87 66.99 298.76 54.51 298.79 42.03 C 300.77 42.00 302.76 42.02 304.75 42.13 C 304.57 57.71 304.60 73.30 304.73 88.88 C 302.15 89.04 299.56 89.04 296.97 88.93 C 289.88 75.18 282.72 61.47 275.52 47.79 C 274.79 61.47 275.41 75.24 275.22 88.96 C 273.25 88.98 271.28 88.98 269.32 88.97 C 269.36 73.34 269.40 57.71 269.30 42.07 Z" />
<path fill="#444444" opacity="1.00" d=" M 311.80 88.93 C 317.61 73.33 323.13 57.63 328.88 42.01 C 331.63 42.00 334.37 42.00 337.13 42.01 C 342.84 57.63 348.36 73.33 354.20 88.91 C 352.08 88.96 349.96 89.01 347.84 89.10 C 345.87 84.89 344.81 80.34 343.06 76.05 C 336.30 75.91 329.54 76.10 322.78 75.93 C 321.14 80.26 319.76 84.68 318.11 89.01 C 316.01 89.00 313.90 88.98 311.80 88.93 M 332.77 47.86 C 329.90 55.50 327.37 63.27 324.40 70.88 C 329.99 71.11 335.59 71.00 341.19 70.94 C 338.37 63.26 336.07 55.34 332.77 47.86 Z" />
</g>
</svg>
