<?xml version="1.0" standalone="yes"?>
<svg width="180" height="180">
<path style="fill:#fdf6f6; stroke:none;" d="M0 0L0 77C2.39535 73.0782 2.79293 68.3891 4.01157 64C5.484 58.6968 7.68731 53.8325 10.3086 49C25.2905 21.3806 49.8487 6.61755 80 1C73.0813 -1.90321 62.4799 0 55 0L0 0z"/>
<path style="fill:#a3353d; stroke:none;" d="M80 0.513885C68.5697 2.7982 57.3935 5.39369 47 10.956C21.5468 24.5779 4.94709 49.7099 0.324846 78C-8.77832 133.715 45.6867 189.989 102 178.999C110.075 177.423 118.429 175.829 126 172.501C155.04 159.734 176.418 131.833 179.826 100C184.82 53.3544 152.23 9.79985 106 1.75C97.5734 0.282715 88.5365 -1.19211 80 0.513885z"/>
<path style="fill:#fdf6f6; stroke:none;" d="M99 0C102.748 1.80109 106.974 1.88943 111 2.84259C117.033 4.27098 123.438 6.70793 129 9.43904C155.768 22.584 175.164 48.2937 179 78C181.802 71.3223 180 61.2156 180 54L180 0L99 0M82 3.42438C65.0516 5.67697 49.6835 10.9076 36 21.5139C3.72408 46.5316 -5.31913 91.8434 12.0617 128C16.6001 137.441 22.4431 147.638 31.0394 154.002C38.0884 159.221 44.4803 148.478 49.0008 144.004C53.6193 139.433 59.0721 136.792 64 132.737C69.3708 128.318 74.0806 122.909 79 118C82.9475 114.061 86.8365 109.309 93 110.153C98.478 110.902 101.391 116.213 105.09 119.715C113.761 127.925 123.558 134.561 132 143C135.187 146.186 141.841 155.777 146.985 154.694C152.582 153.515 158.4 144.427 161.304 140C171.55 124.382 177.03 106.661 177 88C176.922 39.6862 130.529 -3.02556 82 3.42438z"/>
<path style="fill:#a3353d; stroke:none;" d="M69 39C68.4326 34.5105 67.6204 30.4254 69.1049 26C75.6541 6.47679 96.7645 8.59947 107.525 23.0008C111.806 28.7291 111.999 35.1619 112 42L115 42C115 32.8547 113.834 24.3322 107.583 17.0833C99.6733 7.91058 82.1985 5.59531 73.0278 14.0833C68.0531 18.6877 66.0152 25.4336 66 32C65.9922 35.3894 65.2852 38.2039 69 39M30 79C27.3364 73.2543 22.3485 69.2469 20.4429 63C14.8802 44.7641 36.3312 35.5383 51 40.6844C56.7627 42.7061 60.3793 48.1984 66 50C64.2058 45.4839 61.0922 42.6338 56.9853 40.0679C45.5354 32.9142 27.1865 34.789 19.9992 47.2863C14.2591 57.2673 17.9475 75.5884 30 79M116 51C122.386 48.0261 126.755 41.9225 134 40.3912C147.314 37.5772 158.432 52.6482 156.446 65C154.973 74.1569 148.662 79.1372 145 87C149.837 85.6385 152.765 82.1765 155.451 78C163.262 65.8552 160.959 48.1866 147.999 40.483C137.64 34.3257 119.456 38.6868 116 51M67 42C69.1857 53.2962 80.133 55.6137 85.8557 64.0934C91.5791 72.5741 90 87.2109 90 97L94 97C93.8227 88.4082 91.8948 79.6213 93.213 71C93.8858 66.5996 96.8951 63.2188 98 59C89.1273 60.1154 81.3317 57.7127 74.7492 51.24C71.8447 48.3839 70.2588 44.3584 67 42M113 52C111.227 56.8277 109.774 61.7929 110.094 67C110.382 71.692 112.711 76.2903 111.347 81C109.425 87.6342 103.263 91.301 100 97C109.039 96.7077 113.684 88.4267 123 88C120.893 84.2939 117.526 81.5033 115.468 77.7145C110.886 69.2757 112.699 60.6763 115 52L113 52M32 81C38.5838 89.6875 53.2585 81.6399 62 85.1304C69.5142 88.1309 73.6358 96.3695 82 97C77.7039 88.1307 67.5857 83.8289 67 73C63.0794 74.4442 60.6557 77.6297 56.9961 79.5586C48.4474 84.0647 40.8936 82.5058 32 81M126 98C120.775 101.091 118.089 99.5622 118 107C123.563 105.066 131.368 106.35 137 108L136 103C138.018 104.857 139.37 106.19 142 107L142 103C143.158 105.462 143.335 106.432 146 107C146 105.203 145.986 105.479 145 104L150 107L150 100C146.6 100.22 143.376 99.3842 139.999 99.456C135.435 99.5531 131.651 101.319 128 98L126 98M19 103L19 107C20.7968 107 20.5215 106.986 22 106L20 100C17.7435 99.8299 14.3989 98.8772 12.3333 100.117C10.0262 101.502 10.3133 105.572 13.1883 106.083C15.3538 106.469 17.4598 104.184 19 103M29 107L33 107C32.3387 105.604 32.0356 105.186 31 104C32.4215 102.212 32.6974 101.294 33 99C28.954 100.343 29.0466 103.065 29 107M62 99L62 107C65.3847 106.478 67.3168 105.075 70 103L69 107L73 107L72 100L62 99M77 99C76.4716 102.026 77.1 104.06 78 107L75 107L75 110C77.943 109.219 79.4214 108.605 81 106C86.2936 107.195 91.694 106.726 97 108L97 105C98.7227 105.934 100.106 106.535 102 107L102 102C103.048 103.856 103.513 104.944 104 107C107.502 106.985 109.021 107.007 111 104C112.111 105.742 112.27 106.119 114 107L114 100C112.686 100.768 112.768 100.686 112 102L110 102C109.232 100.686 109.314 100.768 108 100L108 105C106.774 103.021 106.411 102.251 106 100C101.48 100.486 96.4405 101.038 92 100L92 105C91.1631 103.121 90.9913 102.07 91 100C85.7269 99.915 83.0682 99.0948 80 104L79 99L77 99M155 100C154.236 102.746 154.236 104.254 155 107C155.685 105.752 155.749 105.452 156 104C158.61 105.308 159.547 105.613 162 104C166.092 109.681 167.901 103.096 168 99C163.558 99.2482 159.489 100.316 155 100M24 100L24 106L26 106L27 100L24 100M35 107C36.6352 106.455 36.4549 106.635 37 105C38.4063 106.392 39.2713 107.073 41 108L40 102C41.8398 103.717 42.3486 104.566 43 107C49.1391 106.704 52.7674 107.083 53 100L51 100L51 105L49 105L49 100C47.5664 101.393 46.9551 102.233 46 104L45 100C38.8609 100.296 35.2326 99.917 35 107M54 100L54 107C55.7295 106.119 55.8887 105.742 57 104C58.1113 105.742 58.2705 106.119 60 107L61 100L54 100M151 100L151 107L153 107L153 100L151 100z"/>
<path style="fill:#fdf6f6; stroke:none;" d="M0 101L0 180L81 180C77.2217 178.184 73.0269 178.278 69 177.241C61.5129 175.313 53.7688 172.171 46.9853 168.461C29.2367 158.754 15.3393 143.562 7.33642 125C4.02026 117.308 3.38182 108.518 0 101M37 101L37 104C37.6961 102.446 37.6961 102.554 37 101M13 102L13 105L15 105L15 102L13 102M64 102L64 105C65.1952 103.777 65.3164 103.58 66 102L64 102M83 105C85.1236 104.101 85.1007 104.124 86 102C83.636 102.482 83.4824 102.636 83 105M126 102L126 105L128 105L128 102L126 102M164 102L164 105C164.696 103.446 164.696 103.554 164 102M179 102C173.93 141.905 139.329 175.791 99 179C105.919 181.903 116.52 180 124 180L180 180L180 126C180 118.784 181.802 108.678 179 102M87 114C81.8234 121.317 74.2171 126.567 68.0401 133.004C63.8758 137.343 61.1558 142.666 56.9815 147C52.1321 152.035 45.9879 156.593 43 163C55.9971 171.761 72.2348 176.956 88 177C88 155.801 90 135.135 90 114L87 114M94 115C94 127.278 96.0767 138.836 96.9105 151C97.4998 159.597 97 168.383 97 177C112.094 174.967 124.385 169.327 138 163C136.04 156.017 128.981 151.006 124.001 146C114.128 136.075 107.274 121.19 94 115z"/>
</svg>
