<?xml version="1.0" standalone="no"?>
<!DOCTYPE svg PUBLIC "-//W3C//DTD SVG 20010904//EN"
 "http://www.w3.org/TR/2001/REC-SVG-20010904/DTD/svg10.dtd">
<svg version="1.0" xmlns="http://www.w3.org/2000/svg"
 width="700.000000pt" height="700.000000pt" viewBox="0 0 700.000000 700.000000"
 preserveAspectRatio="xMidYMid meet">
<metadata>
Created by potrace 1.11, written by Peter Selinger 2001-2013
</metadata>
<g transform="translate(0.000000,700.000000) scale(0.100000,-0.100000)"
fill="#000000" stroke="none">
<path d="M3308 6845 c-1 -1 -40 -5 -86 -9 -72 -5 -240 -27 -312 -41 -397 -76
-737 -200 -1075 -393 -175 -100 -432 -287 -574 -416 -66 -60 -249 -247 -301
-307 -299 -343 -567 -838 -681 -1259 -7 -25 -14 -49 -15 -55 -6 -20 -36 -140
-39 -158 -2 -10 -6 -26 -9 -35 -3 -9 -8 -37 -11 -62 -3 -25 -8 -52 -10 -60 -4
-17 -16 -91 -20 -130 -1 -14 -5 -47 -9 -75 -3 -27 -8 -77 -11 -110 -7 -78 -8
-436 -1 -495 3 -25 8 -74 11 -110 7 -70 7 -68 30 -213 35 -224 118 -511 214
-742 4 -11 45 -94 89 -185 82 -167 179 -331 274 -463 393 -542 931 -959 1530
-1186 175 -66 412 -135 553 -160 33 -6 71 -13 85 -16 13 -3 42 -7 65 -10 22
-3 56 -8 75 -10 187 -27 469 -35 660 -21 81 6 308 33 354 42 251 47 471 112
691 201 109 44 376 174 405 196 8 7 31 21 50 31 53 29 206 132 290 195 185
139 373 316 547 513 155 176 341 461 458 703 159 326 259 648 305 985 6 41 13
89 15 105 25 173 25 661 0 780 -3 11 -7 43 -10 70 -2 28 -7 61 -10 75 -3 14
-7 39 -10 55 -27 191 -132 537 -231 760 -56 127 -135 282 -166 327 -10 14 -18
29 -18 33 0 3 -33 56 -73 118 -452 692 -1129 1190 -1917 1412 -150 42 -383 88
-512 100 -34 4 -79 9 -98 12 -39 5 -496 13 -502 8z"/>
</g>
</svg>
